<?xml version="1.0" encoding="UTF-8" standalone="no"?>
<!DOCTYPE svg PUBLIC "-//W3C//DTD SVG 1.1//EN" "http://www.w3.org/Graphics/SVG/1.1/DTD/svg11.dtd">
<svg width="100%" height="100%" viewBox="0 0 100 100" version="1.1" xmlns="http://www.w3.org/2000/svg" xmlns:xlink="http://www.w3.org/1999/xlink" xml:space="preserve" xmlns:serif="http://www.serif.com/" style="fill-rule:evenodd;clip-rule:evenodd;stroke-linecap:round;stroke-linejoin:round;stroke-miterlimit:1.5;">
    <g transform="matrix(0.333333,0,0,0.333333,0,0)">
        <g transform="matrix(6.12323e-17,-1,1,6.12323e-17,-2.40532,297.595)">
            <path d="M295.189,78.608L295.189,226.203C295.189,266.933 262.122,300 221.392,300L73.797,300C33.067,300 0,266.933 0,226.203L0,78.608C0,37.878 33.067,4.811 73.797,4.811L221.392,4.811C262.122,4.811 295.189,37.878 295.189,78.608Z"/>
        </g>
        <path d="M51.621,244.824C72.216,173.18 108.917,107.428 150,43.278C195.96,105.983 229.894,169.979 251.543,235.294C200.691,238.419 158.234,224.721 122.084,198.386C117.824,172.722 122.807,153.556 150,150C173.232,155.372 182.115,170.635 177.873,194.945C137.968,223.265 97.397,248.012 51.621,244.824Z" style="fill:none;stroke:white;stroke-width:18.75px;"/>
    </g>
</svg>
