<?xml version="1.0" encoding="UTF-8" standalone="no"?>
<!DOCTYPE svg PUBLIC "-//W3C//DTD SVG 1.1//EN" "http://www.w3.org/Graphics/SVG/1.1/DTD/svg11.dtd">
<svg width="100%" height="100%" viewBox="0 0 3000 3000" version="1.1" xmlns="http://www.w3.org/2000/svg" xmlns:xlink="http://www.w3.org/1999/xlink" xml:space="preserve" xmlns:serif="http://www.serif.com/" style="fill-rule:evenodd;clip-rule:evenodd;stroke-linejoin:round;stroke-miterlimit:2;">
    <rect x="813.457" y="-223.576" width="3300.64" height="2240.33" style="fill:url(#_Linear1);"/>
    <g transform="matrix(0.923221,-0.527894,0.49638,0.868106,-2068.9,1825.69)">
        <ellipse cx="2294.67" cy="2595.46" rx="2294.67" ry="1352.82" style="fill:url(#_Linear2);"/>
    </g>
    <g transform="matrix(-0.371013,0.928628,-0.928628,-0.371013,1195.83,2088.92)">
        <path d="M-819.829,0C-819.829,0 601.848,816.493 601.848,1166.42C601.848,1810.18 -35.184,2332.84 -819.829,2332.84C-1604.47,2332.84 -2241.51,1810.18 -2241.51,1166.42C-2241.51,816.493 -819.829,0 -819.829,0Z" style="fill:url(#_Linear3);"/>
    </g>
    <defs>
        <linearGradient id="_Linear1" x1="0" y1="0" x2="1" y2="0" gradientUnits="userSpaceOnUse" gradientTransform="matrix(3300.64,0,0,2240.33,813.457,896.589)"><stop offset="0" style="stop-color:white;stop-opacity:1"/><stop offset="1" style="stop-color:black;stop-opacity:1"/></linearGradient>
        <linearGradient id="_Linear2" x1="0" y1="0" x2="1" y2="0" gradientUnits="userSpaceOnUse" gradientTransform="matrix(4589.34,0,0,2705.64,0,2595.46)"><stop offset="0" style="stop-color:black;stop-opacity:1"/><stop offset="1" style="stop-color:white;stop-opacity:1"/></linearGradient>
        <linearGradient id="_Linear3" x1="0" y1="0" x2="1" y2="0" gradientUnits="userSpaceOnUse" gradientTransform="matrix(2843.35,0,0,2332.84,-2241.51,1166.42)"><stop offset="0" style="stop-color:white;stop-opacity:1"/><stop offset="1" style="stop-color:black;stop-opacity:1"/></linearGradient>
    </defs>
</svg>
