<?xml version="1.0" encoding="UTF-8" standalone="no"?>
<!DOCTYPE svg PUBLIC "-//W3C//DTD SVG 1.1//EN" "http://www.w3.org/Graphics/SVG/1.1/DTD/svg11.dtd">
<svg width="100%" height="100%" viewBox="0 0 139 139" version="1.1" xmlns="http://www.w3.org/2000/svg" xmlns:xlink="http://www.w3.org/1999/xlink" xml:space="preserve" xmlns:serif="http://www.serif.com/" style="fill-rule:evenodd;clip-rule:evenodd;stroke-linejoin:round;stroke-miterlimit:2;">
    <g transform="matrix(1.38889,0,0,1.38889,0,0)">
        <g transform="matrix(0.333333,0,0,0.333333,0,0)">
            <g transform="matrix(6.12323e-17,-1,1,6.12323e-17,-2.40532,297.595)">
                <path d="M295.189,78.608L295.189,226.203C295.189,266.933 262.122,300 221.392,300L73.797,300C33.067,300 0,266.933 0,226.203L0,78.608C0,37.878 33.067,4.811 73.797,4.811L221.392,4.811C262.122,4.811 295.189,37.878 295.189,78.608Z"/>
                <g transform="matrix(2.21338e-16,3.61472,-3.61472,2.21338e-16,323.433,-50.0645)">
                    <path d="M56.013,11.727L62.644,32.135L75.422,25.828L73.373,39.93L94.831,39.93L77.471,52.543L87.417,62.747L73.373,65.156L80.004,85.564L62.644,72.951L56.013,85.564L49.382,72.951L32.021,85.564L38.652,65.156L24.608,62.747L34.554,52.543L17.194,39.93L38.652,39.93L36.603,25.828L49.382,32.135L56.013,11.727Z" style="fill:white;fill-opacity:0.07;"/>
                </g>
            </g>
            <g transform="matrix(3,0,0,3,-47.9523,-18.7677)">
                <ellipse cx="54.326" cy="49.534" rx="21.039" ry="26.739" style="fill:rgb(84,84,84);"/>
            </g>
            <g transform="matrix(2.8344,0,0,2.72144,-38.9558,2.4791)">
                <ellipse cx="54.326" cy="49.534" rx="21.039" ry="26.739" style="fill:rgb(99,99,99);"/>
            </g>
            <g transform="matrix(3,0,0,3,-22.0497,-11.3342)">
                <circle cx="74.937" cy="59.22" r="21.835" style="fill:rgb(56,56,56);"/>
            </g>
            <g transform="matrix(2.70694,0.860611,-0.807788,2.5408,38.9998,-15.461)">
                <path d="M89.362,62.925C89.362,71.552 82.788,78.557 74.69,78.557L31.492,78.557C23.394,78.557 16.819,71.552 16.819,62.925C16.819,54.297 23.394,47.293 31.492,47.293L74.69,47.293C82.788,47.293 89.362,54.297 89.362,62.925Z" style="fill:rgb(77,77,77);"/>
            </g>
            <g transform="matrix(2.34147,0.744416,-0.172179,0.541567,23.7806,103.257)">
                <path d="M89.362,62.925C89.362,71.552 87.742,78.557 85.747,78.557L20.435,78.557C18.44,78.557 16.819,71.552 16.819,62.925C16.819,54.297 18.44,47.293 20.435,47.293L85.747,47.293C87.742,47.293 89.362,54.297 89.362,62.925Z" style="fill:rgb(204,204,204);"/>
            </g>
            <g transform="matrix(3,0,0,3,-22.7888,-13.147)">
                <ellipse cx="60.172" cy="44.305" rx="1.159" ry="0.958" style="fill:white;"/>
            </g>
            <g transform="matrix(3,0,0,3,-5.85706,-20.7801)">
                <ellipse cx="60.172" cy="44.305" rx="1.159" ry="0.958" style="fill:white;"/>
            </g>
            <g transform="matrix(3,0,0,3,-9.33535,14.3828)">
                <ellipse cx="60.172" cy="44.305" rx="1.159" ry="0.958" style="fill:white;"/>
            </g>
            <g transform="matrix(3,0,0,3,31.7449,-23.6531)">
                <ellipse cx="60.172" cy="44.305" rx="1.159" ry="0.958" style="fill:white;"/>
            </g>
            <g transform="matrix(3,0,0,3,24.7883,26.4524)">
                <ellipse cx="60.172" cy="44.305" rx="1.159" ry="0.958" style="fill:white;"/>
            </g>
            <g transform="matrix(3,0,0,3,65.9393,-1.17723)">
                <ellipse cx="60.172" cy="44.305" rx="1.159" ry="0.958" style="fill:white;"/>
            </g>
            <g transform="matrix(3,0,0,3,62.461,63.5732)">
                <ellipse cx="60.172" cy="44.305" rx="1.159" ry="0.958" style="fill:white;"/>
            </g>
            <g transform="matrix(3,0,0,3,51.7282,46.8832)">
                <ellipse cx="60.172" cy="44.305" rx="1.159" ry="0.958" style="fill:white;"/>
            </g>
            <g transform="matrix(3,0,0,3,9.687,2.87721)">
                <ellipse cx="60.172" cy="44.305" rx="1.159" ry="0.958" style="fill:white;"/>
            </g>
            <g transform="matrix(3,0,0,3,40.4304,-8.85567)">
                <ellipse cx="60.172" cy="44.305" rx="1.159" ry="0.958" style="fill:white;"/>
            </g>
            <g transform="matrix(3,0,0,3,59.5892,20.4379)">
                <ellipse cx="60.172" cy="44.305" rx="1.159" ry="0.958" style="fill:white;"/>
            </g>
            <g transform="matrix(3,0,0,3,39.6447,11.8915)">
                <ellipse cx="60.172" cy="44.305" rx="1.159" ry="0.958" style="fill:white;"/>
            </g>
            <g transform="matrix(3,0,0,3,15.572,-11.7286)">
                <ellipse cx="60.172" cy="44.305" rx="1.159" ry="0.958" style="fill:white;"/>
            </g>
            <g transform="matrix(3,0,0,3,-24.5939,7.66052)">
                <ellipse cx="60.172" cy="44.305" rx="1.159" ry="0.958" style="fill:white;"/>
            </g>
        </g>
    </g>
</svg>
