<?xml version="1.0" encoding="UTF-8" standalone="no"?>
<!DOCTYPE svg PUBLIC "-//W3C//DTD SVG 1.1//EN" "http://www.w3.org/Graphics/SVG/1.1/DTD/svg11.dtd">
<svg width="100%" height="100%" viewBox="0 0 100 100" version="1.1" xmlns="http://www.w3.org/2000/svg" xmlns:xlink="http://www.w3.org/1999/xlink" xml:space="preserve" xmlns:serif="http://www.serif.com/" style="fill-rule:evenodd;clip-rule:evenodd;stroke-linecap:round;stroke-linejoin:round;stroke-miterlimit:1.5;">
    <g transform="matrix(0.333333,0,0,0.333333,0,0)">
        <g transform="matrix(6.12323e-17,-1,1,6.12323e-17,-2.40532,297.595)">
            <path d="M295.189,78.608L295.189,226.203C295.189,266.933 262.122,300 221.392,300L73.797,300C33.067,300 0,266.933 0,226.203L0,78.608C0,37.878 33.067,4.811 73.797,4.811L221.392,4.811C262.122,4.811 295.189,37.878 295.189,78.608Z"/>
        </g>
        <g transform="matrix(0.965252,0.261321,-0.261321,0.965252,36.5514,-10.1902)">
            <path d="M129.996,78.754L129.996,205.04C129.996,216.389 120.782,225.603 109.433,225.603L68.308,225.603C56.959,225.603 47.745,216.389 47.745,205.04L47.745,78.754C47.745,67.405 56.959,58.191 68.308,58.191L109.433,58.191C120.782,58.191 129.996,67.405 129.996,78.754Z" style="fill:white;stroke:white;stroke-opacity:0;stroke-width:18.75px;"/>
        </g>
        <g transform="matrix(0.965926,-0.258819,0.258819,0.965926,92.1931,35.9303)">
            <path d="M129.996,78.754L129.996,205.04C129.996,216.389 120.782,225.603 109.433,225.603L68.308,225.603C56.959,225.603 47.745,216.389 47.745,205.04L47.745,78.754C47.745,67.405 56.959,58.191 68.308,58.191L109.433,58.191C120.782,58.191 129.996,67.405 129.996,78.754Z" style="fill:white;stroke:white;stroke-opacity:0;stroke-width:18.75px;"/>
        </g>
        <g transform="matrix(1,0,0,1,-4.12349,10.9029)">
            <path d="M256.379,107.592L256.379,170.602C256.379,187.99 242.262,202.106 224.874,202.106L83.373,202.106C65.985,202.106 51.868,187.99 51.868,170.602L51.868,107.592C51.868,90.205 65.985,76.088 83.373,76.088L224.874,76.088C242.262,76.088 256.379,90.205 256.379,107.592Z" style="fill:white;stroke:white;stroke-opacity:0;stroke-width:18.75px;"/>
        </g>
        <path d="M100.015,141.654C100.015,133.337 106.767,126.584 115.084,126.584C123.401,126.584 130.154,133.337 130.154,141.654" style="stroke:white;stroke-opacity:0;stroke-width:18.75px;"/>
        <g transform="matrix(6.12323e-17,-1,1,6.12323e-17,-26.5695,256.738)">
            <path d="M100.015,141.654C100.015,133.337 106.767,126.584 115.084,126.584C123.401,126.584 130.154,133.337 130.154,141.654" style="stroke:white;stroke-opacity:0;stroke-width:18.75px;"/>
        </g>
        <g transform="matrix(-0.707107,0.707107,-0.707107,-0.707107,363.526,160.441)">
            <path d="M100.015,141.654C100.015,133.337 106.767,126.584 115.084,126.584C123.401,126.584 130.154,133.337 130.154,141.654" style="stroke:white;stroke-opacity:0;stroke-width:18.75px;"/>
        </g>
        <g transform="matrix(0.707107,0.707107,-0.707107,0.707107,200.772,-39.8874)">
            <path d="M100.015,141.654C100.015,133.337 106.767,126.584 115.084,126.584C123.401,126.584 130.154,133.337 130.154,141.654" style="stroke:white;stroke-opacity:0;stroke-width:18.75px;"/>
        </g>
    </g>
</svg>
