<?xml version="1.0" encoding="UTF-8" standalone="no"?>
<!DOCTYPE svg PUBLIC "-//W3C//DTD SVG 1.1//EN" "http://www.w3.org/Graphics/SVG/1.1/DTD/svg11.dtd">
<svg width="100%" height="100%" viewBox="0 0 100 100" version="1.1" xmlns="http://www.w3.org/2000/svg" xmlns:xlink="http://www.w3.org/1999/xlink" xml:space="preserve" xmlns:serif="http://www.serif.com/" style="fill-rule:evenodd;clip-rule:evenodd;stroke-linecap:round;stroke-linejoin:round;stroke-miterlimit:1.5;">
    <g transform="matrix(0.333333,0,0,0.333333,0,0)">
        <g transform="matrix(6.12323e-17,-1,1,6.12323e-17,-2.40532,297.595)">
            <path d="M295.189,78.608L295.189,226.203C295.189,266.933 262.122,300 221.392,300L73.797,300C33.067,300 0,266.933 0,226.203L0,78.608C0,37.878 33.067,4.811 73.797,4.811L221.392,4.811C262.122,4.811 295.189,37.878 295.189,78.608Z"/>
        </g>
        <g transform="matrix(1.27217,0,0,1.27217,-32.4209,-21.7733)">
            <path d="M143.394,37.268L175.574,97.782L227.864,135.024L175.574,172.266L143.394,232.781L111.213,172.266L58.924,135.024L111.213,97.782L143.394,37.268Z" style="fill:url(#_Linear1);stroke:white;stroke-opacity:0;stroke-width:2.46px;"/>
        </g>
    </g>
    <defs>
        <linearGradient id="_Linear1" x1="0" y1="0" x2="1" y2="0" gradientUnits="userSpaceOnUse" gradientTransform="matrix(168.94,0,0,195.513,58.9236,135.024)"><stop offset="0" style="stop-color:rgb(135,135,135);stop-opacity:1"/><stop offset="0.26" style="stop-color:rgb(148,148,148);stop-opacity:1"/><stop offset="0.53" style="stop-color:rgb(186,186,186);stop-opacity:1"/><stop offset="0.75" style="stop-color:rgb(119,119,119);stop-opacity:1"/><stop offset="1" style="stop-color:rgb(99,99,99);stop-opacity:1"/></linearGradient>
    </defs>
</svg>
