<?xml version="1.0" encoding="UTF-8" standalone="no"?>
<!DOCTYPE svg PUBLIC "-//W3C//DTD SVG 1.1//EN" "http://www.w3.org/Graphics/SVG/1.1/DTD/svg11.dtd">
<svg width="100%" height="100%" viewBox="0 0 100 100" version="1.1" xmlns="http://www.w3.org/2000/svg" xmlns:xlink="http://www.w3.org/1999/xlink" xml:space="preserve" xmlns:serif="http://www.serif.com/" style="fill-rule:evenodd;clip-rule:evenodd;stroke-linecap:round;stroke-linejoin:round;stroke-miterlimit:1.5;">
    <g transform="matrix(0.333333,0,0,0.333333,0,0)">
        <g transform="matrix(6.12323e-17,-1,1,6.12323e-17,-2.40532,297.595)">
            <path d="M295.189,78.608L295.189,226.203C295.189,266.933 262.122,300 221.392,300L73.797,300C33.067,300 0,266.933 0,226.203L0,78.608C0,37.878 33.067,4.811 73.797,4.811L221.392,4.811C262.122,4.811 295.189,37.878 295.189,78.608Z"/>
        </g>
        <g transform="matrix(0.867531,0,0,1,19.5264,33.8699)">
            <path d="M279.288,106.047C279.288,147.306 221.534,180.803 150.396,180.803C139.12,180.803 127.892,179.945 117,178.25L60.172,218.181L76.436,167.271C42.007,153.28 21.505,130.429 21.505,106.047C21.505,64.788 79.259,31.291 150.396,31.291C221.534,31.291 279.288,64.788 279.288,106.047Z" style="fill:white;stroke:rgb(139,123,123);stroke-opacity:0;stroke-width:11.13px;"/>
        </g>
    </g>
</svg>
