<?xml version="1.0" encoding="UTF-8" standalone="no"?>
<!DOCTYPE svg PUBLIC "-//W3C//DTD SVG 1.1//EN" "http://www.w3.org/Graphics/SVG/1.1/DTD/svg11.dtd">
<svg width="100%" height="100%" viewBox="0 0 100 100" version="1.1" xmlns="http://www.w3.org/2000/svg" xmlns:xlink="http://www.w3.org/1999/xlink" xml:space="preserve" xmlns:serif="http://www.serif.com/" style="fill-rule:evenodd;clip-rule:evenodd;stroke-linejoin:round;stroke-miterlimit:2;">
    <g transform="matrix(0.333333,0,0,0.333333,0,0)">
        <g transform="matrix(6.12323e-17,-1,1,6.12323e-17,-2.40532,297.595)">
            <path d="M295.189,78.608L295.189,226.203C295.189,266.933 262.122,300 221.392,300L73.797,300C33.067,300 0,266.933 0,226.203L0,78.608C0,37.878 33.067,4.811 73.797,4.811L221.392,4.811C262.122,4.811 295.189,37.878 295.189,78.608Z"/>
        </g>
        <g transform="matrix(1,0,0,1,1.11684,25.883)">
            <g transform="matrix(83.3333,0,0,83.3333,276.06,196.214)">
            </g>
            <text x="21.706px" y="196.214px" style="font-family:'ArialRoundedMTBold', 'Arial Rounded MT Bold', sans-serif;font-size:83.333px;fill:white;">DUMB</text>
        </g>
        <g transform="matrix(1,0,0,1,-2.13605,-21.4272)">
            <path d="M62.091,111.014L88.285,161.428L35.898,161.428L62.091,111.014Z" style="fill:white;"/>
            <path d="M62.013,126.98C60.158,130.551 55.752,131.944 52.181,130.088C48.61,128.233 47.217,123.827 49.073,120.256L55.621,107.652C56.876,105.238 59.37,103.723 62.091,103.723C64.813,103.723 67.307,105.238 68.562,107.652L75.11,120.256C76.966,123.827 75.573,128.233 72.002,130.088C68.431,131.944 64.025,130.551 62.169,126.98L62.091,126.83L62.013,126.98ZM75.266,152.186C73.411,148.615 74.804,144.21 78.375,142.354C81.946,140.499 86.352,141.892 88.207,145.463L94.755,158.066C95.93,160.327 95.84,163.036 94.517,165.213C93.195,167.39 90.832,168.72 88.285,168.72L75.188,168.72C71.164,168.72 67.897,165.452 67.897,161.428C67.897,157.404 71.164,154.136 75.188,154.136L76.279,154.136L75.266,152.186ZM48.995,154.136C53.019,154.136 56.286,157.404 56.286,161.428C56.286,165.452 53.019,168.72 48.995,168.72L35.898,168.72C33.351,168.72 30.988,167.39 29.666,165.213C28.343,163.036 28.253,160.327 29.427,158.066L35.976,145.463C37.831,141.892 42.237,140.499 45.808,142.354C49.379,144.21 50.772,148.615 48.917,152.186L47.904,154.136L48.995,154.136Z" style="fill:rgb(255,33,33);fill-opacity:0;"/>
        </g>
        <g transform="matrix(-0.864579,1.0588e-16,-5.51979e-17,-0.450725,113.638,162.347)">
            <path d="M62.091,111.014L88.285,161.428L35.898,161.428L62.091,111.014Z" style="fill:white;"/>
            <path d="M73.474,145.585C73.793,142.571 74.563,139.698 75.783,137.366C79.08,131.063 84.424,131.08 87.71,137.405L94.259,150.008C96.665,154.639 97.381,161.593 96.074,167.632C94.767,173.67 91.694,177.606 88.285,177.606L75.188,177.606C70.533,177.606 66.754,170.357 66.754,161.428C66.754,153.626 69.64,147.106 73.474,145.585ZM50.709,145.585C54.543,147.106 57.428,153.626 57.428,161.428C57.428,170.357 53.649,177.606 48.995,177.606L35.898,177.606C32.489,177.606 29.416,173.67 28.109,167.632C26.802,161.593 27.518,154.639 29.924,150.008L36.473,137.405C39.759,131.08 45.103,131.063 48.4,137.366C49.62,139.698 50.389,142.571 50.709,145.585ZM61.517,135.038C58.231,141.362 52.886,141.379 49.59,135.076C46.293,128.773 46.284,118.522 49.569,112.198L56.118,99.594C57.7,96.549 59.85,94.837 62.091,94.837C64.333,94.837 66.483,96.549 68.065,99.594L74.613,112.198C77.899,118.522 77.89,128.773 74.593,135.076C71.296,141.379 65.952,141.362 62.666,135.038L62.091,133.932L61.517,135.038Z" style="fill:rgb(255,33,33);fill-opacity:0;"/>
        </g>
        <g transform="matrix(1,0,0,1,-25.5196,-4.59923)">
            <path d="M136.849,89.587L141.757,104.69L151.213,100.023L149.697,110.459L165.577,110.459L152.73,119.794L160.091,127.345L149.697,129.128L154.604,144.231L141.757,134.897L136.849,144.231L131.942,134.897L119.095,144.231L124.002,129.128L113.608,127.345L120.969,119.794L108.121,110.459L124.002,110.459L122.485,100.023L131.942,104.69L136.849,89.587Z" style="fill:white;"/>
            <path d="M143.784,87.334L146.087,94.422L147.986,93.484C150.415,92.286 153.308,92.532 155.499,94.124C157.691,95.716 158.819,98.391 158.429,101.072L158.125,103.168L165.577,103.168C168.736,103.168 171.536,105.202 172.512,108.206C173.488,111.21 172.419,114.502 169.863,116.358L163.834,120.739L165.312,122.255C167.203,124.195 167.863,127.023 167.026,129.598C166.189,132.174 163.993,134.074 161.324,134.532L159.236,134.89L161.539,141.978C162.515,144.982 161.446,148.273 158.89,150.13C156.335,151.987 152.874,151.987 150.318,150.13L144.289,145.75L143.303,147.624C142.043,150.022 139.558,151.523 136.849,151.523C134.141,151.523 131.656,150.022 130.395,147.624L129.41,145.75L123.38,150.13C120.825,151.987 117.364,151.987 114.809,150.13C112.253,148.273 111.184,144.982 112.16,141.978L114.463,134.89L112.375,134.532C109.706,134.074 107.51,132.174 106.673,129.598C105.836,127.023 106.496,124.195 108.386,122.255L109.865,120.739L103.835,116.358C101.28,114.502 100.21,111.21 101.187,108.206C102.163,105.202 104.962,103.168 108.121,103.168L115.574,103.168L115.27,101.072C114.88,98.391 116.008,95.716 118.199,94.124C120.391,92.532 123.284,92.286 125.712,93.484L127.612,94.422L129.915,87.334C130.891,84.33 133.69,82.295 136.849,82.295C140.008,82.295 142.808,84.33 143.784,87.334ZM127.615,116.793C127.951,117.538 128.163,118.342 128.234,119.175C128.341,120.428 128.121,121.673 127.615,122.794C128.683,123.404 129.593,124.281 130.243,125.358C130.675,126.073 130.976,126.849 131.142,127.649C131.955,127.559 132.785,127.606 133.599,127.796C134.824,128.082 135.939,128.676 136.849,129.504C137.76,128.676 138.875,128.082 140.1,127.796C140.914,127.606 141.744,127.559 142.557,127.649C142.723,126.849 143.024,126.073 143.456,125.358C144.106,124.281 145.015,123.404 146.084,122.794C145.578,121.673 145.358,120.428 145.464,119.175C145.535,118.342 145.748,117.538 146.084,116.793C145.374,116.388 144.73,115.862 144.183,115.23C143.36,114.279 142.806,113.143 142.557,111.938C141.334,112.073 140.082,111.898 138.923,111.409C138.153,111.084 137.454,110.634 136.849,110.084C136.245,110.634 135.545,111.084 134.775,111.409C133.616,111.898 132.365,112.073 131.142,111.938C130.892,113.143 130.339,114.279 129.516,115.23C128.969,115.862 128.325,116.388 127.615,116.793Z" style="fill:rgb(255,33,33);fill-opacity:0;"/>
        </g>
        <g transform="matrix(0.62027,0.784389,-0.784389,0.62027,116.025,-158.609)">
            <path d="M257.12,89.728L258.075,94.375C259.923,94.658 261.734,95.143 263.475,95.822L266.626,92.275C268.389,93.076 270.07,94.047 271.646,95.173L270.149,99.676C271.608,100.844 272.933,102.17 274.102,103.629L278.605,102.132C279.731,103.707 280.701,105.389 281.503,107.152L277.955,110.302C278.634,112.044 279.119,113.855 279.402,115.703L284.05,116.657C284.237,118.585 284.237,120.526 284.05,122.454L279.402,123.409C279.119,125.256 278.634,127.067 277.955,128.809L281.503,131.96C280.701,133.723 279.731,135.404 278.605,136.98L274.102,135.483C272.933,136.941 271.608,138.267 270.149,139.436L271.646,143.938C270.07,145.064 268.389,146.035 266.626,146.837L263.475,143.289C261.734,143.968 259.923,144.453 258.075,144.736L257.12,149.384C255.193,149.571 253.251,149.571 251.324,149.384L250.369,144.736C248.521,144.453 246.71,143.968 244.969,143.289L241.818,146.837C240.055,146.035 238.374,145.064 236.798,143.938L238.295,139.436C236.836,138.267 235.511,136.941 234.342,135.483L229.839,136.98C228.713,135.404 227.743,133.723 226.941,131.96L230.489,128.809C229.81,127.067 229.325,125.256 229.042,123.409L224.394,122.454C224.207,120.526 224.207,118.585 224.394,116.657L229.042,115.703C229.325,113.855 229.81,112.044 230.489,110.302L226.941,107.152C227.743,105.389 228.713,103.707 229.839,102.132L234.342,103.629C235.511,102.17 236.836,100.844 238.295,99.676L236.798,95.173C238.374,94.047 240.055,93.076 241.818,92.275L244.969,95.822C246.71,95.143 248.521,94.658 250.369,94.375L251.324,89.728C253.251,89.54 255.193,89.54 257.12,89.728ZM254.222,113.562C257.53,113.562 260.216,116.248 260.216,119.556C260.216,122.864 257.53,125.549 254.222,125.549C250.914,125.549 248.228,122.864 248.228,119.556C248.228,116.248 250.914,113.562 254.222,113.562Z" style="fill:white;"/>
            <path d="M229.513,144.265C227.323,144.166 225.237,143.08 223.907,141.219C222.507,139.26 221.3,137.17 220.303,134.978C219.356,132.896 219.459,130.546 220.469,128.6C218.621,127.419 217.358,125.436 217.136,123.159C216.904,120.762 216.904,118.349 217.136,115.952C217.358,113.676 218.621,111.692 220.469,110.512C219.459,108.565 219.356,106.216 220.303,104.134C221.3,101.942 222.507,99.851 223.907,97.892C225.237,96.031 227.323,94.945 229.513,94.847C229.612,92.656 230.698,90.57 232.558,89.24C234.518,87.84 236.608,86.634 238.8,85.637C240.882,84.69 243.231,84.793 245.178,85.803C246.359,83.955 248.342,82.691 250.618,82.47C253.015,82.237 255.429,82.237 257.826,82.47C260.102,82.691 262.085,83.955 263.266,85.803C265.212,84.793 267.562,84.69 269.644,85.637C271.836,86.634 273.926,87.84 275.886,89.24C277.746,90.57 278.832,92.656 278.931,94.847C281.121,94.945 283.207,96.031 284.537,97.892C285.937,99.851 287.144,101.942 288.141,104.134C289.087,106.216 288.985,108.565 287.975,110.512C289.823,111.692 291.086,113.676 291.307,115.952C291.54,118.349 291.54,120.762 291.307,123.159C291.086,125.436 289.823,127.419 287.975,128.6C288.985,130.546 289.087,132.896 288.141,134.978C287.144,137.17 285.937,139.26 284.537,141.219C283.207,143.08 281.121,144.166 278.931,144.265C278.832,146.455 277.746,148.541 275.886,149.871C273.926,151.271 271.836,152.478 269.644,153.474C267.562,154.421 265.212,154.318 263.266,153.309C262.085,155.156 260.102,156.42 257.826,156.641C255.429,156.874 253.015,156.874 250.618,156.641C248.342,156.42 246.359,155.156 245.178,153.309C243.231,154.318 240.882,154.421 238.8,153.474C236.608,152.478 234.518,151.271 232.558,149.871C230.698,148.541 229.612,146.455 229.513,144.265ZM244.727,136.001C245.695,135.969 246.677,136.129 247.617,136.495C248.86,136.98 250.153,137.326 251.472,137.528C252.469,137.681 253.4,138.033 254.222,138.545C255.044,138.033 255.975,137.681 256.972,137.528C258.291,137.326 259.583,136.98 260.826,136.495C261.766,136.129 262.749,135.969 263.717,136.001C264.172,135.147 264.802,134.376 265.59,133.745C266.631,132.911 267.577,131.965 268.411,130.924C269.042,130.136 269.813,129.506 270.667,129.05C270.635,128.083 270.795,127.1 271.162,126.16C271.646,124.917 271.993,123.625 272.194,122.306C272.347,121.308 272.7,120.377 273.211,119.556C272.7,118.734 272.347,117.803 272.194,116.805C271.993,115.487 271.646,114.194 271.162,112.951C270.795,112.011 270.635,111.028 270.667,110.061C269.813,109.605 269.042,108.975 268.411,108.188C267.577,107.147 266.631,106.2 265.59,105.366C264.802,104.735 264.172,103.964 263.717,103.11C262.749,103.143 261.766,102.983 260.826,102.616C259.583,102.131 258.291,101.785 256.972,101.583C255.975,101.431 255.044,101.078 254.222,100.566C253.4,101.078 252.469,101.431 251.472,101.583C250.153,101.785 248.86,102.131 247.617,102.616C246.677,102.983 245.695,103.143 244.727,103.11C244.271,103.964 243.641,104.735 242.854,105.366C241.813,106.2 240.867,107.147 240.032,108.188C239.402,108.975 238.631,109.605 237.777,110.061C237.809,111.028 237.649,112.011 237.282,112.951C236.798,114.194 236.451,115.487 236.25,116.805C236.097,117.803 235.744,118.734 235.233,119.556C235.744,120.377 236.097,121.308 236.25,122.306C236.451,123.625 236.798,124.917 237.282,126.16C237.649,127.1 237.809,128.083 237.777,129.05C238.631,129.506 239.402,130.136 240.032,130.924C240.867,131.965 241.813,132.911 242.854,133.745C243.641,134.376 244.271,135.147 244.727,136.001ZM252.75,106.419C253.225,106.322 253.718,106.27 254.222,106.27C254.726,106.27 255.219,106.322 255.694,106.419L256.893,106.54L259.396,107.318L261.655,108.545L263.615,110.162L265.233,112.123L266.459,114.381L267.237,116.885L267.507,119.556C267.507,123.58 264.24,126.847 260.216,126.847C257.733,126.847 255.539,125.604 254.222,123.707C252.905,125.604 250.711,126.847 248.228,126.847C244.204,126.847 240.937,123.58 240.937,119.556L241.207,116.885L241.985,114.381L243.211,112.123L244.829,110.162L246.789,108.545L249.048,107.318L251.551,106.54L252.75,106.419Z" style="fill:rgb(255,33,33);fill-opacity:0;"/>
        </g>
        <g transform="matrix(1,0,0,0.839894,-24.2152,18.309)">
            <path d="M297.595,95.796L297.595,128.525C297.595,137.557 291.436,144.89 283.85,144.89L253.561,144.89C245.975,144.89 239.817,137.557 239.817,128.525L239.817,95.796C239.817,86.764 245.975,79.432 253.561,79.432L283.85,79.432C291.436,79.432 297.595,86.764 297.595,95.796Z" style="fill:white;"/>
            <path d="M276.278,88.113C272.254,88.113 268.986,84.223 268.986,79.432C268.986,74.64 272.254,70.75 276.278,70.75L283.85,70.75C295.46,70.75 304.886,81.973 304.886,95.796L304.886,128.525C304.886,142.348 295.46,153.571 283.85,153.571L276.278,153.571C272.254,153.571 268.986,149.681 268.986,144.89C268.986,140.098 272.254,136.208 276.278,136.208L283.85,136.208C287.412,136.208 290.303,132.765 290.303,128.525L290.303,95.796C290.303,91.556 287.412,88.113 283.85,88.113L276.278,88.113ZM261.133,136.208C265.158,136.208 268.425,140.098 268.425,144.89C268.425,149.681 265.158,153.571 261.133,153.571L253.561,153.571C241.951,153.571 232.525,142.348 232.525,128.525L232.525,95.796C232.525,81.973 241.951,70.75 253.561,70.75L261.133,70.75C265.158,70.75 268.425,74.64 268.425,79.432C268.425,84.223 265.158,88.113 261.133,88.113L253.561,88.113C250,88.113 247.108,91.556 247.108,95.796L247.108,128.525C247.108,132.765 250,136.208 253.561,136.208L261.133,136.208Z" style="fill:rgb(255,33,33);fill-opacity:0;"/>
        </g>
        <g transform="matrix(1,0,0,1,-1.71366,-0.182695)">
            <path d="M246.204,75.095C255.505,75.095 263.056,79.626 263.056,85.206C263.056,90.786 255.505,95.316 246.204,95.316C236.903,95.316 229.352,90.786 229.352,85.206C229.352,79.626 236.903,75.095 246.204,75.095ZM246.204,80.151C250.855,80.151 254.63,82.416 254.63,85.206C254.63,87.996 250.855,90.261 246.204,90.261C241.554,90.261 237.778,87.996 237.778,85.206C237.778,82.416 241.554,80.151 246.204,80.151Z"/>
            <path d="M261.579,82.647L261.922,85.206C261.922,86.076 261.769,86.91 261.489,87.684C262.202,88.315 262.802,89.097 263.236,90.011C264.962,93.647 263.412,98 259.776,99.726C256.041,101.499 251.332,102.608 246.204,102.608C241.076,102.608 236.367,101.499 232.632,99.726C228.997,98 227.446,93.647 229.172,90.011C229.606,89.097 230.206,88.315 230.919,87.684C230.639,86.91 230.486,86.076 230.486,85.206L230.829,82.647C230.156,82.03 229.588,81.276 229.172,80.401C227.446,76.765 228.997,72.412 232.632,70.686C236.367,68.913 241.076,67.804 246.204,67.804C251.332,67.804 256.041,68.913 259.776,70.686C263.412,72.412 264.962,76.765 263.236,80.401C262.821,81.276 262.253,82.03 261.579,82.647ZM244.531,87.96C245.078,88.003 245.637,88.025 246.204,88.025C246.772,88.025 247.33,88.003 247.877,87.96C247.843,87.875 247.809,87.789 247.778,87.702C247.312,87.58 246.68,87.442 246.204,87.442C245.728,87.442 245.096,87.58 244.631,87.702C244.599,87.789 244.566,87.875 244.531,87.96Z" style="fill:rgb(255,33,33);fill-opacity:0;"/>
        </g>
    </g>
</svg>
