<?xml version="1.0" encoding="UTF-8" standalone="no"?>
<!DOCTYPE svg PUBLIC "-//W3C//DTD SVG 1.1//EN" "http://www.w3.org/Graphics/SVG/1.1/DTD/svg11.dtd">
<svg width="100%" height="100%" viewBox="0 0 100 100" version="1.1" xmlns="http://www.w3.org/2000/svg" xmlns:xlink="http://www.w3.org/1999/xlink" xml:space="preserve" xmlns:serif="http://www.serif.com/" style="fill-rule:evenodd;clip-rule:evenodd;stroke-linecap:round;stroke-linejoin:round;stroke-miterlimit:1.5;">
    <g transform="matrix(0.333333,0,0,0.333333,0,0)">
        <g transform="matrix(6.12323e-17,-1,1,6.12323e-17,-2.40532,297.595)">
            <path d="M295.189,78.608L295.189,226.203C295.189,266.933 262.122,300 221.392,300L73.797,300C33.067,300 0,266.933 0,226.203L0,78.608C0,37.878 33.067,4.811 73.797,4.811L221.392,4.811C262.122,4.811 295.189,37.878 295.189,78.608Z"/>
        </g>
        <g transform="matrix(1,0,0,1,-3.49513,0.257642)">
            <rect x="48.724" y="44.972" width="209.541" height="209.541" style="fill-opacity:0;stroke:white;stroke-width:20.83px;"/>
        </g>
        <g transform="matrix(1.19438,0,0,1.08324,-19.6643,-19.2109)">
            <path d="M104.05,156.208L124.917,233.886L83.183,233.886L104.05,156.208Z" style="fill:white;stroke:white;stroke-opacity:0;stroke-width:18.27px;"/>
        </g>
        <g transform="matrix(1,0,0,1,-3.49513,0.257642)">
            <circle cx="200.645" cy="91.355" r="14.762" style="fill:white;stroke:white;stroke-opacity:0;stroke-width:20.83px;"/>
        </g>
        <g transform="matrix(1.72028,0,0,1.86071,-38.4867,-201.049)">
            <path d="M104.05,156.208L124.917,233.886L83.183,233.886L104.05,156.208Z" style="fill:white;stroke:white;stroke-opacity:0;stroke-width:11.63px;"/>
        </g>
    </g>
</svg>
