<?xml version="1.0" encoding="UTF-8" standalone="no"?>
<!DOCTYPE svg PUBLIC "-//W3C//DTD SVG 1.1//EN" "http://www.w3.org/Graphics/SVG/1.1/DTD/svg11.dtd">
<svg width="100%" height="100%" viewBox="0 0 100 100" version="1.1" xmlns="http://www.w3.org/2000/svg" xmlns:xlink="http://www.w3.org/1999/xlink" xml:space="preserve" xmlns:serif="http://www.serif.com/" style="fill-rule:evenodd;clip-rule:evenodd;stroke-linejoin:round;stroke-miterlimit:2;">
    <g transform="matrix(0.333333,0,0,0.333333,0,0)">
        <g transform="matrix(6.12323e-17,-1,1,6.12323e-17,-2.40532,297.595)">
            <path d="M295.189,78.608L295.189,226.203C295.189,266.933 262.122,300 221.392,300L73.797,300C33.067,300 0,266.933 0,226.203L0,78.608C0,37.878 33.067,4.811 73.797,4.811L221.392,4.811C262.122,4.811 295.189,37.878 295.189,78.608Z" style="fill:white;"/>
        </g>
        <g transform="matrix(1,0,0,1,-8.28159,-4.99779)">
            <path d="M282.952,112.636L282.952,197.36C282.952,220.74 263.97,239.722 240.59,239.722L75.973,239.722C52.593,239.722 33.611,220.74 33.611,197.36L33.611,112.636C33.611,89.255 52.593,70.274 75.973,70.274L240.59,70.274C263.97,70.274 282.952,89.255 282.952,112.636Z"/>
            <path d="M274.992,105.787C274.21,101.84 276.78,98 280.728,97.218C284.675,96.436 288.515,99.006 289.297,102.953C289.918,106.085 290.244,109.323 290.244,112.636L290.244,123.226C290.244,127.251 286.976,130.518 282.952,130.518C278.928,130.518 275.66,127.251 275.66,123.226L275.66,112.636C275.66,110.292 275.431,108.003 274.992,105.787ZM275.66,144.407C275.66,140.383 278.928,137.116 282.952,137.116C286.976,137.116 290.244,140.383 290.244,144.407L290.244,165.588C290.244,169.613 286.976,172.88 282.952,172.88C278.928,172.88 275.66,169.613 275.66,165.588L275.66,144.407ZM275.66,186.769C275.66,182.745 278.928,179.478 282.952,179.478C286.976,179.478 290.244,182.745 290.244,186.769L290.244,197.36C290.244,200.673 289.918,203.91 289.297,207.042C288.515,210.99 284.675,213.56 280.728,212.778C276.78,211.996 274.21,208.156 274.992,204.208C275.431,201.993 275.66,199.703 275.66,197.36L275.66,186.769ZM269.753,216.834C271.993,213.491 276.525,212.594 279.869,214.834C283.213,217.073 284.109,221.606 281.869,224.95C278.247,230.359 273.589,235.017 268.18,238.639C264.836,240.879 260.304,239.983 258.064,236.639C255.824,233.295 256.721,228.763 260.064,226.523C263.892,223.959 267.189,220.662 269.753,216.834ZM247.438,231.762C251.386,230.98 255.226,233.55 256.008,237.497C256.79,241.445 254.22,245.285 250.272,246.067C247.14,246.688 243.903,247.014 240.59,247.014L232.359,247.014C228.335,247.014 225.067,243.746 225.067,239.722C225.067,235.698 228.335,232.43 232.359,232.43L240.59,232.43C242.933,232.43 245.223,232.201 247.438,231.762ZM215.897,232.43C219.922,232.43 223.189,235.698 223.189,239.722C223.189,243.746 219.922,247.014 215.897,247.014L199.436,247.014C195.411,247.014 192.144,243.746 192.144,239.722C192.144,235.698 195.411,232.43 199.436,232.43L215.897,232.43ZM182.974,232.43C186.998,232.43 190.266,235.698 190.266,239.722C190.266,243.746 186.998,247.014 182.974,247.014L166.513,247.014C162.488,247.014 159.221,243.746 159.221,239.722C159.221,235.698 162.488,232.43 166.513,232.43L182.974,232.43ZM150.051,232.43C154.075,232.43 157.342,235.698 157.342,239.722C157.342,243.746 154.075,247.014 150.051,247.014L133.589,247.014C129.565,247.014 126.297,243.746 126.297,239.722C126.297,235.698 129.565,232.43 133.589,232.43L150.051,232.43ZM117.128,232.43C121.152,232.43 124.419,235.698 124.419,239.722C124.419,243.746 121.152,247.014 117.128,247.014L100.666,247.014C96.642,247.014 93.374,243.746 93.374,239.722C93.374,235.698 96.642,232.43 100.666,232.43L117.128,232.43ZM84.204,232.43C88.229,232.43 91.496,235.698 91.496,239.722C91.496,243.746 88.229,247.014 84.204,247.014L75.973,247.014C72.66,247.014 69.423,246.688 66.291,246.067C62.343,245.285 59.773,241.445 60.555,237.497C61.337,233.55 65.177,230.98 69.125,231.762C71.34,232.201 73.63,232.43 75.973,232.43L84.204,232.43ZM56.499,226.523C59.843,228.763 60.739,233.295 58.499,236.639C56.26,239.983 51.727,240.879 48.383,238.639C42.975,235.017 38.317,230.359 34.694,224.95C32.454,221.606 33.351,217.073 36.694,214.834C40.038,212.594 44.571,213.491 46.81,216.834C49.374,220.662 52.671,223.959 56.499,226.523ZM41.571,204.208C42.353,208.156 39.783,211.996 35.836,212.778C31.888,213.56 28.048,210.99 27.266,207.042C26.646,203.91 26.32,200.673 26.32,197.36L26.32,186.769C26.32,182.745 29.587,179.478 33.611,179.478C37.636,179.478 40.903,182.745 40.903,186.769L40.903,197.36C40.903,199.703 41.132,201.993 41.571,204.208ZM40.903,165.588C40.903,169.613 37.636,172.88 33.611,172.88C29.587,172.88 26.32,169.613 26.32,165.588L26.32,144.407C26.32,140.383 29.587,137.115 33.611,137.115C37.636,137.115 40.903,140.383 40.903,144.407L40.903,165.588ZM40.903,123.226C40.903,127.251 37.636,130.518 33.611,130.518C29.587,130.518 26.32,127.251 26.32,123.226L26.32,112.636C26.32,109.323 26.646,106.085 27.266,102.953C28.048,99.006 31.888,96.436 35.836,97.218C39.783,98 42.353,101.84 41.571,105.787C41.132,108.003 40.903,110.292 40.903,112.636L40.903,123.226ZM46.81,93.161C44.571,96.505 40.038,97.401 36.694,95.162C33.351,92.922 32.454,88.389 34.694,85.046C38.317,79.637 42.975,74.979 48.383,71.356C51.727,69.117 56.26,70.013 58.499,73.357C60.739,76.7 59.843,81.233 56.499,83.473C52.671,86.037 49.374,89.333 46.81,93.161ZM69.125,78.234C65.177,79.016 61.337,76.446 60.555,72.498C59.773,68.55 62.343,64.71 66.291,63.928C69.423,63.308 72.66,62.982 75.973,62.982L84.204,62.982C88.229,62.982 91.496,66.249 91.496,70.274C91.496,74.298 88.229,77.565 84.204,77.565L75.973,77.565C73.63,77.565 71.34,77.795 69.125,78.234ZM100.666,77.565C96.642,77.565 93.374,74.298 93.374,70.274C93.374,66.249 96.642,62.982 100.666,62.982L117.128,62.982C121.152,62.982 124.419,66.249 124.419,70.274C124.419,74.298 121.152,77.565 117.128,77.565L100.666,77.565ZM133.589,77.565C129.565,77.565 126.297,74.298 126.297,70.274C126.297,66.249 129.565,62.982 133.589,62.982L150.051,62.982C154.075,62.982 157.342,66.249 157.342,70.274C157.342,74.298 154.075,77.565 150.051,77.565L133.589,77.565ZM166.513,77.565C162.488,77.565 159.221,74.298 159.221,70.274C159.221,66.249 162.488,62.982 166.513,62.982L182.974,62.982C186.999,62.982 190.266,66.249 190.266,70.274C190.266,74.298 186.999,77.565 182.974,77.565L166.513,77.565ZM199.436,77.565C195.411,77.565 192.144,74.298 192.144,70.274C192.144,66.249 195.411,62.982 199.436,62.982L215.897,62.982C219.922,62.982 223.189,66.249 223.189,70.274C223.189,74.298 219.922,77.565 215.897,77.565L199.436,77.565ZM232.359,77.565C228.335,77.565 225.067,74.298 225.067,70.274C225.067,66.249 228.335,62.982 232.359,62.982L240.59,62.982C243.903,62.982 247.14,63.308 250.272,63.928C254.22,64.71 256.79,68.55 256.008,72.498C255.226,76.446 251.386,79.016 247.438,78.234C245.223,77.795 242.933,77.565 240.59,77.565L232.359,77.565ZM260.064,83.473C256.721,81.233 255.824,76.7 258.064,73.357C260.303,70.013 264.836,69.117 268.18,71.356C273.589,74.979 278.247,79.637 281.869,85.046C284.109,88.389 283.213,92.922 279.869,95.162C276.525,97.401 271.993,96.505 269.753,93.161C267.189,89.333 263.892,86.037 260.064,83.473Z" style="fill:rgb(255,33,33);fill-opacity:0;"/>
        </g>
        <g transform="matrix(6.12323e-17,1,-1,6.12323e-17,315.329,-5.53048)">
            <path d="M155.53,116.573L206.886,200.186L104.174,200.186L155.53,116.573Z" style="fill:rgb(166,163,162);"/>
            <path d="M155.53,129.446C153.214,131.122 150.021,131.343 147.435,129.754C144.005,127.648 142.931,123.153 145.038,119.724L149.317,112.756C150.644,110.597 152.996,109.281 155.53,109.281C158.065,109.281 160.417,110.597 161.744,112.756L166.023,119.724C168.13,123.153 167.056,127.648 163.626,129.754C161.04,131.343 157.847,131.122 155.53,129.446ZM195.322,193.542C195.212,190.983 196.455,188.44 198.791,187.005C202.22,184.899 206.714,185.973 208.82,189.402L213.1,196.37C214.482,198.62 214.539,201.442 213.25,203.746C211.961,206.051 209.527,207.478 206.886,207.478L198.327,207.478C194.303,207.478 191.036,204.211 191.036,200.186C191.036,197.233 192.795,194.688 195.322,193.542ZM115.739,193.542C118.266,194.688 120.025,197.233 120.025,200.186C120.025,204.211 116.758,207.478 112.734,207.478L104.174,207.478C101.534,207.478 99.1,206.051 97.811,203.746C96.522,201.442 96.579,198.62 97.961,196.37L102.241,189.402C104.347,185.973 108.841,184.899 112.27,187.005C114.606,188.44 115.849,190.983 115.739,193.542ZM162.156,141.292C160.05,137.863 161.124,133.369 164.553,131.263C167.982,129.157 172.477,130.231 174.583,133.66L183.142,147.596C185.248,151.025 184.174,155.519 180.745,157.625C177.316,159.731 172.822,158.657 170.716,155.228L162.156,141.292ZM179.275,169.164C177.169,165.734 178.243,161.24 181.672,159.134C185.101,157.028 189.595,158.102 191.701,161.531L200.261,175.467C202.367,178.896 201.293,183.39 197.864,185.496C194.435,187.603 189.94,186.528 187.834,183.099L179.275,169.164ZM181.208,192.895C185.233,192.895 188.5,196.162 188.5,200.186C188.5,204.211 185.233,207.478 181.208,207.478L164.09,207.478C160.065,207.478 156.798,204.211 156.798,200.186C156.798,196.162 160.065,192.895 164.09,192.895L181.208,192.895ZM146.971,192.895C150.996,192.895 154.263,196.162 154.263,200.186C154.263,204.211 150.996,207.478 146.971,207.478L129.852,207.478C125.828,207.478 122.561,204.211 122.561,200.186C122.561,196.162 125.828,192.895 129.852,192.895L146.971,192.895ZM123.227,183.099C121.121,186.528 116.626,187.602 113.197,185.496C109.768,183.39 108.694,178.896 110.8,175.467L119.36,161.531C121.466,158.102 125.96,157.028 129.389,159.134C132.818,161.24 133.892,165.734 131.786,169.164L123.227,183.099ZM140.345,155.228C138.239,158.657 133.745,159.731 130.316,157.625C126.887,155.519 125.813,151.025 127.919,147.596L136.478,133.66C138.584,130.231 143.079,129.157 146.508,131.263C149.937,133.369 151.011,137.863 148.905,141.292L140.345,155.228Z" style="fill:rgb(255,33,33);fill-opacity:0;"/>
        </g>
        <g transform="matrix(6.12323e-17,1,-1,6.12323e-17,336.854,-5.53048)">
            <path d="M155.53,116.573L206.886,200.186L104.174,200.186L155.53,116.573Z" style="fill:white;"/>
            <path d="M155.53,129.446C153.214,131.122 150.021,131.343 147.435,129.754C144.005,127.648 142.931,123.153 145.038,119.724L149.317,112.756C150.644,110.597 152.996,109.281 155.53,109.281C158.065,109.281 160.417,110.597 161.744,112.756L166.023,119.724C168.13,123.153 167.056,127.648 163.626,129.754C161.04,131.343 157.847,131.122 155.53,129.446ZM195.322,193.542C195.212,190.983 196.455,188.44 198.791,187.005C202.22,184.899 206.714,185.973 208.82,189.402L213.1,196.37C214.482,198.62 214.539,201.442 213.25,203.746C211.961,206.051 209.527,207.478 206.886,207.478L198.327,207.478C194.303,207.478 191.036,204.211 191.036,200.186C191.036,197.233 192.795,194.688 195.322,193.542ZM115.739,193.542C118.266,194.688 120.025,197.233 120.025,200.186C120.025,204.211 116.758,207.478 112.734,207.478L104.174,207.478C101.534,207.478 99.1,206.051 97.811,203.746C96.522,201.442 96.579,198.62 97.961,196.37L102.241,189.402C104.347,185.973 108.841,184.899 112.27,187.005C114.606,188.44 115.849,190.983 115.739,193.542ZM162.156,141.292C160.05,137.863 161.124,133.369 164.553,131.263C167.982,129.157 172.477,130.231 174.583,133.66L183.142,147.596C185.248,151.025 184.174,155.519 180.745,157.625C177.316,159.731 172.822,158.657 170.716,155.228L162.156,141.292ZM179.275,169.164C177.169,165.734 178.243,161.24 181.672,159.134C185.101,157.028 189.595,158.102 191.701,161.531L200.261,175.467C202.367,178.896 201.293,183.39 197.864,185.496C194.435,187.603 189.94,186.528 187.834,183.099L179.275,169.164ZM181.208,192.895C185.233,192.895 188.5,196.162 188.5,200.186C188.5,204.211 185.233,207.478 181.208,207.478L164.09,207.478C160.065,207.478 156.798,204.211 156.798,200.186C156.798,196.162 160.065,192.895 164.09,192.895L181.208,192.895ZM146.971,192.895C150.996,192.895 154.263,196.162 154.263,200.186C154.263,204.211 150.996,207.478 146.971,207.478L129.852,207.478C125.828,207.478 122.561,204.211 122.561,200.186C122.561,196.162 125.828,192.895 129.852,192.895L146.971,192.895ZM123.227,183.099C121.121,186.528 116.626,187.602 113.197,185.496C109.768,183.39 108.694,178.896 110.8,175.467L119.36,161.531C121.466,158.102 125.96,157.028 129.389,159.134C132.818,161.24 133.892,165.734 131.786,169.164L123.227,183.099ZM140.345,155.228C138.239,158.657 133.745,159.731 130.316,157.625C126.887,155.519 125.813,151.025 127.919,147.596L136.478,133.66C138.584,130.231 143.079,129.157 146.508,131.263C149.937,133.369 151.011,137.863 148.905,141.292L140.345,155.228Z" style="fill:rgb(255,33,33);fill-opacity:0;"/>
        </g>
    </g>
</svg>
