# Blender 4.4.3
# www.blender.org
mtllib key.mtl
o Torus
v 0.625000 0.000000 -1.082532
v 0.608253 0.125000 -1.053526
v 0.562500 0.216506 -0.974279
v 0.500000 0.250000 -0.866026
v 0.437500 0.216506 -0.757772
v 0.391747 0.125000 -0.678525
v 0.375000 0.000000 -0.649519
v 0.391747 -0.125000 -0.678525
v 0.437500 -0.216506 -0.757772
v 0.500000 -0.250000 -0.866026
v 0.562500 -0.216506 -0.974279
v 0.608253 -0.125000 -1.053526
v 1.250000 0.000000 -0.000000
v 1.216506 0.125000 -0.000000
v 1.125000 0.216506 -0.000000
v 1.000000 0.250000 -0.000000
v 0.875000 0.216506 -0.000000
v 0.783494 0.125000 -0.000000
v 0.750000 0.000000 -0.000000
v 0.783494 -0.125000 -0.000000
v 0.875000 -0.216506 -0.000000
v 1.000000 -0.250000 -0.000000
v 1.125000 -0.216506 -0.000000
v 1.216506 -0.125000 -0.000000
v -0.625000 0.000000 -1.082532
v -0.608253 0.125000 -1.053526
v -0.562500 0.216506 -0.974279
v -0.500000 0.250000 -0.866026
v -0.437500 0.216506 -0.757772
v -0.391747 0.125000 -0.678525
v -0.375000 0.000000 -0.649519
v -0.391747 -0.125000 -0.678525
v -0.437500 -0.216506 -0.757772
v -0.500000 -0.250000 -0.866026
v -0.562500 -0.216506 -0.974279
v -0.608253 -0.125000 -1.053526
v -1.250000 0.000000 -0.000000
v -1.216506 0.125000 -0.000000
v -1.125000 0.216506 -0.000000
v -1.000000 0.250000 -0.000000
v -0.875000 0.216506 -0.000000
v -0.783494 0.125000 -0.000000
v -0.750000 0.000000 -0.000000
v -0.783494 -0.125000 -0.000000
v -0.875000 -0.216506 -0.000000
v -1.000000 -0.250000 -0.000000
v -1.125000 -0.216506 -0.000000
v -1.216506 -0.125000 -0.000000
v -0.625000 0.000000 1.082532
v -0.608253 0.125000 1.053526
v -0.562500 0.216506 0.974279
v -0.500000 0.250000 0.866026
v -0.437500 0.216506 0.757772
v -0.391747 0.125000 0.678525
v -0.375000 0.000000 0.649519
v -0.391747 -0.125000 0.678525
v -0.437500 -0.216506 0.757772
v -0.500000 -0.250000 0.866026
v -0.562500 -0.216506 0.974279
v -0.608253 -0.125000 1.053526
v 0.625000 0.000000 1.082532
v 0.608253 0.125000 1.053526
v 0.562500 0.216506 0.974279
v 0.500000 0.250000 0.866026
v 0.437500 0.216506 0.757772
v 0.391747 0.125000 0.678525
v 0.375000 0.000000 0.649519
v 0.391747 -0.125000 0.678525
v 0.437500 -0.216506 0.757772
v 0.500000 -0.250000 0.866026
v 0.562500 -0.216506 0.974279
v 0.608253 -0.125000 1.053526
v 0.108208 -0.094426 1.055960
v 0.142731 0.000000 1.078519
v 0.107524 0.094426 1.055960
v -0.108208 -0.094426 1.055960
v -0.142731 0.000000 1.078519
v -0.107524 0.094426 1.055960
v 0.000000 0.000000 -1.082532
v 0.000000 0.125000 -1.053526
v 0.000000 0.216506 -0.974279
v 0.000000 0.250000 -0.866026
v -0.000000 0.216506 -0.757772
v -0.000000 0.125000 -0.678525
v 0.000000 0.000000 -0.649519
v -0.000000 -0.125000 -0.678525
v -0.000000 -0.216506 -0.757772
v 0.000000 -0.250000 -0.866026
v 0.000000 -0.216506 -0.974279
v 0.000000 -0.125000 -1.053526
v 0.140517 0.000007 1.163227
v 0.000000 0.152679 1.053525
v 0.000000 0.216506 0.974279
v 0.000000 0.250000 0.866025
v 0.000000 0.216506 0.757772
v 0.000000 0.125000 0.678525
v 0.000000 0.000000 0.649519
v 0.000000 -0.125000 0.678525
v 0.000000 -0.216506 0.757772
v 0.000000 -0.250000 0.866025
v 0.000000 -0.216506 0.974279
v 0.000000 -0.152679 1.053525
v 0.130182 0.000004 1.127929
v 0.098694 -0.086120 1.107353
v 0.098070 0.086129 1.107353
v -0.098070 0.086129 1.107353
v -0.130182 0.000004 1.127929
v -0.098694 -0.086120 1.107353
v 0.147611 0.000009 1.179639
v -0.000000 0.139260 1.105133
v -0.000000 -0.139251 1.105133
v 0.106529 -0.092954 1.141019
v 0.105856 0.092969 1.141019
v -0.105856 0.092969 1.141019
v -0.140517 0.000007 1.163227
v -0.106529 -0.092954 1.141019
v 0.147611 0.000037 1.501564
v -0.000000 0.150318 1.138622
v -0.000000 -0.150303 1.138622
v 0.111907 -0.097646 1.156309
v 0.111200 0.097663 1.156309
v -0.111200 0.097663 1.156309
v -0.147611 0.000009 1.179639
v -0.111907 -0.097646 1.156309
v 0.147611 0.000161 2.926835
v -0.000000 0.157908 1.153792
v -0.000000 -0.157890 1.153792
v 0.111907 -0.097618 1.478234
v 0.111200 0.097691 1.478234
v -0.111200 0.097691 1.478234
v -0.147611 0.000037 1.501564
v -0.111907 -0.097618 1.478234
v 0.179339 0.000175 3.095369
v -0.000000 0.157936 1.475716
v -0.000000 -0.157862 1.475716
v 0.111907 -0.097494 2.903505
v 0.111200 0.097815 2.903505
v -0.111200 0.097815 2.903505
v -0.147611 0.000161 2.926835
v -0.111907 -0.097494 2.903505
v 0.226257 0.000178 3.128062
v -0.000000 0.158060 2.900988
v -0.000000 -0.157738 2.900988
v 0.135962 -0.118470 3.067024
v 0.135102 0.118820 3.067024
v -0.135102 0.118820 3.067024
v -0.179339 0.000175 3.095369
v -0.135962 -0.118470 3.067024
v 0.226257 0.000245 3.906067
v -0.000000 0.192014 3.063965
v -0.000000 -0.191663 3.063965
v 0.171531 -0.149507 3.092302
v 0.170447 0.149862 3.092302
v -0.170447 0.149862 3.092302
v -0.226257 0.000178 3.128062
v -0.171531 -0.149507 3.092302
v 0.171531 -0.149448 3.768564
v -0.000000 0.242204 3.088443
v -0.000000 -0.241849 3.088443
v 0.171531 -0.149439 3.870307
v 0.170447 0.149930 3.870307
v -0.170447 0.149930 3.870307
v -0.226257 0.000245 3.906067
v -0.171531 -0.149439 3.870307
v -0.000000 0.000245 3.912432
v -0.000000 0.242272 3.866448
v -0.000000 -0.241781 3.866448
v 0.170447 0.149911 3.654536
v 0.170447 0.149920 3.756368
v 0.226257 0.000221 3.619672
v 0.226257 0.000234 3.776409
v 0.440729 0.150771 3.654536
v 0.440729 0.150780 3.756368
v 0.496540 0.001080 3.619672
v 0.496540 0.001094 3.776409
v 0.441814 -0.148588 3.768564
v 0.170447 0.149876 3.254153
v 0.170447 0.149883 3.335218
v 0.226257 0.000187 3.238480
v 0.226257 0.000195 3.326643
v 0.171531 -0.149485 3.340049
v 0.419540 0.150668 3.254153
v 0.419540 0.150675 3.335218
v 0.475350 0.000980 3.238480
v 0.475350 0.000987 3.326643
v 0.420624 -0.148693 3.340049
v 0.170447 0.149892 3.432562
v 0.170447 0.149901 3.540559
v 0.226257 0.000203 3.419317
v 0.226257 0.000213 3.534664
v 0.171531 -0.149468 3.531602
v 0.380333 0.150559 3.432562
v 0.380333 0.150569 3.540559
v 0.436143 0.000871 3.419317
v 0.436143 0.000881 3.534664
v 0.381417 -0.148801 3.531602
vn -0.0000 0.2260 -0.9741
vn -0.0000 0.9553 -0.2956
vn -0.0000 0.6547 0.7559
vn -0.0000 -0.2260 0.9741
vn -0.0000 -0.9553 0.2956
vn -0.0000 -0.6547 -0.7559
vn 0.8436 0.2260 -0.4871
vn 0.2560 0.9553 -0.1478
vn -0.6547 0.6547 0.3780
vn -0.8436 -0.2260 0.4871
vn 0.6547 -0.6547 -0.3780
vn 0.2560 -0.9553 -0.1478
vn -0.0000 0.6547 -0.7559
vn -0.0000 0.9553 0.2956
vn -0.0000 0.2260 0.9741
vn -0.0000 -0.6547 0.7559
vn -0.0000 -0.9553 -0.2956
vn -0.0000 -0.2260 -0.9741
vn -0.8436 0.2260 -0.4871
vn -0.6547 0.6547 -0.3780
vn -0.2560 0.9553 -0.1478
vn 0.2560 0.9553 0.1478
vn 0.6547 0.6547 0.3780
vn 0.8436 0.2260 0.4871
vn 0.8436 -0.2260 0.4871
vn 0.6547 -0.6547 0.3780
vn 0.2560 -0.9553 0.1478
vn -0.2560 -0.9553 -0.1478
vn -0.6547 -0.6547 -0.3780
vn -0.8436 -0.2260 -0.4871
vn -0.8436 0.2260 0.4871
vn -0.2560 0.9553 0.1478
vn 0.6547 0.6547 -0.3780
vn 0.8436 -0.2260 -0.4871
vn -0.2560 -0.9553 0.1478
vn -0.6547 -0.6547 0.3780
vn -0.0086 -0.2268 0.9739
vn 0.0146 0.6090 0.7931
vn -0.8936 0.3874 0.2269
vn 0.0086 -0.2268 0.9739
vn -0.4581 -0.8603 0.2238
vn 0.0146 -0.6090 0.7930
vn 0.0086 0.2268 0.9739
vn -0.0146 -0.6090 0.7930
vn -0.0086 0.2268 0.9739
vn -0.0146 0.6090 0.7931
vn 0.4581 -0.8603 0.2238
vn 0.8958 -0.3819 0.2275
vn 0.4624 0.8419 -0.2780
vn 0.9216 0.2791 -0.2698
vn -0.9233 -0.2730 -0.2703
vn -0.4624 0.8419 -0.2780
vn 0.8936 0.3874 0.2269
vn 0.4604 0.8591 0.2234
vn -0.4604 0.8591 0.2234
vn -0.8958 -0.3819 0.2275
vn -0.8924 -0.2341 -0.3857
vn -0.4434 0.8016 -0.4011
vn 0.4411 -0.8026 -0.4015
vn 0.8924 -0.2341 -0.3857
vn -0.4601 -0.8431 -0.2782
vn -0.9216 0.2791 -0.2698
vn 0.9233 -0.2730 -0.2703
vn 0.4601 -0.8431 -0.2782
vn 0.4740 -0.8805 0.0001
vn 0.9392 -0.3434 -0.0000
vn -0.9370 0.3494 -0.0000
vn -0.4740 -0.8805 0.0001
vn 0.8910 0.2402 -0.3852
vn 0.4434 0.8016 -0.4011
vn -0.4411 -0.8026 -0.4015
vn -0.8910 0.2402 -0.3852
vn 0.4764 0.8793 -0.0001
vn 0.9370 0.3494 -0.0000
vn -0.4764 0.8793 -0.0001
vn -0.9392 -0.3434 -0.0000
vn 0.4717 0.8632 -0.1798
vn 0.9354 0.3067 -0.1761
vn -0.9373 -0.3005 -0.1764
vn -0.4717 0.8632 -0.1798
vn -0.2497 0.4245 -0.8703
vn 0.2482 -0.4247 -0.8707
vn 0.5717 -0.0130 -0.8204
vn -0.5716 0.0172 -0.8203
vn -0.4694 -0.8644 -0.1799
vn -0.9354 0.3067 -0.1761
vn 0.9373 -0.3005 -0.1764
vn 0.4694 -0.8644 -0.1799
vn -0.5717 -0.0130 -0.8204
vn 0.5716 0.0172 -0.8203
vn 0.2497 0.4245 -0.8703
vn -0.2482 -0.4247 -0.8707
vn 0.0552 -0.2114 0.9758
vn 0.0554 0.2115 0.9758
vn -0.0554 0.2115 0.9758
vn -0.0552 -0.2114 0.9758
vn -0.0004 0.1325 0.9912
vn 0.0002 -0.0524 0.9986
vn 0.0022 -0.7057 -0.7085
vn -0.0007 0.2266 -0.9740
vn -0.0032 1.0000 -0.0001
vn 0.0018 -0.5620 -0.8272
vn -0.0003 0.1040 -0.9946
vn -0.0003 0.0893 0.9960
vn 0.0002 -0.0571 0.9984
vn 0.0001 -0.0205 0.9998
vn 0.0001 -0.0393 0.9992
vn -0.0003 0.0880 -0.9961
vn 0.0019 -0.6006 -0.7996
vt 0.750000 0.500000
vt 0.750000 0.583333
vt 0.833333 0.583333
vt 0.833333 0.500000
vt 0.750000 0.666667
vt 0.750000 0.750000
vt 0.833333 0.750000
vt 0.833333 0.666667
vt 0.750000 0.833333
vt 0.750000 0.916667
vt 0.833333 0.916667
vt 0.833333 0.833333
vt 0.750000 0.000000
vt 0.750000 0.083333
vt 0.833333 0.083333
vt 0.833333 0.000000
vt 0.750000 0.166667
vt 0.750000 0.250000
vt 0.833333 0.250000
vt 0.833333 0.166667
vt 0.750000 0.333333
vt 0.750000 0.416667
vt 0.833333 0.416667
vt 0.833333 0.333333
vt 1.000000 0.583333
vt 1.000000 0.500000
vt 1.000000 0.750000
vt 1.000000 0.666667
vt 1.000000 0.916667
vt 1.000000 0.833333
vt 1.000000 0.083333
vt 1.000000 0.000000
vt 1.000000 0.416667
vt 1.000000 0.333333
vt 1.000000 0.250000
vt 0.833333 1.000000
vt 0.750000 1.000000
vt 1.000000 1.000000
vt 1.000000 0.166667
vt -0.000000 0.500000
vt 0.166667 0.500000
vt 0.166667 0.583333
vt -0.000000 0.583333
vt 0.166667 0.666667
vt -0.000000 0.666667
vt 0.166667 0.750000
vt -0.000000 0.750000
vt 0.166667 0.833333
vt -0.000000 0.833333
vt 0.166667 0.916667
vt -0.000000 0.916667
vt 0.166667 1.000000
vt -0.000000 1.000000
vt -0.000000 0.000000
vt 0.166667 0.000000
vt 0.166667 0.083333
vt -0.000000 0.083333
vt 0.166667 0.166667
vt -0.000000 0.166667
vt 0.166667 0.250000
vt -0.000000 0.250000
vt 0.166667 0.333333
vt -0.000000 0.333333
vt 0.166667 0.416667
vt -0.000000 0.416667
vt 0.231553 0.500000
vt 0.230375 0.416667
vt 0.250001 0.333333
vt 0.250000 0.250000
vt 0.250000 0.166667
vt 0.249999 0.083333
vt 0.249999 1.000000
vt 0.249999 0.916667
vt 0.250000 0.833333
vt 0.250000 0.750000
vt 0.250001 0.666667
vt 0.250000 0.583333
vt 0.230499 0.583333
vt 0.250000 0.416667
vt 0.249999 0.000000
vt 0.250014 0.500000
vt 0.230499 0.583333
s 0
usemtl Material.003
f 3/8/8 4/7/8 16/27/8 15/28/8
f 81/5/2 27/8/2 28/7/2 82/6/2
f 27/8/21 39/28/21 40/27/21 28/7/21
f 39/45/32 51/44/32 52/46/32 40/47/32
f 15/45/22 16/47/22 64/46/22 63/44/22
f 63/44/14 64/46/14 94/75/14 93/76/14
f 127/79/65 120/67/65 128/67/65 135/79/65
f 120/67/66 109/66/66 117/66/66 128/67/66
f 122/78/67 123/66/67 131/66/67 130/78/67
f 124/67/68 127/79/68 135/79/68 132/67/68
f 132/67/68 135/79/68 143/79/68 140/67/68
f 126/77/75 122/78/75 130/78/75 134/77/75
f 123/66/76 124/67/76 132/67/76 131/66/76
f 109/66/74 121/78/74 129/78/74 117/66/74
f 121/78/73 126/77/73 134/77/73 129/78/73
f 135/79/65 128/67/65 136/67/65 143/79/65
f 159/79/65 152/67/65 181/67/65 191/67/65 157/67/65 160/67/65 167/79/65
f 156/67/68 159/79/68 167/79/68 164/67/68
f 174/66/74 172/78/74 173/78/74 175/66/74
f 176/67/66 174/66/66 175/66/66
f 168/78/101 169/78/101 173/78/101 172/78/101
f 184/66/74 182/78/74 183/82/74 185/66/74
f 177/78/101 178/82/101 183/82/101 182/78/101
f 186/67/66 184/66/66 185/66/66
f 196/67/66 194/66/66 195/66/66
f 194/66/74 192/82/74 193/78/74 195/66/74
f 187/82/101 188/78/101 193/78/101 192/82/101
usemtl Material.004
f 79/1/1 80/2/1 2/3/1 1/4/1
f 81/5/2 82/6/2 4/7/2 3/8/2
f 83/9/3 84/10/3 6/11/3 5/12/3
f 85/13/4 86/14/4 8/15/4 7/16/4
f 87/17/5 88/18/5 10/19/5 9/20/5
f 89/21/6 90/22/6 12/23/6 11/24/6
f 1/4/7 2/3/7 14/25/7 13/26/7
f 5/12/9 6/11/9 18/29/9 17/30/9
f 7/16/10 8/15/10 20/31/10 19/32/10
f 11/24/11 12/23/11 24/33/11 23/34/11
f 10/19/12 11/24/12 23/34/12 22/35/12
f 79/1/1 25/4/1 26/3/1 80/2/1
f 80/2/13 26/3/13 27/8/13 81/5/13
f 82/6/14 28/7/14 29/12/14 83/9/14
f 83/9/3 29/12/3 30/11/3 84/10/3
f 84/10/15 30/11/15 31/36/15 85/37/15
f 85/13/4 31/16/4 32/15/4 86/14/4
f 86/14/16 32/15/16 33/20/16 87/17/16
f 87/17/5 33/20/5 34/19/5 88/18/5
f 88/18/17 34/19/17 35/24/17 89/21/17
f 89/21/6 35/24/6 36/23/6 90/22/6
f 90/22/18 36/23/18 25/4/18 79/1/18
f 25/4/19 37/26/19 38/25/19 26/3/19
f 26/3/20 38/25/20 39/28/20 27/8/20
f 28/7/22 40/27/22 41/30/22 29/12/22
f 29/12/23 41/30/23 42/29/23 30/11/23
f 30/11/24 42/29/24 43/38/24 31/36/24
f 31/16/25 43/32/25 44/31/25 32/15/25
f 32/15/26 44/31/26 45/39/26 33/20/26
f 33/20/27 45/39/27 46/35/27 34/19/27
f 34/19/28 46/35/28 47/34/28 35/24/28
f 35/24/29 47/34/29 48/33/29 36/23/29
f 36/23/30 48/33/30 37/26/30 25/4/30
f 37/40/31 49/41/31 50/42/31 38/43/31
f 38/43/9 50/42/9 51/44/9 39/45/9
f 40/47/8 52/46/8 53/48/8 41/49/8
f 41/49/33 53/48/33 54/50/33 42/51/33
f 42/51/7 54/50/7 55/52/7 43/53/7
f 43/54/34 55/55/34 56/56/34 44/57/34
f 44/57/11 56/56/11 57/58/11 45/59/11
f 45/59/12 57/58/12 58/60/12 46/61/12
f 46/61/35 58/60/35 59/62/35 47/63/35
f 47/63/36 59/62/36 60/64/36 48/65/36
f 48/65/10 60/64/10 49/41/10 37/40/10
f 72/64/37 61/41/37 74/66/37 73/67/37
f 70/60/5 71/62/5 101/68/5 100/69/5
f 68/56/6 69/58/6 99/70/6 98/71/6
f 66/50/1 67/52/1 97/72/1 96/73/1
f 64/46/2 65/48/2 95/74/2 94/75/2
f 62/42/38 63/44/38 93/76/38 92/77/38 75/78/38
f 78/78/39 77/66/39 107/66/39 106/78/39
f 13/40/24 14/43/24 62/42/24 61/41/24
f 14/43/23 15/45/23 63/44/23 62/42/23
f 16/47/21 17/49/21 65/48/21 64/46/21
f 17/49/20 18/51/20 66/50/20 65/48/20
f 18/51/19 19/53/19 67/52/19 66/50/19
f 19/54/30 20/57/30 68/56/30 67/55/30
f 20/57/29 21/59/29 69/58/29 68/56/29
f 21/59/28 22/61/28 70/60/28 69/58/28
f 22/61/27 23/63/27 71/62/27 70/60/27
f 24/65/25 13/40/25 61/41/25 72/64/25
f 23/63/26 24/65/26 72/64/26 71/62/26
f 60/64/40 76/67/40 77/66/40 49/41/40
f 76/67/41 102/79/41 111/79/41 108/67/41
f 65/48/13 66/50/13 96/73/13 95/74/13
f 67/55/18 68/56/18 98/71/18 97/80/18
f 69/58/17 70/60/17 100/69/17 99/70/17
f 71/62/42 72/64/42 73/67/42 102/79/42 101/68/42
f 49/41/43 77/66/43 78/78/43 50/42/43
f 59/62/44 101/68/44 102/79/44 76/67/44 60/64/44
f 61/41/45 62/42/45 75/78/45 74/66/45
f 58/60/5 100/69/5 101/68/5 59/62/5
f 57/58/17 99/70/17 100/69/17 58/60/17
f 56/56/6 98/71/6 99/70/6 57/58/6
f 55/55/18 97/80/18 98/71/18 56/56/18
f 54/50/1 96/73/1 97/72/1 55/52/1
f 53/48/13 95/74/13 96/73/13 54/50/13
f 52/46/2 94/75/2 95/74/2 53/48/2
f 51/44/14 93/76/14 94/75/14 52/46/14
f 50/42/46 78/78/46 92/77/46 93/76/46 51/44/46
f 102/79/47 73/67/47 104/67/47 111/79/47
f 73/67/48 74/66/48 103/66/48 104/67/48
f 12/23/34 1/4/34 13/26/34 24/33/34
f 8/15/36 9/20/36 21/39/36 20/31/36
f 6/11/31 7/36/31 19/38/31 18/29/31
f 4/7/32 5/12/32 17/30/32 16/27/32
f 2/3/33 3/8/33 15/28/33 14/25/33
f 90/22/18 79/1/18 1/4/18 12/23/18
f 88/18/17 89/21/17 11/24/17 10/19/17
f 86/14/16 87/17/16 9/20/16 8/15/16
f 84/10/15 85/37/15 7/36/15 6/11/15
f 82/6/14 83/9/14 5/12/14 4/7/14
f 80/2/13 81/5/13 3/8/13 2/3/13
f 9/20/35 10/19/35 22/35/35 21/39/35
f 105/78/49 110/77/49 118/77/49 113/78/49
f 103/66/50 105/78/50 113/78/50 91/66/50
f 107/66/51 108/67/51 116/67/51 115/66/51
f 110/77/52 106/78/52 114/78/52 118/77/52
f 74/66/53 75/78/53 105/78/53 103/66/53
f 75/78/54 92/77/54 110/77/54 105/78/54
f 92/77/55 78/78/55 106/78/55 110/77/55
f 77/66/56 76/67/56 108/67/56 107/66/56
f 115/66/57 116/67/57 124/67/57 123/66/57
f 118/77/58 114/78/58 122/78/58 126/77/58
f 119/79/59 112/67/59 120/67/59 127/79/59
f 112/67/60 91/66/60 109/66/60 120/67/60
f 108/67/61 111/79/61 119/79/61 116/67/61
f 106/78/62 107/66/62 115/66/62 114/78/62
f 104/67/63 103/66/63 91/66/63 112/67/63
f 111/79/64 104/67/64 112/67/64 119/79/64
f 91/66/69 113/78/69 121/78/69 109/66/69
f 113/78/70 118/77/70 126/77/70 121/78/70
f 116/67/71 119/79/71 127/79/71 124/67/71
f 114/78/72 115/66/72 123/66/72 122/78/72
f 130/78/67 131/66/67 139/66/67 138/78/67
f 129/78/73 134/77/73 142/77/73 137/78/73
f 117/66/74 129/78/74 137/78/74 125/66/74
f 137/78/77 142/77/77 150/77/77 145/78/77
f 125/66/78 137/78/78 145/78/78 133/66/78
f 139/66/79 140/67/79 148/67/79 147/66/79
f 142/77/80 138/78/80 146/78/80 150/77/80
f 128/67/66 117/66/66 125/66/66 136/67/66
f 134/77/75 130/78/75 138/78/75 142/77/75
f 131/66/76 132/67/76 140/67/76 139/66/76
f 150/77/81 146/78/81 154/78/81 158/77/81
f 151/79/82 144/67/82 152/67/82 159/79/82
f 144/67/83 133/66/83 141/66/83 152/67/83
f 146/78/84 147/66/84 155/66/84 154/78/84
f 140/67/85 143/79/85 151/79/85 148/67/85
f 138/78/86 139/66/86 147/66/86 146/78/86
f 136/67/87 125/66/87 133/66/87 144/67/87
f 143/79/88 136/67/88 144/67/88 151/79/88
f 152/67/66 141/66/66 179/66/66 181/67/66
f 154/78/67 155/66/67 163/66/67 162/78/67
f 147/66/89 148/67/89 156/67/89 155/66/89
f 133/66/90 145/78/90 153/78/90 141/66/90
f 145/78/91 150/77/91 158/77/91 153/78/91
f 148/67/92 151/79/92 159/79/92 156/67/92
f 149/66/93 165/81/93 167/79/93 160/67/93
f 161/78/94 166/77/94 165/81/94 149/66/94
f 162/78/95 163/66/95 165/81/95 166/77/95
f 163/66/96 164/67/96 167/79/96 165/81/96
f 158/77/75 154/78/75 162/78/75 166/77/75
f 155/66/76 156/67/76 164/67/76 163/66/76
f 141/66/74 153/78/74 177/78/74 179/66/74
f 153/78/73 158/77/73 166/77/73 161/78/73 169/78/73 168/78/73 188/78/73 187/82/73 178/82/73 177/78/73
f 169/78/97 171/66/97 175/66/97 173/78/97
f 171/66/74 169/78/74 161/78/74 149/66/74
f 171/66/98 157/67/98 176/67/98 175/66/98
f 171/66/66 149/66/66 160/67/66 157/67/66
f 157/67/99 170/66/99 174/66/99 176/67/99
f 170/66/100 168/78/100 172/78/100 174/66/100
f 181/67/102 179/66/102 184/66/102 186/67/102
f 180/66/74 178/82/74 187/82/74 189/66/74
f 180/66/66 189/66/66 191/67/66 181/67/66
f 179/66/103 177/78/103 182/78/103 184/66/103
f 180/66/104 181/67/104 186/67/104 185/66/104
f 178/82/105 180/66/105 185/66/105 183/82/105
f 190/66/106 191/67/106 196/67/106 195/66/106
f 190/66/66 170/66/66 157/67/66 191/67/66
f 188/78/107 190/66/107 195/66/107 193/78/107
f 190/66/74 188/78/74 168/78/74 170/66/74
f 189/66/108 187/82/108 192/82/108 194/66/108
f 191/67/109 189/66/109 194/66/109 196/67/109
