# Blender 4.4.3
# www.blender.org
mtllib stickman2.0.mtl
o Cube
v 0.050000 -0.102638 0.050000
v 0.050000 0.050000 0.050000
v 0.041918 -0.089502 -0.040005
v 0.050000 0.050000 -0.050000
v 0.000000 -0.060051 0.075053
v 0.066380 -0.059269 -0.001118
v 0.000000 -0.059269 -0.073443
v 0.056867 -0.054512 0.058145
v 0.000000 -0.098682 -0.060957
v 0.000000 0.060957 -0.060957
v 0.060957 -0.000000 -0.060957
v 0.053746 -0.105466 0.000836
v 0.060957 0.060957 -0.000000
v 0.060957 -0.000000 0.060957
v 0.000000 -0.113594 0.060957
v 0.000000 0.060957 0.060957
v 0.057606 -0.053729 -0.056535
v 0.000000 0.000000 -0.083951
v 0.067498 0.000000 0.000000
v 0.000000 0.000000 0.083951
v 0.000000 -0.118569 0.023437
v 0.000000 0.083951 -0.000000
v 0.041918 -0.121685 -0.040005
v 0.000000 -0.130435 -0.060957
v 0.053746 -0.136901 0.000836
v 0.000000 -0.149389 0.023437
v 0.111681 -0.153129 -0.056166
v 0.000000 -0.165835 -0.060957
v 0.123509 -0.168344 -0.015326
v 0.000000 -0.184789 0.023437
v 0.163592 -0.162755 -0.052426
v 0.173185 -0.157114 -0.009466
v 0.146512 -0.198358 0.035925
v 0.000000 -0.213724 0.046064
v 0.183858 -0.184099 0.024110
v 0.141836 -0.264466 0.061089
v 0.000000 -0.276447 0.076844
v 0.166904 -0.252669 0.030729
v 0.113350 -0.180429 -0.084630
v 0.000000 -0.193135 -0.089421
v 0.160699 -0.197717 -0.079605
v 0.113304 -0.235254 -0.105443
v 0.000000 -0.244055 -0.100880
v 0.143746 -0.266287 -0.072986
v 0.114972 -0.296357 -0.091739
v 0.000000 -0.305158 -0.087176
v 0.154419 -0.293271 -0.039410
v 0.141836 -0.377504 0.061089
v 0.000000 -0.389490 0.076844
v 0.169344 -0.361960 0.058594
v 0.164011 -0.287631 0.003550
v 0.108194 -0.357166 -0.086331
v 0.000000 -0.365447 -0.082037
v 0.133380 -0.372246 -0.073860
v 0.162676 -0.377094 0.004193
v 0.270756 -0.273022 -0.040175
v 0.279271 -0.285284 0.001616
v 0.264042 -0.316919 0.028759
v 0.233990 -0.349394 0.025354
v 0.243484 -0.287314 -0.072134
v 0.213432 -0.319790 -0.075539
v 0.198203 -0.351424 -0.048397
v 0.206719 -0.363687 -0.006605
v 0.314245 -0.396274 -0.034998
v 0.320134 -0.404755 -0.006096
v 0.309602 -0.426632 0.012675
v 0.288819 -0.449091 0.010320
v 0.295385 -0.406159 -0.057100
v 0.274602 -0.428618 -0.059455
v 0.264070 -0.450495 -0.040684
v 0.269959 -0.458976 -0.011782
v 0.347910 -0.504317 -0.031594
v 0.352072 -0.510311 -0.011167
v 0.344628 -0.525773 0.002099
v 0.329940 -0.541647 0.000435
v 0.334580 -0.511303 -0.047215
v 0.319891 -0.527177 -0.048880
v 0.312448 -0.542639 -0.035613
v 0.316610 -0.548633 -0.015186
v 0.400034 -0.704894 -0.036248
v 0.406557 -0.714288 -0.004235
v 0.394891 -0.738520 0.016557
v 0.371870 -0.763397 0.013949
v 0.379143 -0.715843 -0.060729
v 0.356122 -0.740720 -0.063338
v 0.344457 -0.764952 -0.042546
v 0.350980 -0.774346 -0.010533
v 0.397857 -0.789884 -0.022799
v 0.400971 -0.794369 -0.007513
v 0.395401 -0.805940 0.002415
v 0.384409 -0.817819 0.001169
v 0.371319 -0.818561 -0.025806
v 0.374434 -0.823046 -0.010520
v 0.102168 -0.666072 0.000386
v 0.000000 -0.668702 0.003844
v 0.080855 -0.667393 -0.068941
v 0.000000 -0.669210 -0.067999
v 0.086383 -0.670703 -0.066204
v 0.106742 -0.665982 -0.012102
v 0.070445 -0.714449 -0.100504
v 0.000000 -0.716267 -0.099561
v 0.075972 -0.717759 -0.097766
v 0.065968 -0.754392 -0.106780
v 0.000000 -0.756209 -0.105837
v 0.071496 -0.757701 -0.104043
v 0.065331 -0.808399 -0.089790
v 0.000000 -0.810217 -0.088848
v 0.070859 -0.811709 -0.087053
v 0.068460 -0.831879 -0.066380
v 0.000000 -0.833696 -0.065438
v 0.073988 -0.835188 -0.063643
v 0.079183 -0.833436 0.033473
v 0.000000 -0.831183 0.025364
v 0.130597 -0.833160 -0.017766
v 0.154419 -1.512632 -0.109835
v 0.000000 -0.808141 -0.045621
v 0.159947 -1.515942 -0.107098
v 0.165142 -1.514189 -0.009982
v 0.000000 -0.920298 0.004154
v 0.216555 -1.513913 -0.061221
v 0.091309 -1.182520 -0.070545
v 0.155999 -1.173543 -0.041673
v 0.119420 -1.173991 -0.005203
v 0.116220 -1.179192 -0.074610
v 0.082113 -1.172530 -0.014899
v 0.112645 -1.179693 -0.076742
v -0.050000 -0.102638 0.050000
v -0.050000 0.050000 0.050000
v -0.041918 -0.089502 -0.040005
v -0.050000 0.050000 -0.050000
v -0.066380 -0.059269 -0.001118
v -0.056867 -0.054512 0.058145
v -0.060957 -0.000000 -0.060957
v -0.053746 -0.105466 0.000836
v -0.060957 0.060957 -0.000000
v -0.060957 -0.000000 0.060957
v -0.057606 -0.053729 -0.056535
v -0.067498 0.000000 0.000000
v -0.041918 -0.121685 -0.040005
v -0.053746 -0.136901 0.000836
v -0.111681 -0.153129 -0.056166
v -0.123509 -0.168344 -0.015326
v -0.163592 -0.162755 -0.052426
v -0.173185 -0.157114 -0.009466
v -0.146512 -0.198358 0.035925
v -0.183858 -0.184099 0.024110
v -0.141836 -0.264466 0.061089
v -0.166904 -0.252669 0.030729
v -0.113350 -0.180429 -0.084630
v -0.160699 -0.197717 -0.079605
v -0.113304 -0.235254 -0.105443
v -0.143746 -0.266287 -0.072986
v -0.114972 -0.296357 -0.091739
v -0.154419 -0.293271 -0.039410
v -0.141836 -0.377504 0.061089
v -0.169344 -0.361960 0.058594
v -0.164011 -0.287631 0.003550
v -0.108194 -0.357166 -0.086331
v -0.133380 -0.372246 -0.073860
v -0.162676 -0.377094 0.004193
v -0.270756 -0.273022 -0.040175
v -0.279271 -0.285284 0.001616
v -0.264042 -0.316919 0.028759
v -0.233990 -0.349394 0.025354
v -0.243484 -0.287314 -0.072134
v -0.213432 -0.319790 -0.075539
v -0.198203 -0.351424 -0.048397
v -0.206719 -0.363687 -0.006605
v -0.314245 -0.396274 -0.034998
v -0.320134 -0.404755 -0.006096
v -0.309602 -0.426632 0.012675
v -0.288819 -0.449091 0.010320
v -0.295385 -0.406159 -0.057100
v -0.274602 -0.428618 -0.059455
v -0.264070 -0.450495 -0.040684
v -0.269959 -0.458976 -0.011782
v -0.347910 -0.504317 -0.031594
v -0.352072 -0.510311 -0.011167
v -0.344628 -0.525773 0.002099
v -0.329940 -0.541647 0.000435
v -0.334580 -0.511303 -0.047215
v -0.319891 -0.527177 -0.048880
v -0.312448 -0.542639 -0.035613
v -0.316610 -0.548633 -0.015186
v -0.400034 -0.704894 -0.036248
v -0.406557 -0.714288 -0.004235
v -0.394891 -0.738520 0.016557
v -0.371870 -0.763397 0.013949
v -0.379143 -0.715843 -0.060729
v -0.356122 -0.740720 -0.063338
v -0.344457 -0.764952 -0.042546
v -0.350980 -0.774346 -0.010533
v -0.397857 -0.789884 -0.022799
v -0.400971 -0.794369 -0.007513
v -0.395401 -0.805940 0.002415
v -0.384409 -0.817819 0.001169
v -0.371319 -0.818561 -0.025806
v -0.374434 -0.823046 -0.010520
v -0.102168 -0.666072 0.000386
v -0.080855 -0.667393 -0.068941
v -0.086383 -0.670703 -0.066204
v -0.106742 -0.665982 -0.012102
v -0.070445 -0.714449 -0.100504
v -0.075972 -0.717759 -0.097766
v -0.065968 -0.754392 -0.106780
v -0.071496 -0.757701 -0.104043
v -0.065331 -0.808399 -0.089790
v -0.070859 -0.811709 -0.087053
v -0.068460 -0.831879 -0.066380
v -0.073988 -0.835188 -0.063643
v -0.079183 -0.833436 0.033473
v -0.130597 -0.833160 -0.017766
v -0.154419 -1.512632 -0.109835
v -0.159947 -1.515942 -0.107098
v -0.165142 -1.514189 -0.009982
v -0.216555 -1.513913 -0.061221
v -0.091309 -1.182520 -0.070545
v -0.155999 -1.173543 -0.041673
v -0.119420 -1.173991 -0.005203
v -0.116220 -1.179192 -0.074610
v -0.082113 -1.172530 -0.014899
v -0.112645 -1.179693 -0.076742
vn 0.9688 -0.2090 0.1331
vn -1.0000 -0.0000 -0.0000
vn 0.2781 -0.2232 0.9343
vn 0.3769 -0.4009 -0.8350
vn 0.8888 -0.3686 -0.2726
vn 0.3061 0.3061 -0.9015
vn 0.3217 -0.1334 -0.9374
vn 0.9903 -0.0430 -0.1324
vn 0.9707 0.1699 -0.1699
vn 0.9707 0.1699 0.1699
vn 0.9897 -0.0499 0.1341
vn 0.3234 -0.1076 0.9401
vn 0.3061 0.3061 0.9015
vn 0.2547 -0.9621 0.0976
vn 0.3061 0.9015 -0.3061
vn 0.3061 0.9015 0.3061
vn 0.4471 -0.0000 -0.8945
vn 0.3876 -0.0000 0.9218
vn 0.9605 -0.0000 -0.2782
vn 0.3115 0.0966 0.9453
vn 0.4406 0.8755 0.1986
vn 0.1091 0.3397 -0.9342
vn -0.0270 0.9924 0.1203
vn -0.1873 0.7793 0.5980
vn 0.0198 0.7845 0.6198
vn 0.5226 0.1154 0.8447
vn 0.0447 0.3965 0.9169
vn 0.2389 0.6445 -0.7264
vn -0.0518 0.7200 -0.6921
vn 0.4537 0.0399 -0.8902
vn -0.0267 0.2918 -0.9561
vn 0.7021 -0.2579 -0.6637
vn -0.0221 -0.2191 -0.9755
vn 0.4831 0.1141 0.8681
vn 0.1104 -0.0000 0.9939
vn 0.9502 -0.0650 -0.3049
vn 0.7085 0.0056 -0.7057
vn -0.0330 -0.0849 -0.9958
vn 0.9844 -0.1627 -0.0675
vn -0.5971 -0.4398 0.6708
vn 0.7462 0.6568 -0.1081
vn 0.6682 0.5096 0.5421
vn 0.5645 0.4695 -0.6789
vn -0.6016 -0.5517 -0.5777
vn -0.8243 -0.5502 0.1331
vn 0.0017 -0.0326 -0.9995
vn 0.0316 0.0171 0.9994
vn -0.8330 -0.5532 0.0074
vn -0.5153 -0.4015 -0.7571
vn 0.6931 0.2157 -0.6879
vn 0.7298 0.2076 0.6514
vn -0.5853 -0.4259 0.6899
vn 0.1672 -0.0515 -0.9846
vn 0.0308 -0.1324 0.9907
vn 0.9400 0.3277 -0.0954
vn -0.6279 -0.3530 0.6937
vn 0.1513 -0.0365 -0.9878
vn 0.0014 -0.1056 0.9944
vn 0.9501 0.2927 -0.1077
vn -0.8855 -0.4625 0.0447
vn -0.5848 -0.3474 -0.7330
vn 0.7007 0.1967 -0.6859
vn 0.7419 0.1936 0.6419
vn -0.1471 0.0324 0.9886
vn 0.9600 0.2523 -0.1216
vn -0.9769 -0.1455 0.1564
vn -0.8139 -0.0993 -0.5724
vn 0.7002 0.1979 -0.6860
vn 0.7228 0.2154 0.6566
vn -0.7349 -0.0981 0.6710
vn 0.0338 0.0732 -0.9967
vn -0.6491 -0.3124 0.6936
vn 0.1094 -0.2033 0.9730
vn 0.9746 -0.0591 -0.2159
vn -0.8995 -0.4332 0.0562
vn 0.9063 -0.0802 0.4150
vn 0.9210 -0.1973 0.3359
vn 0.4001 -0.0864 -0.9124
vn 0.0903 -0.2343 0.9680
vn 0.9245 -0.1569 -0.3475
vn -0.0250 -0.0500 -0.9984
vn 0.5787 0.3621 -0.7308
vn -0.0238 0.5587 -0.8290
vn 0.4817 0.0831 -0.8724
vn -0.0178 0.1562 -0.9876
vn 0.2788 -0.2912 -0.9151
vn -0.0054 -0.3000 -0.9539
vn -0.0776 -0.7091 -0.7008
vn 0.0092 -0.7057 -0.7084
vn 0.7499 0.0560 0.6592
vn -0.0256 0.1650 0.9860
vn 0.8627 0.0014 -0.5056
vn 0.4908 0.0880 -0.8668
vn 0.6249 0.1012 -0.7741
vn 0.7060 0.0030 0.7083
vn -0.3026 -0.0520 -0.9517
vn -0.2039 -0.1535 0.9669
vn -0.0362 -0.9991 0.0200
vn -0.9225 -0.2338 -0.3070
vn 0.7031 0.0846 0.7061
vn -0.2856 0.0592 -0.9565
vn -0.2530 -0.0476 0.9663
vn 0.5015 0.1475 -0.8525
vn 0.6180 0.1544 -0.7709
vn -0.9767 -0.2136 0.0212
vn -0.9688 -0.2090 0.1331
vn -0.2781 -0.2232 0.9343
vn -0.3769 -0.4009 -0.8350
vn -0.8888 -0.3686 -0.2726
vn -0.3061 0.3061 -0.9015
vn -0.3217 -0.1334 -0.9374
vn -0.9903 -0.0430 -0.1324
vn -0.9707 0.1699 -0.1699
vn -0.9707 0.1699 0.1699
vn -0.9897 -0.0499 0.1341
vn -0.3234 -0.1076 0.9401
vn -0.3061 0.3061 0.9015
vn -0.2547 -0.9621 0.0976
vn -0.3061 0.9015 -0.3061
vn -0.3061 0.9015 0.3061
vn -0.4471 -0.0000 -0.8945
vn -0.3876 -0.0000 0.9218
vn -0.9605 -0.0000 -0.2782
vn -0.3115 0.0966 0.9453
vn -0.4406 0.8755 0.1986
vn -0.1091 0.3397 -0.9342
vn 0.0270 0.9924 0.1203
vn 0.1873 0.7793 0.5980
vn -0.0198 0.7845 0.6198
vn -0.5226 0.1154 0.8447
vn -0.0447 0.3965 0.9169
vn -0.2389 0.6445 -0.7264
vn 0.0518 0.7200 -0.6921
vn -0.4537 0.0399 -0.8902
vn 0.0267 0.2918 -0.9561
vn -0.7021 -0.2579 -0.6637
vn 0.0221 -0.2191 -0.9755
vn -0.4831 0.1141 0.8681
vn -0.1104 -0.0000 0.9939
vn -0.9502 -0.0650 -0.3049
vn -0.7085 0.0056 -0.7057
vn 0.0330 -0.0849 -0.9958
vn -0.9844 -0.1627 -0.0675
vn 0.5971 -0.4398 0.6708
vn -0.7462 0.6568 -0.1081
vn -0.6682 0.5096 0.5421
vn -0.5645 0.4695 -0.6789
vn 0.6016 -0.5517 -0.5777
vn 0.8243 -0.5502 0.1331
vn -0.0017 -0.0326 -0.9995
vn -0.0316 0.0171 0.9994
vn 0.8330 -0.5532 0.0074
vn 0.5153 -0.4015 -0.7571
vn -0.6931 0.2157 -0.6879
vn -0.7298 0.2076 0.6514
vn 0.5853 -0.4259 0.6899
vn -0.1672 -0.0515 -0.9846
vn -0.0308 -0.1324 0.9907
vn -0.9400 0.3277 -0.0954
vn 0.6279 -0.3530 0.6937
vn -0.1513 -0.0365 -0.9878
vn -0.0014 -0.1056 0.9944
vn -0.9501 0.2927 -0.1077
vn 0.8855 -0.4625 0.0447
vn 0.5848 -0.3474 -0.7330
vn -0.7007 0.1967 -0.6859
vn -0.7419 0.1936 0.6419
vn 0.1471 0.0324 0.9886
vn -0.9600 0.2523 -0.1216
vn 0.9769 -0.1455 0.1564
vn 0.8139 -0.0993 -0.5724
vn -0.7002 0.1979 -0.6860
vn -0.7228 0.2154 0.6566
vn 0.7349 -0.0981 0.6710
vn -0.0338 0.0732 -0.9967
vn 0.6491 -0.3124 0.6936
vn -0.1094 -0.2033 0.9730
vn -0.9746 -0.0591 -0.2159
vn 0.8995 -0.4332 0.0562
vn -0.9063 -0.0802 0.4150
vn -0.9210 -0.1973 0.3359
vn -0.4001 -0.0864 -0.9124
vn -0.0903 -0.2343 0.9680
vn -0.9245 -0.1569 -0.3475
vn 0.0250 -0.0500 -0.9984
vn -0.5787 0.3621 -0.7308
vn 0.0238 0.5587 -0.8290
vn -0.4817 0.0831 -0.8724
vn 0.0178 0.1562 -0.9876
vn -0.2788 -0.2912 -0.9151
vn 0.0054 -0.3000 -0.9539
vn 0.0776 -0.7091 -0.7008
vn -0.0092 -0.7057 -0.7084
vn -0.7499 0.0560 0.6592
vn 0.0256 0.1650 0.9860
vn -0.8627 0.0014 -0.5056
vn -0.4908 0.0880 -0.8668
vn -0.6249 0.1012 -0.7741
vn -0.7060 0.0030 0.7083
vn 0.3026 -0.0520 -0.9517
vn 0.2039 -0.1535 0.9669
vn 0.0362 -0.9991 0.0200
vn 0.9225 -0.2338 -0.3070
vn -0.7031 0.0846 0.7061
vn 0.2856 0.0592 -0.9565
vn 0.2530 -0.0476 0.9663
vn -0.5015 0.1475 -0.8525
vn -0.6180 0.1544 -0.7709
vn 0.9767 -0.2136 0.0212
vt 0.375000 0.625000
vt 0.436798 0.625000
vt 0.436798 0.750000
vt 0.375000 0.750000
vt 0.373596 0.438202
vt 0.436798 0.875000
vt 0.500000 0.875000
vt 0.750000 0.750000
vt 0.750000 0.625000
vt 0.625000 0.375000
vt 0.500000 0.375000
vt 0.375000 0.875000
vt 0.375000 0.375000
vt 0.436798 0.375000
vt 0.436798 0.500000
vt 0.375000 0.500000
vt 0.250000 0.500000
vt 0.280506 0.703567
vt 0.625000 0.500000
vt 0.500000 0.500000
vt 0.500000 0.625000
vt 0.625000 0.625000
vt 0.625000 0.750000
vt 0.500000 0.750000
vt 0.625000 0.875000
vt 0.250000 0.750000
vt 0.750000 0.500000
vt 0.375000 0.376053
vt 0.000000 0.000000
vt 0.375000 0.442320
vt 0.320357 0.670433
s 0
usemtl Material.001
f 12/1/1 6/2/1 8/3/1 1/4/1
f 7/5/2 5/6/2 20/7/2 16/8/2 22/9/2 10/10/2 18/11/2
f 9/13/4 7/14/4 17/15/4 3/16/4
f 9/17/2 21/18/2 15/12/2 5/6/2 7/5/2
f 3/16/5 17/15/5 6/2/5 12/1/5
f 18/11/6 10/10/6 4/19/6 11/20/6
f 7/14/7 18/11/7 11/20/7 17/15/7
f 17/15/8 11/20/8 19/21/8 6/2/8
f 11/20/9 4/19/9 13/22/9 19/21/9
f 19/21/10 13/22/10 2/23/10 14/24/10
f 6/2/11 19/21/11 14/24/11 8/3/11
f 21/18/2 9/17/2 24/17/2 26/18/2
f 21/18/14 12/1/14 1/4/14 15/26/14
f 4/19/15 10/27/15 22/9/15 13/22/15
f 13/22/16 22/9/16 16/8/16 2/23/16
f 9/13/17 3/16/17 23/16/17 24/13/17
f 12/1/18 21/18/18 26/18/18 25/1/18
f 3/16/19 12/1/19 25/1/19 23/16/19
f 25/1/20 26/18/20 30/18/20 29/1/20
f 23/16/21 25/1/21 29/1/21 27/16/21
f 24/13/22 23/16/22 27/16/22 28/13/22
f 27/16/23 29/1/23 32/1/23 31/16/23
f 32/1/24 29/1/24 33/1/24 35/1/24
f 29/1/25 30/18/25 34/18/25 33/1/25
f 35/1/26 33/1/26 36/1/26 38/1/26
f 27/16/28 31/16/28 41/16/28 39/16/28
f 28/13/29 27/16/29 39/16/29 40/13/29
f 39/16/30 41/16/30 44/16/30 42/16/30
f 40/13/31 39/16/31 42/16/31 43/28/31
f 42/16/32 44/16/32 47/16/32 45/16/32
f 43/28/33 42/16/33 45/16/33 46/28/33
f 38/1/34 36/1/34 48/1/34 50/1/34
f 36/1/35 37/18/35 49/18/35 48/1/35
f 47/29/36 51/29/36 55/29/36 54/29/36
f 45/16/37 47/16/37 54/16/37 52/16/37
f 46/28/38 45/16/38 52/16/38 53/28/38
f 48/1/39 55/29/39 51/29/39 38/1/39 50/1/39
f 38/1/40 51/29/40 63/29/40 59/1/40
f 31/16/41 32/1/41 57/1/41 56/16/41
f 32/1/42 35/1/42 58/1/42 57/1/42
f 41/16/43 31/16/43 56/16/43 60/16/43
f 47/16/44 44/16/44 61/16/44 62/16/44
f 51/29/45 47/29/45 62/29/45 63/29/45
f 44/16/46 41/16/46 60/16/46 61/16/46
f 35/1/47 38/1/47 59/1/47 58/1/47
f 63/29/48 62/29/48 70/29/48 71/29/48
f 62/16/49 61/16/49 69/16/49 70/16/49
f 60/16/50 56/16/50 64/16/50 68/16/50
f 57/1/51 58/1/51 66/1/51 65/1/51
f 59/1/52 63/29/52 71/29/52 67/1/52
f 61/16/53 60/16/53 68/16/53 69/16/53
f 58/1/54 59/1/54 67/1/54 66/1/54
f 56/16/55 57/1/55 65/1/55 64/16/55
f 67/1/56 71/29/56 79/29/56 75/1/56
f 69/16/57 68/16/57 76/16/57 77/16/57
f 66/1/58 67/1/58 75/1/58 74/1/58
f 64/16/59 65/1/59 73/1/59 72/16/59
f 71/29/60 70/29/60 78/29/60 79/29/60
f 70/16/61 69/16/61 77/16/61 78/16/61
f 68/16/62 64/16/62 72/16/62 76/16/62
f 65/1/63 66/1/63 74/1/63 73/1/63
f 74/1/64 75/1/64 83/1/64 82/1/64
f 72/16/65 73/1/65 81/1/65 80/16/65
f 79/29/66 78/29/66 86/29/66 87/29/66
f 78/16/67 77/16/67 85/16/67 86/16/67
f 76/16/68 72/16/68 80/16/68 84/16/68
f 73/1/69 74/1/69 82/1/69 81/1/69
f 75/1/70 79/29/70 87/29/70 83/1/70
f 77/16/71 76/16/71 84/16/71 85/16/71
f 83/1/72 87/29/72 93/29/72 91/1/72
f 82/1/73 83/1/73 91/1/73 90/1/73
f 80/16/74 81/1/74 89/1/74 88/16/74
f 87/29/75 86/29/75 92/29/75 93/29/75
f 81/1/76 82/1/76 90/1/76 89/1/76
f 55/29/77 48/1/77 94/1/77 99/29/77
f 52/16/78 54/16/78 98/16/78 96/16/78
f 54/29/80 55/29/80 99/29/80 98/29/80
f 53/28/81 52/16/81 96/16/81 97/28/81
f 96/16/82 98/16/82 102/16/82 100/16/82
f 97/28/83 96/16/83 100/16/83 101/28/83
f 100/16/84 102/16/84 105/16/84 103/16/84
f 101/28/85 100/16/85 103/16/85 104/28/85
f 103/16/86 105/16/86 108/16/86 106/16/86
f 104/28/87 103/16/87 106/16/87 107/28/87
f 106/16/88 108/16/88 111/16/88 109/16/88
f 107/28/89 106/16/89 109/16/89 110/28/89
f 99/29/90 94/1/90 112/1/90 114/29/90
f 99/29/92 114/29/92 111/16/92 108/16/92 105/16/92 102/16/92 98/16/92
f 109/16/93 111/16/93 124/16/93 126/16/93
f 111/16/94 114/29/94 122/29/94 124/16/94
f 114/29/95 112/1/95 123/1/95 122/29/95
f 110/28/96 109/16/96 126/16/96 121/30/96 116/28/96
f 112/1/97 113/18/97 119/18/97 125/31/97 123/1/97
f 117/16/98 120/29/98 118/1/98 115/16/98
f 116/28/99 121/30/99 125/31/99 119/18/99
f 122/29/100 123/1/100 118/1/100 120/29/100
f 121/30/101 126/16/101 115/16/101
f 123/1/102 125/31/102 118/1/102
f 126/16/103 124/16/103 117/16/103 115/16/103
f 124/16/104 122/29/104 120/29/104 117/16/104
f 125/31/105 121/30/105 115/16/105 118/1/105
f 134/1/106 127/4/106 132/3/106 131/2/106
f 9/13/108 129/16/108 137/15/108 7/14/108
f 129/16/109 134/1/109 131/2/109 137/15/109
f 18/11/110 133/20/110 130/19/110 10/10/110
f 7/14/111 137/15/111 133/20/111 18/11/111
f 137/15/112 131/2/112 138/21/112 133/20/112
f 133/20/113 138/21/113 135/22/113 130/19/113
f 138/21/114 136/24/114 128/23/114 135/22/114
f 131/2/115 132/3/115 136/24/115 138/21/115
f 21/18/118 15/26/118 127/4/118 134/1/118
f 130/19/119 135/22/119 22/9/119 10/27/119
f 135/22/120 128/23/120 16/8/120 22/9/120
f 9/13/121 24/13/121 139/16/121 129/16/121
f 134/1/122 140/1/122 26/18/122 21/18/122
f 129/16/123 139/16/123 140/1/123 134/1/123
f 140/1/124 142/1/124 30/18/124 26/18/124
f 139/16/125 141/16/125 142/1/125 140/1/125
f 24/13/126 28/13/126 141/16/126 139/16/126
f 141/16/127 143/16/127 144/1/127 142/1/127
f 144/1/128 146/1/128 145/1/128 142/1/128
f 142/1/129 145/1/129 34/18/129 30/18/129
f 146/1/130 148/1/130 147/1/130 145/1/130
f 141/16/132 149/16/132 150/16/132 143/16/132
f 28/13/133 40/13/133 149/16/133 141/16/133
f 149/16/134 151/16/134 152/16/134 150/16/134
f 40/13/135 43/28/135 151/16/135 149/16/135
f 151/16/136 153/16/136 154/16/136 152/16/136
f 43/28/137 46/28/137 153/16/137 151/16/137
f 148/1/138 156/1/138 155/1/138 147/1/138
f 147/1/139 155/1/139 49/18/139 37/18/139
f 154/29/140 159/29/140 160/29/140 157/29/140
f 153/16/141 158/16/141 159/16/141 154/16/141
f 46/28/142 53/28/142 158/16/142 153/16/142
f 155/1/143 156/1/143 148/1/143 157/29/143 160/29/143
f 148/1/144 164/1/144 168/29/144 157/29/144
f 143/16/145 161/16/145 162/1/145 144/1/145
f 144/1/146 162/1/146 163/1/146 146/1/146
f 150/16/147 165/16/147 161/16/147 143/16/147
f 154/16/148 167/16/148 166/16/148 152/16/148
f 157/29/149 168/29/149 167/29/149 154/29/149
f 152/16/150 166/16/150 165/16/150 150/16/150
f 146/1/151 163/1/151 164/1/151 148/1/151
f 168/29/152 176/29/152 175/29/152 167/29/152
f 167/16/153 175/16/153 174/16/153 166/16/153
f 165/16/154 173/16/154 169/16/154 161/16/154
f 162/1/155 170/1/155 171/1/155 163/1/155
f 164/1/156 172/1/156 176/29/156 168/29/156
f 166/16/157 174/16/157 173/16/157 165/16/157
f 163/1/158 171/1/158 172/1/158 164/1/158
f 161/16/159 169/16/159 170/1/159 162/1/159
f 172/1/160 180/1/160 184/29/160 176/29/160
f 174/16/161 182/16/161 181/16/161 173/16/161
f 171/1/162 179/1/162 180/1/162 172/1/162
f 169/16/163 177/16/163 178/1/163 170/1/163
f 176/29/164 184/29/164 183/29/164 175/29/164
f 175/16/165 183/16/165 182/16/165 174/16/165
f 173/16/166 181/16/166 177/16/166 169/16/166
f 170/1/167 178/1/167 179/1/167 171/1/167
f 179/1/168 187/1/168 188/1/168 180/1/168
f 177/16/169 185/16/169 186/1/169 178/1/169
f 184/29/170 192/29/170 191/29/170 183/29/170
f 183/16/171 191/16/171 190/16/171 182/16/171
f 181/16/172 189/16/172 185/16/172 177/16/172
f 178/1/173 186/1/173 187/1/173 179/1/173
f 180/1/174 188/1/174 192/29/174 184/29/174
f 182/16/175 190/16/175 189/16/175 181/16/175
f 188/1/176 196/1/176 198/29/176 192/29/176
f 187/1/177 195/1/177 196/1/177 188/1/177
f 185/16/178 193/16/178 194/1/178 186/1/178
f 192/29/179 198/29/179 197/29/179 191/29/179
f 186/1/180 194/1/180 195/1/180 187/1/180
f 160/29/181 202/29/181 199/1/181 155/1/181
f 158/16/182 200/16/182 201/16/182 159/16/182
f 159/29/184 201/29/184 202/29/184 160/29/184
f 53/28/185 97/28/185 200/16/185 158/16/185
f 200/16/186 203/16/186 204/16/186 201/16/186
f 97/28/187 101/28/187 203/16/187 200/16/187
f 203/16/188 205/16/188 206/16/188 204/16/188
f 101/28/189 104/28/189 205/16/189 203/16/189
f 205/16/190 207/16/190 208/16/190 206/16/190
f 104/28/191 107/28/191 207/16/191 205/16/191
f 207/16/192 209/16/192 210/16/192 208/16/192
f 107/28/193 110/28/193 209/16/193 207/16/193
f 202/29/194 212/29/194 211/1/194 199/1/194
f 202/29/196 201/16/196 204/16/196 206/16/196 208/16/196 210/16/196 212/29/196
f 209/16/197 222/16/197 220/16/197 210/16/197
f 210/16/198 220/16/198 218/29/198 212/29/198
f 212/29/199 218/29/199 219/1/199 211/1/199
f 110/28/200 116/28/200 217/30/200 222/16/200 209/16/200
f 211/1/201 219/1/201 221/31/201 119/18/201 113/18/201
f 214/16/202 213/16/202 215/1/202 216/29/202
f 116/28/203 119/18/203 221/31/203 217/30/203
f 218/29/204 216/29/204 215/1/204 219/1/204
f 217/30/205 213/16/205 222/16/205
f 219/1/206 215/1/206 221/31/206
f 222/16/207 213/16/207 214/16/207 220/16/207
f 220/16/208 214/16/208 216/29/208 218/29/208
f 221/31/209 215/1/209 213/16/209 217/30/209
usemtl Material.002
f 1/4/3 8/3/3 5/6/3 15/12/3
f 8/3/12 14/24/12 20/7/12 5/6/12
f 14/24/13 2/23/13 16/25/13 20/7/13
f 33/1/27 34/18/27 37/18/27 36/1/27
f 48/1/79 49/18/79 95/18/79 94/1/79
f 94/1/91 95/18/91 113/18/91 112/1/91
f 127/4/107 15/12/107 5/6/107 132/3/107
f 132/3/116 5/6/116 20/7/116 136/24/116
f 136/24/117 20/7/117 16/25/117 128/23/117
f 145/1/131 147/1/131 37/18/131 34/18/131
f 155/1/183 199/1/183 95/18/183 49/18/183
f 199/1/195 211/1/195 113/18/195 95/18/195
