<?xml version="1.0" encoding="UTF-8" standalone="no"?>
<!DOCTYPE svg PUBLIC "-//W3C//DTD SVG 1.1//EN" "http://www.w3.org/Graphics/SVG/1.1/DTD/svg11.dtd">
<svg width="100%" height="100%" viewBox="0 0 794 1123" version="1.1" xmlns="http://www.w3.org/2000/svg" xmlns:xlink="http://www.w3.org/1999/xlink" xml:space="preserve" xmlns:serif="http://www.serif.com/" style="fill-rule:evenodd;clip-rule:evenodd;stroke-linecap:round;stroke-linejoin:round;stroke-miterlimit:1.5;">
    <g transform="matrix(0.32,0,0,0.32,0,0)">
        <g transform="matrix(1.34043,0,0,1.51221,-714.576,-1189.56)">
            <ellipse cx="1458.79" cy="2385.84" rx="453.007" ry="224.285" style="fill:rgb(255,231,229);stroke:rgb(255,3,0);stroke-width:84.56px;"/>
        </g>
        <g transform="matrix(1.67008,0,0,1.67008,-1001.73,-1599.61)">
            <path d="M934.641,1407.12L993.821,1580.62L1185.33,1580.62L1030.4,1687.85L1089.58,1861.34L934.641,1754.12L779.708,1861.34L838.887,1687.85L683.953,1580.62L875.462,1580.62L934.641,1407.12Z" style="fill:rgb(255,231,229);stroke:rgb(255,3,0);stroke-width:72.35px;"/>
        </g>
        <g transform="matrix(1.67008,0,0,1.67008,360.188,-1599.61)">
            <path d="M934.641,1407.12L993.821,1580.62L1185.33,1580.62L1030.4,1687.85L1089.58,1861.34L934.641,1754.12L779.708,1861.34L838.887,1687.85L683.953,1580.62L875.462,1580.62L934.641,1407.12Z" style="fill:rgb(255,231,229);stroke:rgb(255,3,0);stroke-width:72.35px;"/>
        </g>
    </g>
</svg>
