<?xml version="1.0" encoding="UTF-8" standalone="no"?>
<!DOCTYPE svg PUBLIC "-//W3C//DTD SVG 1.1//EN" "http://www.w3.org/Graphics/SVG/1.1/DTD/svg11.dtd">
<svg width="100%" height="100%" viewBox="0 0 794 1123" version="1.1" xmlns="http://www.w3.org/2000/svg" xmlns:xlink="http://www.w3.org/1999/xlink" xml:space="preserve" xmlns:serif="http://www.serif.com/" style="fill-rule:evenodd;clip-rule:evenodd;stroke-linecap:round;stroke-linejoin:round;stroke-miterlimit:1.5;">
    <g transform="matrix(0.32,0,0,0.32,0,0)">
        <g transform="matrix(1,0,0,1,-6.03916,-361.103)">
            <ellipse cx="1246.2" cy="1086.29" rx="415.048" ry="529.877" style="fill:rgb(255,214,121);fill-opacity:0;stroke:black;stroke-width:31.25px;"/>
        </g>
        <g transform="matrix(1,0,0,1,48.2521,-44.2292)">
            <path d="M1995.28,1889.69L388.527,1889.69L790.216,1299.29L1593.6,1299.29L1995.28,1889.69Z" style="fill:rgb(121,255,172);stroke:black;stroke-width:31.25px;"/>
        </g>
        <g transform="matrix(1,0,0,1,-167.665,-438.366)">
            <path d="M1181.18,2752.29C1181.18,2697.32 1282.73,2652.68 1407.82,2652.68C1532.91,2652.68 1634.47,2697.32 1634.47,2752.29C1697.01,2704.68 1835.74,2688.34 1944.07,2715.83C2052.4,2743.32 2089.57,2804.29 2027.03,2851.9C2135.36,2824.41 2274.08,2840.75 2336.63,2888.36C2399.17,2935.97 2362,2996.94 2253.67,3024.43C2378.76,3024.43 2480.32,3069.07 2480.32,3124.04C2480.32,3179.02 2378.76,3223.65 2253.67,3223.65C2362,3251.14 2399.17,3312.11 2336.63,3359.72C2274.08,3407.33 2135.36,3423.67 2027.03,3396.18C2089.57,3443.79 2052.4,3504.76 1944.07,3532.25C1835.74,3559.74 1697.01,3543.4 1634.47,3495.79C1634.47,3550.77 1532.91,3595.4 1407.82,3595.4C1282.73,3595.4 1181.18,3550.77 1181.18,3495.79C1118.63,3543.4 979.905,3559.74 871.576,3532.25C763.246,3504.76 726.074,3443.79 788.618,3396.18C680.288,3423.67 541.56,3407.33 479.016,3359.72C416.472,3312.11 453.644,3251.14 561.974,3223.65C436.885,3223.65 335.329,3179.02 335.329,3124.04C335.329,3069.07 436.885,3024.43 561.974,3024.43C453.644,2996.94 416.472,2935.97 479.016,2888.36C541.56,2840.75 680.288,2824.41 788.618,2851.9C726.074,2804.29 763.246,2743.32 871.576,2715.83C979.905,2688.34 1118.63,2704.68 1181.18,2752.29Z" style="fill:rgb(245,38,231);stroke:black;stroke-width:31.25px;"/>
        </g>
        <g transform="matrix(-0.836394,0,0,-0.836394,2237.06,3425.99)">
            <path d="M1995.28,1889.69L388.527,1889.69L790.216,1299.29L1593.6,1299.29L1995.28,1889.69Z" style="fill:rgb(245,103,38);stroke:black;stroke-width:37.36px;"/>
        </g>
        <g transform="matrix(1,0,0,1,-4.89056,0)">
            <rect x="919.717" y="2339.27" width="650.661" height="346.407" style="fill:rgb(38,139,245);stroke:black;stroke-width:31.25px;"/>
        </g>
        <g transform="matrix(0.258819,-0.965926,0.875331,0.234544,239.672,1018.87)">
            <path d="M636.287,325.466L737.168,498.952L535.407,498.952L636.287,325.466Z" style="fill:rgb(245,38,46);stroke:black;stroke-width:32.75px;"/>
        </g>
        <g transform="matrix(0.596108,-0.802904,0.727599,0.540198,205.54,584.197)">
            <path d="M636.287,325.466L737.168,498.952L535.407,498.952L636.287,325.466Z" style="fill:rgb(245,38,231);stroke:black;stroke-width:32.75px;"/>
        </g>
        <path d="M677.44,1472.94C649.554,1427.05 491.71,1167.34 345.745,889.446" style="fill:none;stroke:black;stroke-width:31.25px;"/>
        <path d="M1803.4,1486.75C1804.79,1303.72 1794.87,1302.79 1857.97,1017.23C1859.39,1010.82 1892.39,906.944 1925.99,832.866" style="fill:none;stroke:black;stroke-width:31.25px;"/>
        <path d="M920.142,3125.95C886.324,3263.51 876.896,3285.78 871.287,3299.03" style="fill:none;stroke:black;stroke-width:31.25px;"/>
        <path d="M1663.89,3127.1C1670.81,3171.57 1746.9,3271.68 1787.91,3329.65" style="fill:none;stroke:black;stroke-width:31.25px;"/>
        <path d="M2021.18,3276.93L2021.7,3276.93" style="fill:none;stroke:black;stroke-width:31.25px;"/>
    </g>
</svg>
