<?xml version="1.0" encoding="UTF-8" standalone="no"?>
<!DOCTYPE svg PUBLIC "-//W3C//DTD SVG 1.1//EN" "http://www.w3.org/Graphics/SVG/1.1/DTD/svg11.dtd">
<svg width="100%" height="100%" viewBox="0 0 794 1123" version="1.1" xmlns="http://www.w3.org/2000/svg" xmlns:xlink="http://www.w3.org/1999/xlink" xml:space="preserve" xmlns:serif="http://www.serif.com/" style="fill-rule:evenodd;clip-rule:evenodd;stroke-linecap:round;stroke-linejoin:round;stroke-miterlimit:1.5;">
    <g transform="matrix(0.32,0,0,0.32,0,0)">
        <g transform="matrix(1.31226,0,0,1.31226,-494.205,-907.705)">
            <path d="M598.059,1090.91L2045.25,1090.91C2118.59,1280.9 2157.19,1496.43 2157.19,1715.82C2157.19,2405.62 1782.8,2965.66 1321.66,2965.66C860.51,2965.66 486.119,2405.62 486.119,1715.82C486.119,1496.43 524.726,1280.9 598.059,1090.91ZM1655.44,1432.3C1642.85,1431.95 1633.06,1431.95 1630.4,1431.95C1633.06,1431.95 1642.85,1431.95 1655.44,1432.3L1658.03,1432.89C1543.72,1439.06 1467.15,1685.01 1632.24,1750.67C1681.06,1770.09 1993.74,1851.03 1988.58,1630.18C1987.62,1589.06 1926.65,1481.67 1729.98,1441.19C1721.95,1437.43 1705.31,1435.21 1687.85,1433.88C1672.13,1431.64 1655.67,1429.81 1638.43,1428.42L1655.44,1432.3ZM957.65,2272.63C1009.75,2604.54 1434.86,2658.16 1501.15,2627.07C1536.9,2610.31 2055.19,2251.17 1484.93,2163.96C1349.43,2143.23 1349.28,2143.57 1215.77,2179.58C1072.01,2218.35 1064.47,2183.36 938.963,2239.46L957.65,2272.63ZM1028.08,1791.46C1088.25,1776.77 1181.31,1734.65 1199.79,1678.34C1286.89,1600.29 1142.54,1502.73 1063.59,1500.76C1049.34,1500.41 1035.68,1500.13 1022.59,1499.94C939.173,1452.93 749.466,1483.19 704.03,1511.95C639.091,1553.05 755.375,1818.92 859.45,1822.21C923.693,1824.25 977.878,1812.89 1028.08,1791.46Z" style="fill:url(#_Linear1);stroke:rgb(255,66,117);stroke-width:23.81px;"/>
        </g>
    </g>
    <defs>
        <linearGradient id="_Linear1" x1="0" y1="0" x2="1" y2="0" gradientUnits="userSpaceOnUse" gradientTransform="matrix(1671.07,0,0,1874.75,486.119,2028.28)"><stop offset="0" style="stop-color:rgb(255,185,185);stop-opacity:1"/><stop offset="1" style="stop-color:rgb(255,121,228);stop-opacity:1"/></linearGradient>
    </defs>
</svg>
