# Blender 4.4.3
# www.blender.org
mtllib tv.mtl
o Cube
v 2.254704 1.000000 -1.000000
v 2.254704 -1.000000 -1.000000
v 2.254704 1.000000 1.000000
v 2.254704 -1.000000 1.000000
v -2.254704 1.000000 -1.000000
v -2.254704 -1.000000 -1.000000
v -2.254704 1.000000 1.000000
v -2.254704 -1.000000 1.000000
v 2.254704 0.000000 -1.000000
v -2.254704 0.000000 1.000000
v 2.254704 0.000000 1.000000
v -2.254704 0.000000 -1.000000
vn -0.0000 1.0000 -0.0000
vn -0.0000 -0.0000 1.0000
vn -1.0000 -0.0000 -0.0000
vn -0.0000 -1.0000 -0.0000
vn 1.0000 -0.0000 -0.0000
vn -0.0000 -0.0000 -1.0000
vt 0.625000 0.500000
vt 0.875000 0.500000
vt 0.875000 0.750000
vt 0.625000 0.750000
vt 0.500000 0.750000
vt 0.625000 1.000000
vt 0.500000 1.000000
vt 0.500000 0.000000
vt 0.625000 0.000000
vt 0.625000 0.250000
vt 0.500000 0.250000
vt 0.125000 0.500000
vt 0.375000 0.500000
vt 0.375000 0.750000
vt 0.125000 0.750000
vt 0.500000 0.500000
vt 0.375000 0.250000
vt 0.375000 0.000000
vt 0.375000 1.000000
s 0
usemtl Material
f 1/1/1 5/2/1 7/3/1 3/4/1
f 11/5/2 3/4/2 7/6/2 10/7/2
f 10/8/3 7/9/3 5/10/3 12/11/3
f 6/12/4 2/13/4 4/14/4 8/15/4
f 9/16/5 1/1/5 3/4/5 11/5/5
f 12/11/6 5/10/6 1/1/6 9/16/6
f 6/17/6 12/11/6 9/16/6 2/13/6
f 2/13/5 9/16/5 11/5/5 4/14/5
f 8/18/3 10/8/3 12/11/3 6/17/3
usemtl Material.001
f 4/14/2 11/5/2 10/7/2 8/19/2
o Cube.001
v -2.047851 1.237324 -0.198035
v -2.047851 3.237324 -0.198035
v -2.047851 1.237324 -0.437431
v -2.047851 3.237324 -0.437431
v 2.047851 1.237324 -0.198035
v 2.047851 3.237324 -0.198035
v 2.047851 1.237324 -0.437431
v 2.047851 3.237324 -0.437431
vn -1.0000 -0.0000 -0.0000
vn -0.0000 -0.0000 -1.0000
vn 1.0000 -0.0000 -0.0000
vn -0.0000 -0.0000 1.0000
vn -0.0000 -1.0000 -0.0000
vn -0.0000 1.0000 -0.0000
vt 0.375000 0.000000
vt 0.625000 0.000000
vt 0.625000 0.250000
vt 0.375000 0.250000
vt 0.625000 0.500000
vt 0.375000 0.500000
vt 0.625000 0.750000
vt 0.375000 0.750000
vt 0.625000 1.000000
vt 0.375000 1.000000
vt 0.125000 0.500000
vt 0.125000 0.750000
vt 0.875000 0.500000
vt 0.875000 0.750000
s 0
usemtl Material.002
f 13/20/7 14/21/7 16/22/7 15/23/7
f 15/23/8 16/22/8 20/24/8 19/25/8
f 19/25/9 20/24/9 18/26/9 17/27/9
f 17/27/10 18/26/10 14/28/10 13/29/10
f 15/30/11 19/25/11 17/27/11 13/31/11
f 20/24/12 16/32/12 14/33/12 18/26/12
o Cube.002
v -1.899515 1.309759 -0.140587
v -1.899515 3.164889 -0.140587
v -1.899515 1.309759 -0.362642
v -1.899515 3.164889 -0.362642
v 1.899515 1.309759 -0.140587
v 1.899515 3.164889 -0.140587
v 1.899515 1.309759 -0.362642
v 1.899515 3.164889 -0.362642
vn -1.0000 -0.0000 -0.0000
vn -0.0000 -0.0000 -1.0000
vn 1.0000 -0.0000 -0.0000
vn -0.0000 -0.0000 1.0000
vn -0.0000 -1.0000 -0.0000
vn -0.0000 1.0000 -0.0000
vt 0.375000 0.000000
vt 0.625000 0.000000
vt 0.625000 0.250000
vt 0.375000 0.250000
vt 0.625000 0.500000
vt 0.375000 0.500000
vt 0.625000 0.750000
vt 0.375000 0.750000
vt 0.625000 1.000000
vt 0.375000 1.000000
vt 0.125000 0.500000
vt 0.125000 0.750000
vt 0.875000 0.500000
vt 0.875000 0.750000
s 0
usemtl Material.003
f 21/34/13 22/35/13 24/36/13 23/37/13
f 23/37/14 24/36/14 28/38/14 27/39/14
f 27/39/15 28/38/15 26/40/15 25/41/15
f 25/41/16 26/40/16 22/42/16 21/43/16
f 23/44/17 27/39/17 25/41/17 21/45/17
f 28/38/18 24/46/18 22/47/18 26/40/18
o Cube.003
v -0.328615 0.975269 -0.298525
v -0.328615 1.296206 -0.298525
v -0.328615 0.975269 -0.336941
v -0.328615 1.296206 -0.336941
v 0.328615 0.975269 -0.298525
v 0.328615 1.296206 -0.298525
v 0.328615 0.975269 -0.336941
v 0.328615 1.296206 -0.336941
vn -1.0000 -0.0000 -0.0000
vn -0.0000 -0.0000 -1.0000
vn 1.0000 -0.0000 -0.0000
vn -0.0000 -0.0000 1.0000
vn -0.0000 -1.0000 -0.0000
vn -0.0000 1.0000 -0.0000
vt 0.375000 0.000000
vt 0.625000 0.000000
vt 0.625000 0.250000
vt 0.375000 0.250000
vt 0.625000 0.500000
vt 0.375000 0.500000
vt 0.625000 0.750000
vt 0.375000 0.750000
vt 0.625000 1.000000
vt 0.375000 1.000000
vt 0.125000 0.500000
vt 0.125000 0.750000
vt 0.875000 0.500000
vt 0.875000 0.750000
s 0
usemtl Material.002
f 29/48/19 30/49/19 32/50/19 31/51/19
f 31/51/20 32/50/20 36/52/20 35/53/20
f 35/53/21 36/52/21 34/54/21 33/55/21
f 33/55/22 34/54/22 30/56/22 29/57/22
f 31/58/23 35/53/23 33/55/23 29/59/23
f 36/52/24 32/60/24 30/61/24 34/54/24
