# Blender 4.4.3
# www.blender.org
mtllib whiteboard.mtl
o Cube
v 3.754200 2.731582 0.073198
v 3.754200 -2.731582 0.073198
v 3.754200 2.731582 -0.073198
v 3.754200 -2.731582 -0.073198
v -3.754200 2.731582 0.073198
v -3.754200 -2.731582 0.073198
v -3.754200 2.731582 -0.073198
v -3.754200 -2.731582 -0.073198
vn -0.0000 1.0000 -0.0000
vn -0.0000 -0.0000 -1.0000
vn -1.0000 -0.0000 -0.0000
vn -0.0000 -1.0000 -0.0000
vn 1.0000 -0.0000 -0.0000
vn -0.0000 -0.0000 1.0000
vt 0.625000 0.500000
vt 0.875000 0.500000
vt 0.875000 0.750000
vt 0.625000 0.750000
vt 0.375000 0.750000
vt 0.625000 1.000000
vt 0.375000 1.000000
vt 0.375000 0.000000
vt 0.625000 0.000000
vt 0.625000 0.250000
vt 0.375000 0.250000
vt 0.125000 0.500000
vt 0.375000 0.500000
vt 0.125000 0.750000
s 0
usemtl Material.002
f 1/1/1 3/4/1 7/3/1 5/2/1
f 4/5/2 8/7/2 7/6/2 3/4/2
f 8/8/3 6/11/3 5/10/3 7/9/3
f 6/12/4 8/14/4 4/5/4 2/13/4
f 2/13/5 4/5/5 3/4/5 1/1/5
f 6/11/6 2/13/6 1/1/6 5/10/6
o Cube.001
v 3.251204 0.481485 -0.058570
v 3.251204 -4.249712 -0.058570
v 3.251204 0.481485 -0.185351
v 3.251204 -4.249712 -0.185351
v -3.251204 0.481485 -0.058570
v -3.251204 -4.249712 -0.058570
v -3.251204 0.481485 -0.185351
v -3.251204 -4.249712 -0.185351
v 3.251204 -1.884114 -0.058570
v -3.251204 -1.884114 -0.185351
v 3.251204 -1.884114 -0.185351
v -3.251204 -1.884114 -0.058570
v 0.000000 -4.249712 -0.058570
v 0.000000 0.481485 -0.185351
v 0.000000 -4.249712 -0.185351
v 0.000000 0.481485 -0.058570
v -1.625602 -4.249712 -0.058570
v -1.625602 0.481485 -0.185351
v -1.625602 -4.249712 -0.185351
v -1.625602 0.481485 -0.058570
v -2.438403 -4.249712 -0.058570
v -2.438403 0.481485 -0.185351
v -2.438403 -4.249712 -0.185351
v -2.438403 0.481485 -0.058570
v 1.625602 -4.249712 -0.185351
v 1.625602 0.481485 -0.058570
v 1.625602 -4.249712 -0.058570
v 1.625602 0.481485 -0.185351
v 2.438403 -4.249712 -0.185351
v 2.438403 0.481485 -0.058570
v 2.438403 -4.249712 -0.058570
v 2.438403 0.481485 -0.185351
v 2.844804 -4.249712 -0.185351
v 2.844804 0.481485 -0.058570
v 2.844804 -4.249712 -0.058570
v 2.844804 0.481485 -0.185351
v 3.048004 -4.249712 -0.185351
v 3.048004 0.481485 -0.058570
v 3.048004 -1.884114 -0.058570
v 3.048004 -4.249712 -0.058570
v 3.048004 0.481485 -0.185351
v 3.048004 -1.884114 -0.185351
v -2.844804 -4.249712 -0.058570
v -2.844804 0.481485 -0.185351
v -2.844804 -4.249712 -0.185351
v -2.844804 0.481485 -0.058570
v -3.048004 -4.249712 -0.058570
v -3.048004 0.481485 -0.185351
v -3.048004 -1.884114 -0.185351
v -3.048004 -4.249712 -0.185351
v -3.048004 0.481485 -0.058570
v -3.048004 -1.884114 -0.058570
v -3.251204 -0.701314 -0.185351
v 3.251204 -0.701314 -0.058570
v 3.251204 -0.701314 -0.185351
v -3.251204 -0.701314 -0.058570
v 3.048004 -0.701314 -0.185351
v 3.048004 -0.701314 -0.058570
v -3.048004 -0.701314 -0.058570
v -3.048004 -0.701314 -0.185351
v -3.251204 -0.109915 -0.185351
v 3.251204 -0.109915 -0.058570
v 3.251204 -0.109915 -0.185351
v -3.251204 -0.109915 -0.058570
v 3.048004 -0.109915 -0.185351
v 3.048004 -0.109915 -0.058570
v -3.048004 -0.109915 -0.058570
v -3.048004 -0.109915 -0.185351
v -3.251204 0.185785 -0.185351
v 3.251204 0.185785 -0.058570
v 3.251204 0.185785 -0.185351
v -3.251204 0.185785 -0.058570
v 0.000000 0.185785 -0.058570
v 0.000000 0.185785 -0.185351
v -1.625602 0.185785 -0.058570
v -1.625602 0.185785 -0.185351
v -2.438403 0.185785 -0.058570
v -2.438403 0.185785 -0.185351
v 1.625602 0.185785 -0.185351
v 1.625602 0.185785 -0.058570
v 2.438403 0.185785 -0.185351
v 2.438403 0.185785 -0.058570
v 2.844804 0.185785 -0.185351
v 2.844804 0.185785 -0.058570
v 3.048004 0.185785 -0.185351
v 3.048004 0.185785 -0.058570
v -2.844804 0.185785 -0.058570
v -2.844804 0.185785 -0.185351
v -3.048004 0.185785 -0.058570
v -3.048004 0.185785 -0.185351
v 3.251204 -3.066913 -0.058570
v 3.251204 -3.066913 -0.185351
v -3.251204 -3.066913 -0.058570
v -3.251204 -3.066913 -0.185351
v 3.048004 -3.066913 -0.185351
v 3.048004 -3.066913 -0.058570
v -3.048004 -3.066913 -0.058570
v -3.048004 -3.066913 -0.185351
v 3.251204 -3.658313 -0.058570
v 3.251204 -3.658313 -0.185351
v -3.251204 -3.658313 -0.058570
v 3.048004 -3.658313 -0.185351
v 3.048004 -3.658313 -0.058570
v -3.048004 -3.658313 -0.058570
v -3.048004 -3.658313 -0.185351
v -3.251204 -3.658313 -0.185351
v 3.251204 -3.954012 -0.058570
v 3.251204 -3.954012 -0.185351
v -3.251204 -3.954012 -0.058570
v 0.000000 -3.954012 -0.185351
v 0.000000 -3.954012 -0.058570
v -1.625602 -3.954012 -0.058570
v -1.625602 -3.954012 -0.185351
v -2.438403 -3.954012 -0.058570
v -2.438403 -3.954012 -0.185351
v 1.625602 -3.954012 -0.185351
v 1.625602 -3.954012 -0.058570
v 2.438403 -3.954012 -0.185351
v 2.438403 -3.954012 -0.058570
v 2.844804 -3.954012 -0.185351
v 2.844804 -3.954012 -0.058570
v 3.048004 -3.954012 -0.185351
v 3.048004 -3.954012 -0.058570
v -2.844804 -3.954012 -0.058570
v -2.844804 -3.954012 -0.185351
v -3.048004 -3.954012 -0.058570
v -3.048004 -3.954012 -0.185351
v -3.251204 -3.954012 -0.185351
vn -0.0000 1.0000 -0.0000
vn -0.0000 -0.0000 -1.0000
vn -1.0000 -0.0000 -0.0000
vn -0.0000 -1.0000 -0.0000
vn 1.0000 -0.0000 -0.0000
vn -0.0000 -0.0000 1.0000
vt 0.867188 0.500000
vt 0.875000 0.500000
vt 0.875000 0.750000
vt 0.867188 0.750000
vt 0.609375 0.992188
vt 0.625000 0.992188
vt 0.625000 1.000000
vt 0.609375 1.000000
vt 0.609375 0.000000
vt 0.625000 0.000000
vt 0.625000 0.250000
vt 0.609375 0.250000
vt 0.367188 0.500000
vt 0.375000 0.500000
vt 0.375000 0.750000
vt 0.367188 0.750000
vt 0.609375 0.500000
vt 0.625000 0.500000
vt 0.625000 0.750000
vt 0.609375 0.750000
vt 0.609375 0.492188
vt 0.625000 0.492188
vt 0.437500 0.492188
vt 0.500000 0.492188
vt 0.500000 0.500000
vt 0.437500 0.500000
vt 0.500000 0.750000
vt 0.437500 0.750000
vt 0.437500 0.000000
vt 0.500000 0.000000
vt 0.500000 0.250000
vt 0.437500 0.250000
vt 0.437500 0.992188
vt 0.500000 0.992188
vt 0.500000 1.000000
vt 0.437500 1.000000
vt 0.609375 0.312500
vt 0.625000 0.312500
vt 0.625000 0.375000
vt 0.609375 0.375000
vt 0.187500 0.500000
vt 0.250000 0.500000
vt 0.250000 0.750000
vt 0.187500 0.750000
vt 0.609375 0.812500
vt 0.625000 0.812500
vt 0.625000 0.875000
vt 0.609375 0.875000
vt 0.687500 0.500000
vt 0.750000 0.500000
vt 0.750000 0.750000
vt 0.687500 0.750000
vt 0.156250 0.500000
vt 0.156250 0.750000
vt 0.609375 0.281250
vt 0.625000 0.281250
vt 0.625000 0.937500
vt 0.609375 0.937500
vt 0.812500 0.500000
vt 0.812500 0.750000
vt 0.609375 0.265625
vt 0.625000 0.265625
vt 0.140625 0.500000
vt 0.140625 0.750000
vt 0.625000 0.968750
vt 0.609375 0.968750
vt 0.843750 0.500000
vt 0.843750 0.750000
vt 0.656250 0.500000
vt 0.656250 0.750000
vt 0.609375 0.781250
vt 0.625000 0.781250
vt 0.625000 0.437500
vt 0.609375 0.437500
vt 0.312500 0.500000
vt 0.312500 0.750000
vt 0.609375 0.765625
vt 0.625000 0.765625
vt 0.640625 0.500000
vt 0.640625 0.750000
vt 0.625000 0.468750
vt 0.609375 0.468750
vt 0.343750 0.500000
vt 0.343750 0.750000
vt 0.632812 0.500000
vt 0.632812 0.750000
vt 0.609375 0.757812
vt 0.625000 0.757812
vt 0.625000 0.484375
vt 0.609375 0.484375
vt 0.359375 0.500000
vt 0.359375 0.750000
vt 0.500000 0.757812
vt 0.437500 0.757812
vt 0.132812 0.500000
vt 0.132812 0.750000
vt 0.609375 0.257812
vt 0.625000 0.257812
vt 0.625000 0.984375
vt 0.609375 0.984375
vt 0.859375 0.500000
vt 0.859375 0.750000
vt 0.500000 0.257812
vt 0.437500 0.257812
vt 0.125000 0.500000
vt 0.125000 0.750000
vt 0.562500 0.250000
vt 0.562500 0.257812
vt 0.562500 0.750000
vt 0.562500 0.757812
vt 0.562500 0.492188
vt 0.562500 0.500000
vt 0.562500 0.000000
vt 0.562500 0.992188
vt 0.562500 1.000000
vt 0.593750 0.250000
vt 0.593750 0.257812
vt 0.593750 0.750000
vt 0.593750 0.757812
vt 0.593750 0.492188
vt 0.593750 0.500000
vt 0.593750 0.000000
vt 0.593750 0.992188
vt 0.593750 1.000000
vt 0.406250 0.250000
vt 0.406250 0.257812
vt 0.406250 0.750000
vt 0.406250 0.757812
vt 0.406250 0.992188
vt 0.406250 1.000000
vt 0.406250 0.000000
vt 0.406250 0.500000
vt 0.406250 0.492188
vt 0.390625 0.492188
vt 0.390625 0.500000
vt 0.390625 0.750000
vt 0.390625 0.000000
vt 0.390625 0.250000
vt 0.390625 0.992188
vt 0.390625 1.000000
vt 0.390625 0.757812
vt 0.390625 0.257812
vt 0.375000 0.984375
vt 0.390625 0.984375
vt 0.375000 0.992188
vt 0.375000 0.250000
vt 0.375000 0.257812
vt 0.375000 0.968750
vt 0.390625 0.968750
vt 0.390625 0.265625
vt 0.375000 0.265625
vt 0.375000 0.484375
vt 0.390625 0.484375
vt 0.375000 0.492188
vt 0.375000 0.757812
vt 0.375000 0.468750
vt 0.390625 0.468750
vt 0.390625 0.765625
vt 0.375000 0.765625
vt 0.375000 0.437500
vt 0.390625 0.437500
vt 0.390625 0.781250
vt 0.375000 0.781250
vt 0.375000 0.375000
vt 0.390625 0.375000
vt 0.390625 0.812500
vt 0.375000 0.812500
vt 0.375000 0.937500
vt 0.390625 0.937500
vt 0.390625 0.281250
vt 0.375000 0.281250
vt 0.375000 0.875000
vt 0.390625 0.875000
vt 0.390625 0.312500
vt 0.375000 0.312500
vt 0.375000 1.000000
vt 0.375000 0.000000
s 0
usemtl Material
f 59/15/7 56/18/7 15/17/7 13/16/7
f 98/19/8 77/22/8 15/21/8 56/20/8
f 77/23/9 80/26/9 13/25/9 15/24/9
f 48/27/10 45/30/10 12/29/10 10/28/10
f 78/31/11 79/34/11 11/33/11 9/32/11
f 94/35/12 78/31/12 9/32/12 46/36/12
f 104/37/12 99/40/12 17/39/12 47/38/12
f 99/40/11 100/42/11 19/41/11 17/39/11
f 102/43/9 101/46/9 20/45/9 18/44/9
f 106/47/8 102/50/8 18/49/8 57/48/8
f 83/51/12 81/54/12 24/53/12 28/52/12
f 25/55/10 27/58/10 23/57/10 21/56/10
f 87/59/8 82/62/8 22/61/8 36/60/8
f 34/63/7 36/66/7 22/65/7 24/64/7
f 29/67/10 31/68/10 27/58/10 25/55/10
f 85/69/12 83/51/12 28/52/12 32/70/12
f 82/62/8 84/72/8 26/71/8 22/61/8
f 24/64/7 22/65/7 26/74/7 28/73/7
f 95/75/12 85/69/12 32/70/12 54/76/12
f 51/77/10 53/78/10 31/68/10 29/67/10
f 84/72/8 86/80/8 30/79/8 26/71/8
f 28/73/7 26/74/7 30/82/7 32/81/7
f 38/83/7 40/84/7 36/66/7 34/63/7
f 89/85/8 87/59/8 36/60/8 40/86/8
f 81/54/12 88/88/12 34/87/12 24/53/12
f 21/56/10 23/57/10 33/90/10 35/89/10
f 91/91/8 89/85/8 40/86/8 44/92/8
f 42/93/7 44/94/7 40/84/7 38/83/7
f 88/88/12 90/96/12 38/95/12 34/87/12
f 35/89/10 33/90/10 37/98/10 39/97/10
f 46/99/7 49/100/7 44/94/7 42/93/7
f 93/101/8 91/91/8 44/92/8 49/102/8
f 90/96/12 92/104/12 42/103/12 38/95/12
f 39/97/10 37/98/10 41/106/10 43/105/10
f 100/42/8 103/108/8 50/107/8 19/41/8
f 79/34/8 93/101/8 49/102/8 11/33/8
f 9/32/7 11/33/7 49/100/7 46/99/7
f 92/104/12 94/35/12 46/36/12 42/103/12
f 43/105/10 41/106/10 45/30/10 48/27/10
f 55/109/10 58/110/10 53/78/10 51/77/10
f 97/111/12 95/75/12 54/76/12 59/112/12
f 86/80/8 96/114/8 52/113/8 30/79/8
f 32/81/7 30/82/7 52/116/7 54/115/7
f 101/46/12 105/118/12 60/117/12 20/45/12
f 80/26/12 97/111/12 59/112/12 13/25/12
f 14/119/10 16/120/10 58/110/10 55/109/10
f 96/114/8 98/19/8 56/20/8 52/113/8
f 54/115/7 52/116/7 56/18/7 59/15/7
f 20/45/12 60/117/12 67/122/12 64/121/12
f 19/41/8 50/107/8 65/124/8 63/123/8
f 47/38/12 17/39/12 62/126/12 66/125/12
f 17/39/11 19/41/11 63/123/11 62/126/11
f 18/44/9 20/45/9 64/121/9 61/127/9
f 57/48/8 18/49/8 61/129/8 68/128/8
f 64/121/12 67/122/12 75/131/12 72/130/12
f 63/123/8 65/124/8 73/133/8 71/132/8
f 66/125/12 62/126/12 70/135/12 74/134/12
f 62/126/11 63/123/11 71/132/11 70/135/11
f 61/127/9 64/121/9 72/130/9 69/136/9
f 68/128/8 61/129/8 69/138/8 76/137/8
f 72/130/12 75/131/12 97/111/12 80/26/12
f 71/132/8 73/133/8 93/101/8 79/34/8
f 74/134/12 70/135/12 78/31/12 94/35/12
f 70/135/11 71/132/11 79/34/11 78/31/11
f 69/136/9 72/130/9 80/26/9 77/23/9
f 76/137/8 69/138/8 77/22/8 98/19/8
f 109/139/12 112/140/12 105/118/12 101/46/12
f 108/141/8 110/142/8 103/108/8 100/42/8
f 113/143/8 114/144/8 102/50/8 106/47/8
f 114/145/9 109/139/9 101/46/9 102/43/9
f 107/146/11 108/141/11 100/42/11 99/40/11
f 111/147/12 107/146/12 99/40/12 104/37/12
f 131/148/12 115/149/12 107/146/12 111/147/12
f 115/149/11 116/150/11 108/141/11 107/146/11
f 136/151/9 117/152/9 109/139/9 114/145/9
f 135/153/8 136/154/8 114/144/8 113/143/8
f 116/150/8 130/155/8 110/142/8 108/141/8
f 117/152/12 134/156/12 112/140/12 109/139/12
f 53/157/8 58/159/8 135/153/8 133/158/8
f 14/160/12 55/161/12 134/156/12 117/152/12
f 31/162/8 53/157/8 133/158/8 123/163/8
f 55/161/12 51/165/12 132/164/12 134/156/12
f 43/166/12 48/168/12 131/148/12 129/167/12
f 12/29/8 45/169/8 130/155/8 116/150/8
f 39/170/12 43/166/12 129/167/12 127/171/12
f 45/169/8 41/173/8 128/172/8 130/155/8
f 35/174/12 39/170/12 127/171/12 125/175/12
f 41/173/8 37/177/8 126/176/8 128/172/8
f 21/178/12 35/174/12 125/175/12 119/179/12
f 37/177/8 33/181/8 124/180/8 126/176/8
f 27/182/8 31/162/8 123/163/8 121/183/8
f 51/165/12 29/185/12 122/184/12 132/164/12
f 23/186/8 27/182/8 121/183/8 118/187/8
f 29/185/12 25/189/12 120/188/12 122/184/12
f 25/189/12 21/178/12 119/179/12 120/188/12
f 33/181/8 23/186/8 118/187/8 124/180/8
f 58/159/8 16/190/8 136/154/8 135/153/8
f 16/191/9 14/160/9 117/152/9 136/151/9
f 10/28/11 12/29/11 116/150/11 115/149/11
f 48/168/12 10/28/12 115/149/12 131/148/12
o Cube.002
v 3.251204 -4.313426 1.215757
v 3.251204 -4.313426 -1.459679
v 3.251204 -4.186646 1.215757
v 3.251204 -4.186645 -1.459679
v -3.251204 -4.313426 1.215757
v -3.251204 -4.313426 -1.459679
v -3.251204 -4.186646 1.215757
v -3.251204 -4.186645 -1.459679
v 3.048004 -4.186645 -1.459679
v 3.048004 -4.313426 1.215757
v 3.048004 -4.313426 -1.459679
v 3.048004 -4.186646 1.215757
v -3.048004 -4.313426 -1.459679
v -3.048004 -4.186646 1.215757
v -3.048004 -4.186645 -1.459679
v -3.048004 -4.313426 1.215757
vn -0.0000 -0.0000 1.0000
vn -0.0000 1.0000 -0.0000
vn -1.0000 -0.0000 -0.0000
vn -0.0000 -0.0000 -1.0000
vn 1.0000 -0.0000 -0.0000
vn -0.0000 -1.0000 -0.0000
vt 0.867188 0.500000
vt 0.875000 0.500000
vt 0.875000 0.750000
vt 0.867188 0.750000
vt 0.375000 0.992188
vt 0.625000 0.992188
vt 0.625000 1.000000
vt 0.375000 1.000000
vt 0.375000 0.000000
vt 0.625000 0.000000
vt 0.625000 0.250000
vt 0.375000 0.250000
vt 0.367188 0.500000
vt 0.375000 0.500000
vt 0.375000 0.750000
vt 0.367188 0.750000
vt 0.625000 0.500000
vt 0.625000 0.750000
vt 0.375000 0.492188
vt 0.625000 0.492188
vt 0.625000 0.757812
vt 0.375000 0.757812
vt 0.632812 0.500000
vt 0.632812 0.750000
vt 0.625000 0.257812
vt 0.375000 0.257812
vt 0.125000 0.500000
vt 0.132812 0.500000
vt 0.132812 0.750000
vt 0.125000 0.750000
s 0
usemtl Material
f 152/192/13 150/195/13 143/194/13 141/193/13
f 151/196/14 144/199/14 143/198/14 150/197/14
f 144/200/15 142/203/15 141/202/15 143/201/15
f 147/204/16 145/207/16 140/206/16 138/205/16
f 138/205/17 140/206/17 139/209/17 137/208/17
f 147/210/18 138/205/18 137/208/18 146/211/18
f 140/206/14 145/213/14 148/212/14 139/209/14
f 137/208/13 139/209/13 148/215/13 146/214/13
f 142/203/18 149/217/18 152/216/18 141/202/18
f 142/218/16 144/221/16 151/220/16 149/219/16
o Cube.003
v 3.646408 2.653152 0.106422
v 3.646408 -2.653152 0.106422
v 3.646408 2.653152 -0.035770
v 3.646408 -2.653152 -0.035770
v -3.646408 2.653152 0.106422
v -3.646408 -2.653152 0.106422
v -3.646408 2.653152 -0.035770
v -3.646408 -2.653152 -0.035770
vn -0.0000 1.0000 -0.0000
vn -0.0000 -0.0000 -1.0000
vn -1.0000 -0.0000 -0.0000
vn -0.0000 -1.0000 -0.0000
vn 1.0000 -0.0000 -0.0000
vn -0.0000 -0.0000 1.0000
vt 0.625000 0.500000
vt 0.875000 0.500000
vt 0.875000 0.750000
vt 0.625000 0.750000
vt 0.375000 0.750000
vt 0.625000 1.000000
vt 0.375000 1.000000
vt 0.375000 0.000000
vt 0.625000 0.000000
vt 0.625000 0.250000
vt 0.375000 0.250000
vt 0.125000 0.500000
vt 0.375000 0.500000
vt 0.125000 0.750000
s 0
usemtl Material.001
f 153/222/19 155/225/19 159/224/19 157/223/19
f 156/226/20 160/228/20 159/227/20 155/225/20
f 160/229/21 158/232/21 157/231/21 159/230/21
f 158/233/22 160/235/22 156/226/22 154/234/22
f 154/234/23 156/226/23 155/225/23 153/222/23
f 158/232/24 154/234/24 153/222/24 157/231/24
