<?xml version="1.0" encoding="UTF-8" standalone="no"?>
<!DOCTYPE svg PUBLIC "-//W3C//DTD SVG 1.1//EN" "http://www.w3.org/Graphics/SVG/1.1/DTD/svg11.dtd">
<svg width="100%" height="100%" viewBox="0 0 100 100" version="1.1" xmlns="http://www.w3.org/2000/svg" xmlns:xlink="http://www.w3.org/1999/xlink" xml:space="preserve" xmlns:serif="http://www.serif.com/" style="fill-rule:evenodd;clip-rule:evenodd;stroke-linecap:round;stroke-linejoin:round;stroke-miterlimit:1.5;">
    <g transform="matrix(0.333333,0,0,0.333333,0,0)">
        <g transform="matrix(6.12323e-17,-1,1,6.12323e-17,-2.40532,297.595)">
            <path d="M295.189,78.608L295.189,226.203C295.189,266.933 262.122,300 221.392,300L73.797,300C33.067,300 0,266.933 0,226.203L0,78.608C0,37.878 33.067,4.811 73.797,4.811L221.392,4.811C262.122,4.811 295.189,37.878 295.189,78.608Z" style="fill:rgb(202,158,107);"/>
        </g>
        <g transform="matrix(7.28205e-17,-0.874545,0.874545,7.28205e-17,-107.128,235.454)">
            <path d="M72.785,154.542C54.452,171.26 39.568,228 39.568,294.014C39.568,360.027 54.452,416.767 72.785,433.485C44.157,433.485 20.915,370.99 20.915,294.014C20.915,217.037 44.157,154.542 72.785,154.542Z"/>
        </g>
        <g transform="matrix(1,0,0,1,-5.5067,-3.59705)">
            <path d="M166.485,88.104L119.068,88.104C116.523,88.104 114.456,86.037 114.456,83.491L114.456,10.615C114.456,8.069 116.523,6.002 119.068,6.002L191.945,6.002C194.491,6.002 196.557,8.069 196.557,10.615L196.557,54.079L166.485,88.104Z" style="fill:rgb(0,159,255);"/>
        </g>
        <g transform="matrix(1.40865,0,0,0.803732,-60.0761,15.1099)">
            <circle cx="149.133" cy="43.927" r="20.24" style="fill:white;fill-opacity:0.47;stroke:black;stroke-opacity:0;stroke-width:9.08px;"/>
        </g>
        <g transform="matrix(1,0,0,1,-5.49144,-5.49144)">
            <circle cx="155.491" cy="55.907" r="5.491" style="fill-opacity:0.47;stroke:black;stroke-opacity:0;stroke-width:10.42px;"/>
        </g>
        <g transform="matrix(0.812022,-0.673268,0.555919,0.670489,-10.5637,131.049)">
            <path d="M195.929,76.479L153.407,84.627L173.913,54.55" style="fill:rgb(0,209,255);"/>
        </g>
        <path d="M23.364,194.482C23.364,194.482 12.203,154.849 16.616,155.093C21.03,155.337 42.7,166.89 42.7,166.89" style="fill:none;stroke:black;stroke-width:10.42px;"/>
        <g transform="matrix(-0.903015,0,0,1,298.29,0)">
            <path d="M23.364,194.482C23.364,194.482 12.203,154.849 16.616,155.093C21.03,155.337 42.7,166.89 42.7,166.89" style="fill:none;stroke:black;stroke-width:10.93px;"/>
        </g>
        <g transform="matrix(-0.989989,-0.141146,0.141146,-0.989989,182.224,414.369)">
            <path d="M105.807,198.639L107.425,202.805L104.189,202.805L105.807,198.639Z" style="fill:rgb(255,0,7);stroke:black;stroke-opacity:0;stroke-width:10.42px;"/>
        </g>
        <g transform="matrix(-0.995674,-0.0929176,0.0929176,-0.995674,196.558,410.962)">
            <path d="M105.807,198.639L107.425,202.805L104.189,202.805L105.807,198.639Z" style="fill:rgb(255,0,7);stroke:black;stroke-opacity:0;stroke-width:10.42px;"/>
        </g>
        <g transform="matrix(-0.997296,-0.0734917,0.0734917,-0.997296,204.459,409.742)">
            <path d="M105.807,198.639L107.425,202.805L104.189,202.805L105.807,198.639Z" style="fill:rgb(255,0,7);stroke:black;stroke-opacity:0;stroke-width:10.42px;"/>
        </g>
        <g transform="matrix(-2.69284,1.39209,-3.05991,-5.91907,1128.51,1258.72)">
            <path d="M103.81,202.274L105.807,198.639C106.025,199.983 105.825,201.308 107.559,202.614" style="fill:rgb(172,0,5);stroke:black;stroke-opacity:0;stroke-width:2.01px;"/>
        </g>
    </g>
</svg>
