<?xml version="1.0" encoding="UTF-8" standalone="no"?>
<!DOCTYPE svg PUBLIC "-//W3C//DTD SVG 1.1//EN" "http://www.w3.org/Graphics/SVG/1.1/DTD/svg11.dtd">
<svg width="100%" height="100%" viewBox="0 0 139 139" version="1.1" xmlns="http://www.w3.org/2000/svg" xmlns:xlink="http://www.w3.org/1999/xlink" xml:space="preserve" xmlns:serif="http://www.serif.com/" style="fill-rule:evenodd;clip-rule:evenodd;stroke-linejoin:round;stroke-miterlimit:2;">
    <g transform="matrix(1.38889,0,0,1.38889,0,0)">
        <g transform="matrix(0.333333,0,0,0.333333,0,0)">
            <g transform="matrix(6.12323e-17,-1,1,6.12323e-17,-2.40532,297.595)">
                <path d="M295.189,78.608L295.189,226.203C295.189,266.933 262.122,300 221.392,300L73.797,300C33.067,300 0,266.933 0,226.203L0,78.608C0,37.878 33.067,4.811 73.797,4.811L221.392,4.811C262.122,4.811 295.189,37.878 295.189,78.608Z" style="fill:url(#_Linear1);"/>
            </g>
            <g transform="matrix(2.40988,1.78676,-1.02842,1.38707,37.4116,-26.9966)">
                <ellipse cx="33.268" cy="17.288" rx="9.846" ry="3.582" style="fill:rgb(198,0,0);"/>
            </g>
            <g transform="matrix(2.76992,1.1522,-0.66318,1.5943,1.86214,-3.17371)">
                <ellipse cx="33.268" cy="17.288" rx="9.846" ry="3.582" style="fill:rgb(198,0,0);"/>
            </g>
            <g transform="matrix(3,0,0,3,2.43214,-22.2097)">
                <ellipse cx="49.189" cy="58.762" rx="37.558" ry="34.612" style="fill:rgb(198,0,0);"/>
            </g>
            <g transform="matrix(2.5676,-1.55159,1.55159,2.5676,-85.234,138.91)">
                <ellipse cx="66.5" cy="70.417" rx="21.058" ry="9.893" style="fill:rgb(241,200,180);"/>
            </g>
            <g transform="matrix(-4.32541,-1.4725,0.404448,-1.18805,497.014,352.546)">
                <path d="M64.432,33.837L72.086,59.969L56.777,59.969L64.432,33.837Z" style="fill:rgb(255,175,0);"/>
            </g>
            <g transform="matrix(-3.53244,-1.20255,0.22847,-0.67112,450.405,302.087)">
                <path d="M64.432,33.837L72.086,59.969L56.777,59.969L64.432,33.837Z" style="fill:rgb(243,153,59);"/>
            </g>
            <g transform="matrix(2.38063,0,0,2.4018,96.4538,29.5535)">
                <circle cx="59.911" cy="47.569" r="9.911" style="fill:white;"/>
            </g>
            <g transform="matrix(3,0,0,3,43.2803,-7.55206)">
                <circle cx="64.336" cy="52.935" r="2.935"/>
            </g>
            <g transform="matrix(-0.776458,2.89778,-2.89778,-0.776458,431.49,19.91)">
                <path d="M64.432,33.837L72.086,59.969L56.777,59.969L64.432,33.837Z" style="fill:rgb(255,175,0);"/>
            </g>
            <g transform="matrix(3,0,0,3,0,9.79824)">
                <circle cx="59.911" cy="47.569" r="9.911" style="fill:white;"/>
            </g>
            <g transform="matrix(3,0,0,3,0,0)">
                <circle cx="64.336" cy="52.935" r="2.935"/>
            </g>
        </g>
    </g>
    <defs>
        <linearGradient id="_Linear1" x1="0" y1="0" x2="1" y2="0" gradientUnits="userSpaceOnUse" gradientTransform="matrix(295.189,0,0,295.189,0,152.406)"><stop offset="0" style="stop-color:white;stop-opacity:1"/><stop offset="1" style="stop-color:rgb(0,184,255);stop-opacity:1"/></linearGradient>
    </defs>
</svg>
