<?xml version="1.0" encoding="UTF-8" standalone="no"?>
<!DOCTYPE svg PUBLIC "-//W3C//DTD SVG 1.1//EN" "http://www.w3.org/Graphics/SVG/1.1/DTD/svg11.dtd">
<svg width="100%" height="100%" viewBox="0 0 100 100" version="1.1" xmlns="http://www.w3.org/2000/svg" xmlns:xlink="http://www.w3.org/1999/xlink" xml:space="preserve" xmlns:serif="http://www.serif.com/" style="fill-rule:evenodd;clip-rule:evenodd;stroke-linecap:round;stroke-linejoin:round;stroke-miterlimit:1.5;">
    <g transform="matrix(0.333333,0,0,0.333333,0,0)">
        <g transform="matrix(6.12323e-17,-1,1,6.12323e-17,-2.40532,297.595)">
            <path d="M295.189,78.608L295.189,226.203C295.189,266.933 262.122,300 221.392,300L73.797,300C33.067,300 0,266.933 0,226.203L0,78.608C0,37.878 33.067,4.811 73.797,4.811L221.392,4.811C262.122,4.811 295.189,37.878 295.189,78.608Z" style="fill:rgb(143,1,41);"/>
        </g>
        <g transform="matrix(1,0,0,1,-4.26628,-0.827755)">
            <path d="M284.766,110.924L284.766,190.731C284.766,212.755 266.885,230.635 244.862,230.635L63.67,230.635C41.647,230.635 23.767,212.755 23.767,190.731L23.767,110.924C23.767,88.901 41.647,71.021 63.67,71.021L244.862,71.021C266.885,71.021 284.766,88.901 284.766,110.924Z" style="fill:rgb(143,1,41);fill-opacity:0;stroke:rgb(255,247,247);stroke-width:18.75px;"/>
        </g>
        <circle cx="227.29" cy="100.001" r="5.043" style="fill:rgb(143,1,41);fill-opacity:0;stroke:rgb(255,247,247);stroke-width:18.75px;"/>
        <g transform="matrix(1,0,0,1,8.80936,-3.30417)">
            <circle cx="141.191" cy="153.304" r="44.956" style="fill:rgb(143,1,41);fill-opacity:0;stroke:rgb(255,247,247);stroke-width:18.75px;"/>
        </g>
    </g>
</svg>
