<?xml version="1.0" encoding="UTF-8" standalone="no"?>
<!DOCTYPE svg PUBLIC "-//W3C//DTD SVG 1.1//EN" "http://www.w3.org/Graphics/SVG/1.1/DTD/svg11.dtd">
<svg width="100%" height="100%" viewBox="0 0 100 100" version="1.1" xmlns="http://www.w3.org/2000/svg" xmlns:xlink="http://www.w3.org/1999/xlink" xml:space="preserve" xmlns:serif="http://www.serif.com/" style="fill-rule:evenodd;clip-rule:evenodd;stroke-linecap:round;stroke-linejoin:round;stroke-miterlimit:1.5;">
    <g transform="matrix(0.333333,0,0,0.333333,0,0)">
        <g transform="matrix(6.12323e-17,-1,1,6.12323e-17,-2.40532,297.595)">
            <path d="M295.189,78.608L295.189,226.203C295.189,266.933 262.122,300 221.392,300L73.797,300C33.067,300 0,266.933 0,226.203L0,78.608C0,37.878 33.067,4.811 73.797,4.811L221.392,4.811C262.122,4.811 295.189,37.878 295.189,78.608Z" style="fill:rgb(17,183,105);"/>
        </g>
        <g transform="matrix(1,0,0,1,-11.8016,-5.74931)">
            <ellipse cx="161.802" cy="155.749" rx="52.629" ry="114.565" style="fill:rgb(0,255,136);fill-opacity:0;stroke:white;stroke-width:3.12px;"/>
        </g>
        <g transform="matrix(0.866025,0.5,-0.5,0.866025,87.7504,-65.7837)">
            <ellipse cx="161.802" cy="155.749" rx="52.629" ry="114.565" style="fill:rgb(0,255,136);fill-opacity:0;stroke:white;stroke-width:3.12px;"/>
        </g>
        <g transform="matrix(0.5,0.866025,-0.866025,0.5,203.982,-67.9989)">
            <ellipse cx="161.802" cy="155.749" rx="52.629" ry="114.565" style="fill:rgb(0,255,136);fill-opacity:0;stroke:white;stroke-width:3.13px;"/>
        </g>
        <g transform="matrix(1.66533e-16,1,-1,1.66533e-16,305.749,-11.8016)">
            <ellipse cx="161.802" cy="155.749" rx="52.629" ry="114.565" style="fill:rgb(0,255,136);fill-opacity:0;stroke:white;stroke-width:3.12px;"/>
        </g>
        <g transform="matrix(-0.5,0.866025,-0.866025,-0.5,365.784,87.7504)">
            <ellipse cx="161.802" cy="155.749" rx="52.629" ry="114.565" style="fill:rgb(0,255,136);fill-opacity:0;stroke:white;stroke-width:3.13px;"/>
        </g>
        <g transform="matrix(-0.866025,0.5,-0.5,-0.866025,367.999,203.982)">
            <ellipse cx="161.802" cy="155.749" rx="52.629" ry="114.565" style="fill:rgb(0,255,136);fill-opacity:0;stroke:white;stroke-width:3.13px;"/>
        </g>
    </g>
</svg>
