<?xml version="1.0" encoding="UTF-8" standalone="no"?>
<!DOCTYPE svg PUBLIC "-//W3C//DTD SVG 1.1//EN" "http://www.w3.org/Graphics/SVG/1.1/DTD/svg11.dtd">
<svg width="100%" height="100%" viewBox="0 0 100 100" version="1.1" xmlns="http://www.w3.org/2000/svg" xmlns:xlink="http://www.w3.org/1999/xlink" xml:space="preserve" xmlns:serif="http://www.serif.com/" style="fill-rule:evenodd;clip-rule:evenodd;stroke-linecap:round;stroke-linejoin:round;stroke-miterlimit:1.5;">
    <g transform="matrix(0.333333,0,0,0.333333,0,0)">
        <g transform="matrix(2.56401,-1.55751,1.55751,2.56401,-46.8624,58.5717)">
            <path d="M69.719,30.216L69.719,90.014C69.719,98.143 63.119,104.743 54.99,104.743L25.533,104.743C17.405,104.743 10.805,98.143 10.805,90.014L10.805,30.216C10.805,22.088 17.405,15.488 25.533,15.488L54.99,15.488C63.119,15.488 69.719,22.088 69.719,30.216Z"/>
        </g>
        <g transform="matrix(3,0,0,3,0,0)">
            <path d="M48.191,53.216C46.099,51.207 45.163,44.426 45.406,39.588" style="fill:none;stroke:rgb(255,163,0);stroke-width:2px;"/>
        </g>
        <g transform="matrix(3,0,0,3,0,0)">
            <path d="M27.837,11.635C34.349,22.389 74.823,86.397 74.823,86.397" style="fill:none;stroke:rgb(255,163,0);stroke-width:2px;"/>
        </g>
        <g transform="matrix(3,0,0,3,-1.76645,0.594946)">
            <path d="M19.282,54.599L69.977,25.899" style="fill:none;stroke:rgb(255,163,0);stroke-width:2px;"/>
        </g>
        <g transform="matrix(2.87972,-0.596763,0.278966,2.67194,-21.7382,57.2973)">
            <path d="M46.787,64.857L51.33,75.096" style="fill:none;stroke:rgb(255,163,0);stroke-width:2.25px;"/>
        </g>
        <g transform="matrix(2.99757,-0.120789,0.120789,2.99757,-9.33365,5.6748)">
            <path d="M40.813,69.976L50,86.397" style="fill:none;stroke:rgb(255,163,0);stroke-width:2px;"/>
        </g>
        <g transform="matrix(3,0,0,3,0,0)">
            <path d="M45.406,39.561C45.406,39.561 40.757,20.833 48.063,20.367C62.219,19.465 50.418,38.842 45.406,39.561C45.406,39.561 60.621,36.493 64.484,37.71C66.812,38.443 68.26,41.701 67.672,44.732C67.121,47.57 63.236,49.416 61.533,49.016C54.911,47.458 45.406,39.561 45.406,39.561Z" style="fill:none;stroke:rgb(255,163,0);stroke-width:2px;"/>
        </g>
        <g transform="matrix(3,0,0,3,0,0)">
            <path d="M43.948,52.09C43.356,48.358 43.789,43.625 45.406,39.588" style="fill:none;stroke:rgb(255,163,0);stroke-width:2px;"/>
        </g>
    </g>
</svg>
