<?xml version="1.0" encoding="UTF-8" standalone="no"?>
<!DOCTYPE svg PUBLIC "-//W3C//DTD SVG 1.1//EN" "http://www.w3.org/Graphics/SVG/1.1/DTD/svg11.dtd">
<svg width="100%" height="100%" viewBox="0 0 139 139" version="1.1" xmlns="http://www.w3.org/2000/svg" xmlns:xlink="http://www.w3.org/1999/xlink" xml:space="preserve" xmlns:serif="http://www.serif.com/" style="fill-rule:evenodd;clip-rule:evenodd;stroke-linejoin:round;stroke-miterlimit:2;">
    <g transform="matrix(1.38889,0,0,1.38889,0,0)">
        <g transform="matrix(0.333333,0,0,0.333333,0,0)">
            <g transform="matrix(6.12323e-17,-1,1,6.12323e-17,-2.40532,297.595)">
                <path d="M295.189,78.608L295.189,226.203C295.189,266.933 262.122,300 221.392,300L73.797,300C33.067,300 0,266.933 0,226.203L0,78.608C0,37.878 33.067,4.811 73.797,4.811L221.392,4.811C262.122,4.811 295.189,37.878 295.189,78.608Z" style="fill:rgb(0,153,34);"/>
            </g>
            <g transform="matrix(-3,3.67394e-16,-3.67394e-16,-3,314.62,455.86)">
                <path d="M60.076,80.403L46.664,80.403C45.984,79.835 45.626,79.191 45.626,78.535C45.626,76.473 49.096,74.798 53.37,74.798C57.643,74.798 61.113,76.473 61.113,78.535C61.113,79.191 60.755,79.835 60.076,80.403Z" style="fill:rgb(255,150,0);"/>
            </g>
            <g transform="matrix(3,0,0,3,-0.632326,0.145878)">
                <path d="M37.865,68.068C34.83,78.77 28.948,84.196 18.065,80.358C13.857,80.358 8.793,64.652 8.793,60.443L8.793,34.48C8.793,32.236 10.993,26.061 13.686,20.783C16.044,16.158 18.781,12.221 20.747,12.221L28.264,26.575C30.883,36.072 42.131,36.365 42.58,36.512C44.483,37.14 54.523,37.997 58.184,36.875C59.984,36.324 70.131,33.587 71.982,26.94L80.746,14.617C84.955,14.617 91.628,30.271 91.628,34.48L91.628,60.443C91.628,64.652 87.515,81.602 83.306,81.602C70.294,84.413 66.095,78.077 65.435,68.068C62.804,65.012 58.855,61.781 54.525,61.542C53.099,61.464 41.413,60.82 37.865,68.068Z" style="fill:rgb(6,200,49);"/>
            </g>
            <g transform="matrix(3.34876,0,0,3,-29.2261,0.145878)">
                <path d="M65.668,71.501L44.066,71.501C42.971,70.177 42.395,68.675 42.395,67.146C42.395,62.339 47.984,58.436 54.867,58.436C61.751,58.436 67.339,62.339 67.339,67.146C67.339,68.675 66.763,70.177 65.668,71.501Z" style="fill:rgb(255,206,0);"/>
            </g>
            <g transform="matrix(2.63939,1.42606,-1.42606,2.63939,109.978,-60.0541)">
                <ellipse cx="58.112" cy="62.869" rx="2.982" ry="1.124" style="fill:rgb(251,218,140);"/>
            </g>
            <g transform="matrix(4.06019,0,0,2.29383,-37.2097,34.5866)">
                <path d="M34.266,49.855L34.266,56.015C34.266,63.883 30.657,70.271 26.212,70.271C21.766,70.271 18.157,63.883 18.157,56.015L18.157,49.855C18.157,41.986 21.766,35.598 26.212,35.598C30.657,35.598 34.266,41.986 34.266,49.855Z" style="fill:white;"/>
            </g>
            <g transform="matrix(4.06019,0,0,2.29383,127.664,34.5866)">
                <path d="M34.266,49.855L34.266,56.015C34.266,63.883 30.657,70.271 26.212,70.271C21.766,70.271 18.157,63.883 18.157,56.015L18.157,49.855C18.157,41.986 21.766,35.598 26.212,35.598C30.657,35.598 34.266,41.986 34.266,49.855Z" style="fill:white;"/>
            </g>
            <g transform="matrix(3,0,0,3,-0.632326,11.868)">
                <circle cx="27.811" cy="54.529" r="4.529"/>
            </g>
            <g transform="matrix(3,0,0,3,143.536,-31.5171)">
                <circle cx="27.811" cy="54.529" r="4.529"/>
            </g>
        </g>
    </g>
</svg>
