<?xml version="1.0" encoding="UTF-8" standalone="no"?>
<!DOCTYPE svg PUBLIC "-//W3C//DTD SVG 1.1//EN" "http://www.w3.org/Graphics/SVG/1.1/DTD/svg11.dtd">
<svg width="100%" height="100%" viewBox="0 0 417 417" version="1.1" xmlns="http://www.w3.org/2000/svg" xmlns:xlink="http://www.w3.org/1999/xlink" xml:space="preserve" xmlns:serif="http://www.serif.com/" style="fill-rule:evenodd;clip-rule:evenodd;stroke-linejoin:round;stroke-miterlimit:2;">
    <g transform="matrix(1.38889,0,0,1.38889,0,0)">
        <g transform="matrix(1,0,0,1,2.40532,-2.40532)">
            <path d="M295.189,78.608L295.189,226.203C295.189,266.933 262.122,300 221.392,300L73.797,300C33.067,300 0,266.933 0,226.203L0,78.608C0,37.878 33.067,4.811 73.797,4.811L221.392,4.811C262.122,4.811 295.189,37.878 295.189,78.608Z" style="fill:rgb(0,255,182);"/>
        </g>
        <g transform="matrix(1.33691,-0.289937,0.211944,0.977282,38.0036,17.4973)">
            <path d="M71.099,23.674C58.692,50.468 48.62,100.684 48.62,156.327C48.62,211.971 58.692,262.187 71.099,288.981C39.614,288.981 14.052,229.541 14.052,156.327C14.052,83.114 39.614,23.674 71.099,23.674Z" style="fill:white;"/>
        </g>
        <g transform="matrix(-0.0768988,-0.997039,0.997039,-0.0768988,67.6212,215.161)">
            <path d="M184.26,107.462L119.461,107.462C116.177,101.775 114.449,95.323 114.449,88.756C114.449,68.108 131.212,51.344 151.861,51.344C172.509,51.344 189.273,68.108 189.273,88.756C189.273,95.323 187.544,101.775 184.26,107.462Z" style="fill:white;"/>
        </g>
        <g transform="matrix(-0.40814,-0.91292,0.91292,-0.40814,165.762,417.932)">
            <path d="M184.26,107.462L119.461,107.462C116.177,101.775 114.449,95.323 114.449,88.756C114.449,68.108 131.212,51.344 151.861,51.344C172.509,51.344 189.273,68.108 189.273,88.756C189.273,95.323 187.544,101.775 184.26,107.462Z" style="fill:white;"/>
        </g>
    </g>
</svg>
