<?xml version="1.0" encoding="UTF-8" standalone="no"?>
<!DOCTYPE svg PUBLIC "-//W3C//DTD SVG 1.1//EN" "http://www.w3.org/Graphics/SVG/1.1/DTD/svg11.dtd">
<svg width="100%" height="100%" viewBox="0 0 100 100" version="1.1" xmlns="http://www.w3.org/2000/svg" xmlns:xlink="http://www.w3.org/1999/xlink" xml:space="preserve" xmlns:serif="http://www.serif.com/" style="fill-rule:evenodd;clip-rule:evenodd;stroke-linecap:round;stroke-linejoin:round;stroke-miterlimit:1.5;">
    <g transform="matrix(0.333333,0,0,0.333333,0,0)">
        <g transform="matrix(6.12323e-17,-1,1,6.12323e-17,-2.40532,297.595)">
            <path d="M295.189,78.608L295.189,226.203C295.189,266.933 262.122,300 221.392,300L73.797,300C33.067,300 0,266.933 0,226.203L0,78.608C0,37.878 33.067,4.811 73.797,4.811L221.392,4.811C262.122,4.811 295.189,37.878 295.189,78.608Z"/>
        </g>
        <g transform="matrix(1,0,0,1,-40.3229,-43.2762)">
            <circle cx="190.323" cy="193.276" r="128.485" style="fill:rgb(0,255,28);stroke:white;stroke-opacity:0;stroke-width:20.83px;"/>
        </g>
        <g transform="matrix(-0.100046,0.994983,-0.994983,-0.100046,386.209,133.904)">
            <path d="M81.54,319.234C68.977,313.497 59.291,277.954 59.291,235.022C59.291,190.552 69.683,154.01 82.901,150.309C83.631,150.104 84.804,150.627 84.65,150.955C77.739,165.622 72.203,198.21 72.203,235.022C72.203,270.568 77.365,302.177 83.943,317.514C84.329,318.414 82.709,319.767 81.54,319.234" style="stroke:white;stroke-opacity:0;stroke-width:20.83px;"/>
        </g>
        <g transform="matrix(-0.089252,0.887636,-0.885199,-0.089007,356.973,158.789)">
            <path d="M81.54,319.234C68.977,313.497 59.291,277.954 59.291,235.022C59.291,190.552 69.683,154.01 82.901,150.309C83.631,150.104 84.804,150.627 84.65,150.955C77.739,165.622 72.203,198.21 72.203,235.022C72.203,270.568 77.365,302.177 83.943,317.514C84.329,318.414 82.709,319.767 81.54,319.234" style="stroke:white;stroke-opacity:0;stroke-width:23.38px;"/>
        </g>
        <g transform="matrix(-0.0805026,0.80062,-0.783117,-0.0787426,327.829,178.607)">
            <path d="M81.54,319.234C68.977,313.497 59.291,277.954 59.291,235.022C59.291,190.552 69.683,154.01 82.901,150.309C83.631,150.104 84.804,150.627 84.65,150.955C77.739,165.622 72.203,198.21 72.203,235.022C72.203,270.568 77.365,302.177 83.943,317.514C84.329,318.414 82.709,319.767 81.54,319.234" style="stroke:white;stroke-opacity:0;stroke-width:26.18px;"/>
        </g>
        <g transform="matrix(-0.137953,1.37198,-1.12715,-0.113335,422.99,79.8612)">
            <path d="M81.54,319.234C68.977,313.497 59.291,277.954 59.291,235.022C59.291,190.552 69.683,154.01 82.901,150.309C83.631,150.104 84.804,150.627 84.65,150.955C77.739,165.622 72.203,198.21 72.203,235.022C72.203,270.568 77.365,302.177 83.943,317.514C84.329,318.414 82.709,319.767 81.54,319.234" style="stroke:white;stroke-opacity:0;stroke-width:16.51px;"/>
        </g>
        <g transform="matrix(-0.162641,1.61751,-1.18953,-0.119608,442.761,30.3872)">
            <path d="M81.54,319.234C68.977,313.497 59.291,277.954 59.291,235.022C59.291,190.552 69.683,154.01 82.901,150.309C83.631,150.104 84.804,150.627 84.65,150.955C77.739,165.622 72.203,198.21 72.203,235.022C72.203,270.568 77.365,302.177 83.943,317.514C84.329,318.414 82.709,319.767 81.54,319.234" style="stroke:white;stroke-opacity:0;stroke-width:14.6px;"/>
        </g>
        <g transform="matrix(-0.195554,1.94484,-1.26059,-0.126753,468.163,-29.4199)">
            <path d="M81.54,319.234C68.977,313.497 59.291,277.954 59.291,235.022C59.291,190.552 69.683,154.01 82.901,150.309C83.631,150.104 84.804,150.627 84.65,150.955C77.739,165.622 72.203,198.21 72.203,235.022C72.203,270.568 77.365,302.177 83.943,317.514C84.329,318.414 82.709,319.767 81.54,319.234" style="stroke:white;stroke-opacity:0;stroke-width:12.65px;"/>
        </g>
    </g>
</svg>
