<?xml version="1.0" encoding="UTF-8" standalone="no"?>
<!DOCTYPE svg PUBLIC "-//W3C//DTD SVG 1.1//EN" "http://www.w3.org/Graphics/SVG/1.1/DTD/svg11.dtd">
<svg width="100%" height="100%" viewBox="0 0 139 139" version="1.1" xmlns="http://www.w3.org/2000/svg" xmlns:xlink="http://www.w3.org/1999/xlink" xml:space="preserve" xmlns:serif="http://www.serif.com/" style="fill-rule:evenodd;clip-rule:evenodd;stroke-linecap:round;stroke-linejoin:round;stroke-miterlimit:1.5;">
    <g transform="matrix(1.38889,0,0,1.38889,0,0)">
        <g transform="matrix(0.333333,0,0,0.333333,0,0)">
            <g transform="matrix(6.12323e-17,-1,1,6.12323e-17,-2.40532,297.595)">
                <path d="M295.189,78.608L295.189,226.203C295.189,266.933 262.122,300 221.392,300L73.797,300C33.067,300 0,266.933 0,226.203L0,78.608C0,37.878 33.067,4.811 73.797,4.811L221.392,4.811C262.122,4.811 295.189,37.878 295.189,78.608Z" style="fill:rgb(0,81,255);"/>
            </g>
            <g transform="matrix(5.98033,0,0,5.98033,-95.754,-42.0902)">
                <rect x="23.235" y="30.618" width="7.992" height="7.992" style="fill:url(#_Radial1);stroke:rgb(255,0,0);stroke-width:0.5px;"/>
            </g>
            <g transform="matrix(5.98033,0,0,5.98033,-95.754,-89.8845)">
                <rect x="23.235" y="30.618" width="7.992" height="7.992" style="fill:url(#_Radial2);stroke:rgb(255,0,0);stroke-width:0.5px;"/>
            </g>
            <g transform="matrix(5.98033,0,0,5.98033,-95.754,-137.679)">
                <rect x="23.235" y="30.618" width="7.992" height="7.992" style="fill:url(#_Radial3);stroke:rgb(255,0,0);stroke-width:0.5px;"/>
            </g>
            <g transform="matrix(5.98033,0,0,5.98033,-47.9597,-137.679)">
                <rect x="23.235" y="30.618" width="7.992" height="7.992" style="fill:url(#_Radial4);stroke:rgb(255,0,0);stroke-width:0.5px;"/>
            </g>
            <g transform="matrix(5.72917,0,0,5.72917,-32.8481,-12.4152)">
                <rect x="23.235" y="30.618" width="7.992" height="7.992" style="fill:url(#_Radial5);stroke:rgb(27,161,0);stroke-width:0.52px;"/>
            </g>
            <g transform="matrix(5.72917,0,0,5.72917,12.9389,-12.4152)">
                <rect x="23.235" y="30.618" width="7.992" height="7.992" style="fill:url(#_Radial6);stroke:rgb(27,161,0);stroke-width:0.52px;"/>
            </g>
            <g transform="matrix(3.61695e-16,5.90692,-5.90692,3.61695e-16,437.662,-84.5204)">
                <rect x="23.235" y="30.618" width="7.992" height="7.992" style="fill:url(#_Radial7);stroke:rgb(255,189,0);stroke-width:0.51px;"/>
            </g>
            <g transform="matrix(3.61695e-16,5.90692,-5.90692,3.61695e-16,437.662,-37.3127)">
                <rect x="23.235" y="30.618" width="7.992" height="7.992" style="fill:url(#_Radial8);stroke:rgb(255,189,0);stroke-width:0.51px;"/>
            </g>
            <g transform="matrix(3.61695e-16,5.90692,-5.90692,3.61695e-16,390.454,-37.3127)">
                <rect x="23.235" y="30.618" width="7.992" height="7.992" style="fill:url(#_Radial9);stroke:rgb(255,189,0);stroke-width:0.51px;"/>
            </g>
            <g transform="matrix(3.61695e-16,5.90692,-5.90692,3.61695e-16,343.247,-37.3127)">
                <rect x="23.235" y="30.618" width="7.992" height="7.992" style="fill:url(#_Radial10);stroke:rgb(255,189,0);stroke-width:0.51px;"/>
            </g>
            <g transform="matrix(3.61695e-16,5.90692,-5.90692,3.61695e-16,437.662,9.89491)">
                <rect x="23.235" y="30.618" width="7.992" height="7.992" style="fill:url(#_Radial11);stroke:rgb(255,189,0);stroke-width:0.51px;"/>
            </g>
            <g transform="matrix(5.72917,0,0,5.72917,-32.8481,33.3718)">
                <rect x="23.235" y="30.618" width="7.992" height="7.992" style="fill:url(#_Radial12);stroke:rgb(27,161,0);stroke-width:0.52px;"/>
            </g>
            <g transform="matrix(5.72917,0,0,5.72917,12.9389,33.3718)">
                <rect x="23.235" y="30.618" width="7.992" height="7.992" style="fill:url(#_Radial13);stroke:rgb(27,161,0);stroke-width:0.52px;"/>
            </g>
        </g>
    </g>
    <defs>
        <radialGradient id="_Radial1" cx="0" cy="0" r="1" gradientUnits="userSpaceOnUse" gradientTransform="matrix(7.99192,0,0,7.99192,23.2346,34.6139)"><stop offset="0" style="stop-color:rgb(255,253,253);stop-opacity:1"/><stop offset="1" style="stop-color:rgb(255,0,0);stop-opacity:1"/></radialGradient>
        <radialGradient id="_Radial2" cx="0" cy="0" r="1" gradientUnits="userSpaceOnUse" gradientTransform="matrix(7.99192,0,0,7.99192,23.2346,34.6139)"><stop offset="0" style="stop-color:rgb(255,253,253);stop-opacity:1"/><stop offset="1" style="stop-color:rgb(255,0,0);stop-opacity:1"/></radialGradient>
        <radialGradient id="_Radial3" cx="0" cy="0" r="1" gradientUnits="userSpaceOnUse" gradientTransform="matrix(7.99192,0,0,7.99192,23.2346,34.6139)"><stop offset="0" style="stop-color:rgb(255,253,253);stop-opacity:1"/><stop offset="1" style="stop-color:rgb(255,0,0);stop-opacity:1"/></radialGradient>
        <radialGradient id="_Radial4" cx="0" cy="0" r="1" gradientUnits="userSpaceOnUse" gradientTransform="matrix(7.99192,0,0,7.99192,23.2346,34.6139)"><stop offset="0" style="stop-color:rgb(255,253,253);stop-opacity:1"/><stop offset="1" style="stop-color:rgb(255,0,0);stop-opacity:1"/></radialGradient>
        <radialGradient id="_Radial5" cx="0" cy="0" r="1" gradientUnits="userSpaceOnUse" gradientTransform="matrix(7.99192,0,0,7.99192,23.2346,34.6139)"><stop offset="0" style="stop-color:rgb(255,253,253);stop-opacity:1"/><stop offset="1" style="stop-color:rgb(24,163,0);stop-opacity:1"/></radialGradient>
        <radialGradient id="_Radial6" cx="0" cy="0" r="1" gradientUnits="userSpaceOnUse" gradientTransform="matrix(7.99192,0,0,7.99192,23.2346,34.6139)"><stop offset="0" style="stop-color:rgb(255,253,253);stop-opacity:1"/><stop offset="1" style="stop-color:rgb(24,163,0);stop-opacity:1"/></radialGradient>
        <radialGradient id="_Radial7" cx="0" cy="0" r="1" gradientUnits="userSpaceOnUse" gradientTransform="matrix(7.99192,0,0,7.99192,23.2346,34.6139)"><stop offset="0" style="stop-color:rgb(255,253,253);stop-opacity:1"/><stop offset="1" style="stop-color:rgb(255,209,0);stop-opacity:1"/></radialGradient>
        <radialGradient id="_Radial8" cx="0" cy="0" r="1" gradientUnits="userSpaceOnUse" gradientTransform="matrix(7.99192,0,0,7.99192,23.2346,34.6139)"><stop offset="0" style="stop-color:rgb(255,253,253);stop-opacity:1"/><stop offset="1" style="stop-color:rgb(255,209,0);stop-opacity:1"/></radialGradient>
        <radialGradient id="_Radial9" cx="0" cy="0" r="1" gradientUnits="userSpaceOnUse" gradientTransform="matrix(7.99192,0,0,7.99192,23.2346,34.6139)"><stop offset="0" style="stop-color:rgb(255,253,253);stop-opacity:1"/><stop offset="1" style="stop-color:rgb(255,209,0);stop-opacity:1"/></radialGradient>
        <radialGradient id="_Radial10" cx="0" cy="0" r="1" gradientUnits="userSpaceOnUse" gradientTransform="matrix(7.99192,0,0,7.99192,23.2346,34.6139)"><stop offset="0" style="stop-color:rgb(255,253,253);stop-opacity:1"/><stop offset="1" style="stop-color:rgb(255,209,0);stop-opacity:1"/></radialGradient>
        <radialGradient id="_Radial11" cx="0" cy="0" r="1" gradientUnits="userSpaceOnUse" gradientTransform="matrix(7.99192,0,0,7.99192,23.2346,34.6139)"><stop offset="0" style="stop-color:rgb(255,253,253);stop-opacity:1"/><stop offset="1" style="stop-color:rgb(255,209,0);stop-opacity:1"/></radialGradient>
        <radialGradient id="_Radial12" cx="0" cy="0" r="1" gradientUnits="userSpaceOnUse" gradientTransform="matrix(7.99192,0,0,7.99192,23.2346,34.6139)"><stop offset="0" style="stop-color:rgb(255,253,253);stop-opacity:1"/><stop offset="1" style="stop-color:rgb(24,163,0);stop-opacity:1"/></radialGradient>
        <radialGradient id="_Radial13" cx="0" cy="0" r="1" gradientUnits="userSpaceOnUse" gradientTransform="matrix(7.99192,0,0,7.99192,23.2346,34.6139)"><stop offset="0" style="stop-color:rgb(255,253,253);stop-opacity:1"/><stop offset="1" style="stop-color:rgb(24,163,0);stop-opacity:1"/></radialGradient>
    </defs>
</svg>
