<?xml version="1.0" encoding="UTF-8" standalone="no"?>
<!DOCTYPE svg PUBLIC "-//W3C//DTD SVG 1.1//EN" "http://www.w3.org/Graphics/SVG/1.1/DTD/svg11.dtd">
<svg width="100%" height="100%" viewBox="0 0 100 100" version="1.1" xmlns="http://www.w3.org/2000/svg" xmlns:xlink="http://www.w3.org/1999/xlink" xml:space="preserve" xmlns:serif="http://www.serif.com/" style="fill-rule:evenodd;clip-rule:evenodd;stroke-linejoin:round;stroke-miterlimit:2;">
    <g transform="matrix(0.333333,0,0,0.333333,0,0)">
        <g transform="matrix(6.12323e-17,-1,1,6.12323e-17,-2.40532,297.595)">
            <path d="M295.189,78.608L295.189,226.203C295.189,266.933 262.122,300 221.392,300L73.797,300C33.067,300 0,266.933 0,226.203L0,78.608C0,37.878 33.067,4.811 73.797,4.811L221.392,4.811C262.122,4.811 295.189,37.878 295.189,78.608Z"/>
        </g>
        <g transform="matrix(1,0,0,1,-9.22727,-10.4861)">
            <circle cx="159.227" cy="160.486" r="94.555" style="fill:white;"/>
            <path d="M152.373,73.489C148.361,73.801 144.85,70.797 144.538,66.784C144.226,62.772 147.23,59.261 151.243,58.949C153.877,58.744 156.54,58.64 159.227,58.64C161.914,58.64 164.577,58.744 167.212,58.949C171.224,59.261 174.228,62.772 173.916,66.784C173.604,70.797 170.093,73.801 166.081,73.489C163.819,73.313 161.534,73.223 159.227,73.223C156.921,73.223 154.635,73.313 152.373,73.489ZM179.605,75.618C175.691,74.681 173.275,70.742 174.212,66.828C175.15,62.915 179.088,60.499 183.002,61.436C188.24,62.691 193.321,64.35 198.21,66.38C201.927,67.923 203.692,72.193 202.149,75.91C200.606,79.627 196.336,81.392 192.619,79.849C188.435,78.112 184.087,76.692 179.605,75.618ZM204.81,86.077C201.382,83.97 200.308,79.476 202.415,76.047C204.522,72.618 209.016,71.545 212.445,73.652C217,76.451 221.318,79.597 225.362,83.056C228.421,85.671 228.781,90.277 226.166,93.336C223.55,96.395 218.944,96.755 215.885,94.14C212.417,91.175 208.715,88.477 204.81,86.077ZM225.574,103.828C222.958,100.77 223.318,96.163 226.377,93.548C229.436,90.932 234.042,91.292 236.658,94.351C240.116,98.395 243.263,102.714 246.061,107.268C248.168,110.697 247.095,115.191 243.666,117.298C240.237,119.405 235.743,118.332 233.636,114.903C231.237,110.998 228.539,107.296 225.574,103.828ZM239.865,127.094C238.322,123.378 240.087,119.107 243.804,117.564C247.521,116.022 251.791,117.787 253.334,121.504C255.363,126.393 257.023,131.474 258.277,136.711C259.215,140.625 256.799,144.563 252.885,145.501C248.971,146.438 245.033,144.022 244.095,140.108C243.021,135.626 241.601,131.278 239.865,127.094ZM246.225,153.632C245.913,149.62 248.917,146.109 252.929,145.797C256.941,145.485 260.452,148.489 260.764,152.502C260.969,155.136 261.073,157.799 261.073,160.486C261.073,163.173 260.969,165.836 260.764,168.47C260.452,172.483 256.941,175.487 252.929,175.175C248.917,174.863 245.913,171.352 246.225,167.34C246.401,165.078 246.49,162.792 246.49,160.486C246.49,158.18 246.401,155.894 246.225,153.632ZM244.095,180.864C245.033,176.95 248.971,174.534 252.885,175.471C256.799,176.409 259.215,180.347 258.277,184.261C257.023,189.498 255.363,194.579 253.334,199.469C251.791,203.185 247.521,204.951 243.804,203.408C240.087,201.865 238.322,197.595 239.865,193.878C241.601,189.694 243.022,185.346 244.095,180.864ZM233.636,206.069C235.743,202.64 240.237,201.567 243.666,203.674C247.095,205.781 248.168,210.275 246.061,213.704C243.263,218.259 240.116,222.577 236.658,226.621C234.042,229.68 229.436,230.04 226.377,227.424C223.318,224.809 222.959,220.202 225.574,217.144C228.539,213.676 231.237,209.974 233.636,206.069ZM215.885,226.833C218.944,224.217 223.55,224.577 226.166,227.636C228.781,230.695 228.421,235.301 225.362,237.917C221.318,241.375 217,244.522 212.445,247.32C209.016,249.427 204.522,248.354 202.415,244.925C200.308,241.496 201.382,237.002 204.81,234.895C208.715,232.496 212.418,229.797 215.885,226.833ZM192.619,241.123C196.336,239.581 200.606,241.346 202.149,245.063C203.692,248.779 201.927,253.05 198.21,254.592C193.321,256.622 188.24,258.281 183.002,259.536C179.089,260.474 175.15,258.057 174.213,254.144C173.275,250.23 175.691,246.292 179.605,245.354C184.087,244.28 188.435,242.86 192.619,241.123ZM166.081,247.484C170.093,247.172 173.604,250.176 173.916,254.188C174.228,258.2 171.224,261.711 167.212,262.023C164.577,262.228 161.914,262.332 159.227,262.332C156.54,262.332 153.878,262.228 151.243,262.023C147.231,261.711 144.227,258.2 144.539,254.188C144.851,250.176 148.361,247.172 152.374,247.484C154.635,247.659 156.921,247.749 159.227,247.749C161.534,247.749 163.819,247.659 166.081,247.484ZM138.85,245.354C142.763,246.292 145.18,250.23 144.242,254.144C143.305,258.057 139.366,260.474 135.452,259.536C130.215,258.281 125.134,256.622 120.245,254.593C116.528,253.05 114.763,248.779 116.306,245.063C117.849,241.346 122.119,239.581 125.836,241.123C130.02,242.86 134.368,244.28 138.85,245.354ZM113.644,234.895C117.073,237.002 118.146,241.496 116.039,244.925C113.933,248.354 109.438,249.427 106.01,247.32C101.455,244.522 97.137,241.375 93.092,237.917C90.034,235.301 89.674,230.695 92.289,227.636C94.904,224.577 99.511,224.217 102.57,226.833C106.037,229.797 109.739,232.496 113.644,234.895ZM92.881,217.144C95.496,220.203 95.136,224.809 92.077,227.424C89.019,230.04 84.412,229.68 81.797,226.621C78.339,222.577 75.192,218.259 72.393,213.704C70.286,210.275 71.36,205.781 74.788,203.674C78.217,201.567 82.712,202.64 84.818,206.069C87.218,209.974 89.916,213.676 92.881,217.144ZM78.59,193.878C80.133,197.595 78.368,201.865 74.651,203.408C70.934,204.951 66.664,203.185 65.121,199.469C63.091,194.579 61.432,189.499 60.177,184.261C59.24,180.347 61.656,176.409 65.57,175.471C69.483,174.534 73.422,176.95 74.359,180.864C75.433,185.346 76.853,189.694 78.59,193.878ZM72.23,167.34C72.542,171.352 69.538,174.863 65.525,175.175C61.513,175.487 58.002,172.483 57.69,168.471C57.485,165.836 57.381,163.173 57.381,160.486C57.381,157.799 57.485,155.137 57.69,152.502C58.002,148.49 61.513,145.485 65.525,145.797C69.538,146.109 72.542,149.62 72.23,153.632C72.054,155.894 71.964,158.18 71.964,160.486C71.964,162.793 72.054,165.078 72.23,167.34ZM74.359,140.109C73.422,144.022 69.483,146.438 65.57,145.501C61.656,144.563 59.24,140.625 60.177,136.711C61.432,131.474 63.091,126.393 65.121,121.504C66.664,117.787 70.934,116.022 74.651,117.565C78.368,119.107 80.133,123.378 78.59,127.094C76.853,131.278 75.433,135.626 74.359,140.109ZM84.818,114.903C82.712,118.332 78.217,119.405 74.788,117.298C71.36,115.191 70.286,110.697 72.393,107.268C75.192,102.714 78.339,98.395 81.797,94.351C84.412,91.292 89.019,90.932 92.077,93.548C95.136,96.163 95.496,100.77 92.881,103.828C89.916,107.296 87.218,110.998 84.818,114.903ZM102.57,94.14C99.511,96.755 94.904,96.395 92.289,93.336C89.674,90.278 90.034,85.671 93.092,83.056C97.137,79.598 101.455,76.451 106.009,73.652C109.438,71.545 113.933,72.618 116.039,76.047C118.146,79.476 117.073,83.97 113.644,86.077C109.739,88.477 106.037,91.175 102.57,94.14ZM125.836,79.849C122.119,81.392 117.848,79.627 116.306,75.91C114.763,72.193 116.528,67.923 120.245,66.38C125.134,64.35 130.215,62.691 135.452,61.436C139.366,60.499 143.304,62.915 144.242,66.828C145.18,70.742 142.763,74.681 138.85,75.618C134.368,76.692 130.02,78.112 125.836,79.849Z" style="fill:rgb(255,33,33);fill-opacity:0;"/>
        </g>
        <g transform="matrix(1,0,0,1,0.384675,4.8175)">
            <rect x="39.57" y="140.365" width="92.487" height="9.635"/>
            <path d="M118.878,145.182C117.745,143.897 117.058,142.211 117.058,140.365C117.058,136.341 120.325,133.073 124.35,133.073L132.057,133.073C136.084,133.073 139.349,136.338 139.349,140.365L139.349,150C139.349,154.027 136.084,157.292 132.057,157.292L124.35,157.292C120.325,157.292 117.058,154.024 117.058,150C117.058,148.154 117.745,146.468 118.878,145.182ZM88.049,145.182C86.916,143.897 86.229,142.211 86.229,140.365C86.229,136.341 89.496,133.073 93.521,133.073L108.935,133.073C112.96,133.073 116.227,136.341 116.227,140.365C116.227,142.211 115.539,143.897 114.407,145.183C115.539,146.468 116.227,148.154 116.227,150C116.227,154.024 112.959,157.292 108.935,157.292L93.521,157.292C89.496,157.292 86.229,154.024 86.229,150C86.229,148.154 86.916,146.468 88.049,145.182ZM57.22,145.182C56.087,143.897 55.4,142.211 55.4,140.365C55.4,136.341 58.667,133.073 62.692,133.073L78.106,133.073C82.131,133.073 85.398,136.341 85.398,140.365C85.398,142.211 84.71,143.897 83.578,145.183C84.71,146.468 85.398,148.154 85.398,150C85.398,154.024 82.13,157.292 78.106,157.292L62.691,157.292C58.667,157.292 55.4,154.024 55.4,150C55.4,148.154 56.087,146.468 57.22,145.182ZM52.749,145.182C53.881,146.468 54.569,148.154 54.569,150C54.569,154.024 51.301,157.292 47.277,157.292L39.57,157.292C35.543,157.292 32.278,154.027 32.278,150L32.278,140.365C32.278,136.338 35.543,133.073 39.57,133.073L47.277,133.073C51.301,133.073 54.569,136.341 54.569,140.365C54.569,142.211 53.881,143.897 52.749,145.182Z" style="fill:rgb(255,33,33);fill-opacity:0;"/>
        </g>
        <g transform="matrix(1,0,0,1,1.0327,2.51615)">
            <rect x="121.767" y="120.284" width="54.4" height="54.4"/>
            <path d="M162.567,127.576C158.543,127.576 155.276,124.308 155.276,120.284C155.276,116.26 158.543,112.992 162.567,112.992L176.167,112.992C180.194,112.992 183.459,116.257 183.459,120.284L183.459,133.884C183.459,137.908 180.192,141.176 176.167,141.176C172.143,141.176 168.875,137.908 168.875,133.884L168.875,127.576L162.567,127.576ZM168.875,161.084C168.875,157.059 172.143,153.792 176.167,153.792C180.192,153.792 183.459,157.059 183.459,161.084L183.459,174.684C183.459,178.711 180.194,181.975 176.167,181.975L162.567,181.975C158.543,181.975 155.276,178.708 155.276,174.684C155.276,170.659 158.543,167.392 162.567,167.392L168.875,167.392L168.875,161.084ZM135.367,167.392C139.392,167.392 142.659,170.659 142.659,174.684C142.659,178.708 139.392,181.975 135.367,181.975L121.767,181.975C117.74,181.975 114.476,178.711 114.476,174.684L114.476,161.084C114.476,157.059 117.743,153.792 121.767,153.792C125.792,153.792 129.059,157.059 129.059,161.084L129.059,167.392L135.367,167.392ZM129.059,133.884C129.059,137.908 125.792,141.176 121.767,141.176C117.743,141.176 114.476,137.908 114.476,133.884L114.476,120.284C114.476,116.257 117.74,112.992 121.767,112.992L135.367,112.992C139.392,112.992 142.659,116.26 142.659,120.284C142.659,124.308 139.392,127.576 135.367,127.576L129.059,127.576L129.059,133.884Z" style="fill:rgb(255,33,33);fill-opacity:0;"/>
        </g>
        <g transform="matrix(1,0,0,1,-2.67481,-2.05506)">
            <circle cx="227.802" cy="219.701" r="3.503" style="fill:white;"/>
            <path d="M227.802,208.906L229.971,209.125L232.007,209.758L233.843,210.755L235.434,212.068L236.748,213.66L237.744,215.495L238.377,217.532L238.597,219.701L238.377,221.87L237.744,223.906L236.748,225.742L235.434,227.333L233.843,228.647L232.007,229.643L229.971,230.276L227.802,230.495L225.633,230.276L223.597,229.643L221.761,228.647L220.169,227.333L218.856,225.742L217.859,223.906L217.227,221.87L217.007,219.701L217.227,217.532L217.859,215.495L218.856,213.66L220.169,212.068L221.761,210.755L223.597,209.758L225.633,209.125L227.802,208.906ZM227.802,223.489C229.893,223.489 231.59,221.792 231.59,219.701C231.59,217.61 229.893,215.912 227.802,215.912C225.711,215.912 224.013,217.61 224.013,219.701C224.013,221.792 225.711,223.489 227.802,223.489Z" style="fill:rgb(255,33,33);fill-opacity:0;"/>
        </g>
        <g transform="matrix(1,0,0,1,7.0005,-16.0246)">
            <circle cx="227.802" cy="219.701" r="3.503" style="fill:white;"/>
            <path d="M227.802,208.906L229.971,209.125L232.007,209.758L233.843,210.755L235.434,212.068L236.748,213.66L237.744,215.495L238.377,217.532L238.597,219.701L238.377,221.87L237.744,223.906L236.748,225.742L235.434,227.333L233.843,228.647L232.007,229.643L229.971,230.276L227.802,230.495L225.633,230.276L223.597,229.643L221.761,228.647L220.169,227.333L218.856,225.742L217.859,223.906L217.227,221.87L217.007,219.701L217.227,217.532L217.859,215.495L218.856,213.66L220.169,212.068L221.761,210.755L223.597,209.758L225.633,209.125L227.802,208.906ZM227.802,223.489C229.893,223.489 231.59,221.792 231.59,219.701C231.59,217.61 229.893,215.912 227.802,215.912C225.711,215.912 224.013,217.61 224.013,219.701C224.013,221.792 225.711,223.489 227.802,223.489Z" style="fill:rgb(255,33,33);fill-opacity:0;"/>
        </g>
        <path d="M229.233,223.657L226.159,221.432C227.017,220.824 227.446,221.354 228.63,219.977C228.781,219.801 230.298,216.012 228.049,214.613L233.083,207.659C234.353,207.736 235.883,207.843 236.853,207.179C237.83,206.51 239.445,202.488 240.15,201.785L242.71,203.676C242.277,204.834 240.208,207.605 240.111,209.042C239.895,212.225 239.612,213.074 240.068,214.142L236.947,219.743C236.05,219.801 233.561,220.668 232.754,221.149C231.004,222.193 229.75,223.312 229.233,223.657Z" style="fill:white;"/>
        <path d="M220.959,216.32C220.935,216.22 220.913,216.12 220.894,216.018C220.504,214.034 220.956,211.976 222.142,210.338L227.176,203.383C228.455,201.616 230.446,200.529 232.59,200.384C233.464,198.891 234.588,197.034 235,196.623C237.552,194.077 241.582,193.778 244.482,195.92L247.042,197.811C249.661,199.745 250.68,203.182 249.539,206.231C249.245,207.017 247.819,209.563 247.32,210.447C247.257,211.263 247.193,211.991 247.154,212.423C247.584,214.193 247.338,216.076 246.438,217.692L243.317,223.292C242.189,225.317 240.171,226.676 237.891,226.973L236.314,227.517C234.804,228.443 233.733,229.42 233.278,229.724C230.743,231.414 227.425,231.35 224.957,229.563L221.884,227.338C219.979,225.96 218.856,223.748 218.868,221.397C218.877,219.48 219.639,217.663 220.959,216.32ZM223.57,214.745L225.208,214.001C224.765,214.117 224.243,214.154 223.57,214.745ZM230.002,227.625L228.825,228.128C229.2,228.022 229.578,227.879 230.002,227.625Z" style="fill:rgb(255,33,33);fill-opacity:0;"/>
    </g>
</svg>
