# Blender 4.4.3
# www.blender.org
mtllib debris8.mtl
o Icosphere
v 0.364416 -0.788444 -0.811022
v 1.576263 -1.000798 -0.341383
v -0.276388 -0.447220 0.850649
v -0.894426 -0.447216 0.000000
v -0.276388 -0.447220 -0.850649
v 0.632617 0.227701 -0.778167
v 0.276388 0.447220 0.850649
v -0.723607 0.447220 0.525725
v -0.723607 0.447220 -0.525725
v -0.460763 1.051389 -0.650812
v 1.052023 0.623948 0.220360
v 0.385397 -1.101575 -0.363585
v 0.820733 -0.693869 -0.525501
v 0.213907 -1.128462 1.209409
v 0.978377 -0.096594 -0.506187
v 0.569587 -0.294912 -0.925141
v -0.525730 -0.850652 0.000000
v -0.688189 -0.525736 0.499997
v -0.162456 -0.850654 -0.499995
v -0.688189 -0.525736 -0.499997
v 0.136673 0.141233 -0.990910
v 1.558078 -0.121862 -0.025369
v 1.128793 0.560077 -0.708475
v -0.235415 -0.229818 1.535865
v 1.363498 -0.974041 0.567874
v -0.951058 0.000000 0.309013
v -0.587786 0.000000 0.809017
v -0.587786 0.000000 -0.809017
v -0.951058 0.000000 -0.309013
v 0.239600 0.811325 -1.220546
v 0.000000 0.000000 -1.000000
v 1.055352 -0.019033 0.898052
v -0.850648 0.525736 0.000000
v -0.684736 0.668825 -1.556278
v 0.360748 1.084378 -0.207245
v -0.633317 0.298734 0.423434
v -0.197982 0.706440 0.261518
v -0.467692 -0.075392 1.425560
v 0.085084 0.819047 1.425560
v -0.914912 0.819047 1.100636
v -0.368305 0.765136 1.283865
v 0.071564 -0.153910 1.383922
v -0.191304 0.371828 1.574910
v -0.779090 0.371828 1.383927
v 0.728355 0.616532 1.880747
v -0.454173 0.897565 1.383922
v -2.016424 1.304387 0.809259
v 0.017080 0.432736 1.483063
v -0.573476 0.271605 1.397984
v -0.824622 0.670562 0.998344
v -0.900821 1.613264 1.256272
vn 0.4728 -0.7114 -0.5200
vn 0.2259 -0.0281 -0.9738
vn -0.4115 -0.7557 -0.5096
vn 0.2003 -0.9689 0.1455
vn -0.5094 0.0128 -0.8604
vn 0.6206 0.2766 -0.7337
vn -0.8897 -0.3304 0.3151
vn -0.5746 -0.3304 -0.7488
vn 0.4202 -0.3513 -0.8367
vn 0.9714 -0.0623 0.2291
vn -0.9921 -0.1256 -0.0000
vn -0.3066 -0.1256 -0.9435
vn 0.3764 -0.3852 -0.8426
vn 0.6713 0.7394 0.0518
vn -0.9646 -0.0490 0.2593
vn 0.5688 0.7939 -0.2151
vn -0.6434 0.7493 0.1568
vn -0.3971 0.9002 0.1786
vn 0.8089 0.5785 -0.1050
vn -0.0834 -0.8492 0.5215
vn -0.9355 -0.3414 -0.0905
vn -0.4597 0.0910 -0.8834
vn 0.8407 -0.0962 0.5329
vn 0.5589 0.8291 -0.0108
vn 0.4081 0.8681 -0.2827
vn 0.1077 0.9566 -0.2707
vn 0.7858 0.4757 -0.3953
vn -0.2071 -0.7422 -0.6374
vn -0.9672 -0.2382 -0.0877
vn -0.9050 0.3304 -0.2680
vn -0.9822 0.1876 -0.0000
vn -0.9050 0.3304 0.2680
vn -0.4398 -0.8739 0.2072
vn -0.8212 -0.5633 0.0911
vn -0.4969 -0.7947 0.3486
vn -0.2894 -0.3949 0.8720
vn 0.8773 0.1227 0.4640
vn 0.8150 0.4223 0.3967
vn -0.6355 -0.0221 -0.7718
vn 0.4187 -0.3513 -0.8374
vn 0.6200 -0.5650 -0.5444
vn -0.8026 0.1256 -0.5831
vn -0.7947 -0.1876 -0.5773
vn -0.8897 -0.3304 -0.3151
vn -0.8026 0.1256 0.5831
vn -0.7947 -0.1876 0.5773
vn -0.5746 -0.3304 0.7488
vn 0.5931 0.3055 0.7449
vn 0.4932 -0.0685 0.8672
vn 0.1704 -0.9830 0.0688
vn 0.8318 0.5543 0.0306
vn 0.5868 -0.3581 -0.7263
vn 0.3553 -0.3486 -0.8673
vn 0.3535 0.2135 -0.9108
vn -0.2385 -0.3720 -0.8970
vn 0.4669 -0.5013 -0.7285
vn -0.4089 -0.6617 -0.6284
vn -0.4911 -0.7947 -0.3568
vn -0.7240 -0.6617 -0.1947
vn -0.7240 -0.6617 0.1947
vn -0.0155 -0.8407 0.5413
vn -0.1654 -0.9030 0.3965
vn 0.6813 0.1209 -0.7220
vn 0.7449 -0.1758 -0.6436
vn 0.5445 -0.3972 -0.7387
vn -0.7833 -0.6142 -0.0959
vn 0.6947 -0.7165 0.0635
vn -0.2866 -0.9009 -0.3259
vn 0.0247 -0.3304 0.9435
vn -0.3066 -0.1256 0.9435
vn 0.5348 -0.1207 -0.8363
vn -0.5445 0.3972 0.7387
vn 0.3166 0.7633 0.5631
vn 0.0308 -0.4622 -0.8863
vn -0.2167 0.3046 0.9275
vn 0.1563 -0.0519 -0.9863
vn 0.0534 -0.1562 -0.9863
vn -0.5346 0.3304 0.7779
vn -0.3035 0.1876 0.9342
vn -0.0247 0.3304 0.9435
vn 0.0575 0.7244 0.6870
vn -0.2541 0.8782 0.4052
vn 0.7595 -0.1138 0.6404
vn 0.5155 0.0867 -0.8525
vn 0.4969 0.7947 -0.3486
vn -0.4434 0.2078 0.8719
vn 0.0769 0.7294 0.6798
vn -0.1316 0.9893 -0.0637
vn 0.4820 0.8652 -0.1381
vn -0.7568 -0.2207 0.6152
vn -0.6716 0.4999 -0.5468
vn 0.8067 -0.3363 0.4859
vn -0.8062 -0.5817 0.1079
vt 0.181819 0.000000
vt 0.227273 0.078731
vt 0.136365 0.078731
vt 0.272728 0.157461
vt 0.318182 0.078731
vt 0.363637 0.157461
vt 0.909091 0.000000
vt 0.954545 0.078731
vt 0.863636 0.078731
vt 0.727273 0.000000
vt 0.772727 0.078731
vt 0.681818 0.078731
vt 0.545455 0.000000
vt 0.590909 0.078731
vt 0.500000 0.078731
vt 0.318182 0.236191
vt 0.818182 0.157461
vt 0.909091 0.157461
vt 0.863636 0.236191
vt 0.636364 0.157461
vt 0.727273 0.157461
vt 0.681818 0.236191
vt 0.454546 0.157461
vt 0.545455 0.157461
vt 0.500000 0.236191
vt 0.227273 0.236191
vt 0.772727 0.236191
vt 0.590909 0.236191
vt 0.409092 0.236191
vt 0.727273 0.314921
vt 0.818182 0.314921
vt 0.772727 0.393651
vt 0.545455 0.314921
vt 0.636364 0.314921
vt 0.590909 0.393651
vt 0.500000 0.393651
vt 0.181819 0.314921
vt 0.272728 0.314921
vt 0.681818 0.393651
vt 0.090910 0.157461
vt 0.181819 0.157461
vt 0.909091 0.314921
vt 0.954545 0.236191
vt 0.136365 0.236191
vt 0.454546 0.314921
vt 0.363637 0.314921
vt 1.000000 0.157461
vt 0.409092 0.078731
vt 0.363637 0.000000
vt 0.045455 0.236191
vt 0.000000 0.314921
vt 0.090910 0.314921
vt 0.045455 0.393651
vt 0.863636 0.393651
vt 0.818182 0.472382
vt 0.136365 0.393651
vt 0.090910 0.472382
vt 0.272728 0.472382
vt 0.227273 0.393651
s 0
f 1/1/1 13/2/1 12/3/1
f 2/4/2 13/5/2 15/6/2
f 1/7/3 12/8/3 17/9/3
f 1/10/4 17/11/4 19/12/4
f 1/13/5 19/14/5 16/15/5
f 2/4/6 15/6/6 22/16/6
f 4/17/7 18/18/7 26/19/7
f 5/20/8 20/21/8 28/22/8
f 6/23/9 21/24/9 30/25/9
f 2/4/10 22/16/10 25/26/10
f 4/17/11 26/19/11 29/27/11
f 5/20/12 28/22/12 31/28/12
f 6/23/13 30/25/13 23/29/13
f 9/30/14 33/31/14 36/32/14
f 10/33/15 34/34/15 37/35/15
f 37/36/16 39/37/16 32/38/16
f 37/35/17 34/34/17 36/39/17
f 34/34/18 9/30/18 36/39/18
f 33/31/19 50/32/19 36/32/19
f 3/40/20 42/41/20 38/40/20
f 8/42/21 44/43/21 40/42/21
f 24/44/22 42/41/22 14/41/22
f 7/37/23 43/44/23 24/44/23
f 23/29/24 35/45/24 11/46/24
f 23/29/25 30/25/25 35/45/25
f 30/25/26 10/33/26 35/45/26
f 31/28/27 34/34/27 10/33/27
f 31/28/28 28/22/28 34/34/28
f 28/22/29 9/30/29 34/34/29
f 29/27/30 33/31/30 9/30/30
f 29/27/31 26/19/31 33/31/31
f 26/19/32 8/42/32 33/31/32
f 33/31/33 40/42/33 47/31/33
f 27/43/34 38/47/34 44/43/34
f 7/37/35 45/38/35 39/37/35
f 25/26/36 32/38/36 7/37/36
f 25/26/37 22/16/37 32/38/37
f 22/16/38 11/46/38 32/38/38
f 30/25/39 31/28/39 10/33/39
f 30/25/40 21/24/40 31/28/40
f 21/24/41 5/20/41 31/28/41
f 28/22/42 29/27/42 9/30/42
f 28/22/43 20/21/43 29/27/43
f 20/21/44 4/17/44 29/27/44
f 26/19/45 27/43/45 8/42/45
f 26/19/46 18/18/46 27/43/46
f 18/18/47 3/47/47 27/43/47
f 24/44/48 25/26/48 7/37/48
f 24/44/49 14/41/49 25/26/49
f 14/41/50 2/4/50 25/26/50
f 22/16/51 23/29/51 11/46/51
f 22/16/52 15/6/52 23/29/52
f 15/6/53 6/23/53 23/29/53
f 16/15/54 21/24/54 6/23/54
f 16/15/55 19/14/55 21/24/55
f 19/14/56 5/20/56 21/24/56
f 19/12/57 20/21/57 5/20/57
f 19/12/58 17/11/58 20/21/58
f 17/11/59 4/17/59 20/21/59
f 17/9/60 18/18/60 4/17/60
f 17/9/61 12/8/61 18/18/61
f 12/8/62 3/47/62 18/18/62
f 15/6/63 16/48/63 6/23/63
f 15/6/64 13/5/64 16/48/64
f 13/5/65 1/49/65 16/48/65
f 12/3/66 14/41/66 3/40/66
f 12/3/67 13/2/67 14/41/67
f 13/2/68 2/4/68 14/41/68
f 38/40/69 42/41/69 43/44/69
f 38/40/70 43/44/70 44/50/70
f 40/51/71 46/52/71 49/53/71
f 50/32/72 49/54/72 41/55/72
f 50/32/73 47/31/73 49/54/73
f 47/31/74 40/42/74 49/54/74
f 49/53/75 48/56/75 41/57/75
f 49/53/76 46/52/76 48/56/76
f 46/52/77 39/37/77 48/56/77
f 44/50/78 46/52/78 40/51/78
f 44/50/79 43/44/79 46/52/79
f 43/44/80 39/37/80 46/52/80
f 32/38/81 11/46/81 35/45/81
f 35/45/82 10/33/82 37/36/82
f 37/36/83 51/35/83 50/39/83
f 50/39/84 41/58/84 48/59/84
f 39/37/85 45/38/85 32/38/85
f 50/39/86 48/59/86 39/37/86
f 32/38/87 35/45/87 37/36/87
f 37/36/88 50/39/88 39/37/88
f 33/31/89 47/31/89 50/32/89
f 3/40/90 14/41/90 42/41/90
f 37/35/91 36/39/91 50/39/91
f 8/42/21 27/43/21 44/43/21
f 24/44/22 43/44/22 42/41/22
f 7/37/92 39/37/92 43/44/92
f 33/31/93 8/42/93 40/42/93
f 27/43/34 3/47/34 38/47/34
f 7/37/35 32/38/35 45/38/35
