# Blender 4.4.3
# www.blender.org
mtllib debris10.mtl
o Cube
v 0.511377 2.921700 -0.326751
v 0.966223 -3.370656 -0.616530
v 0.477737 4.051947 1.322919
v 0.571134 -3.924352 1.264249
v -0.477737 4.346236 -1.322919
v -0.571134 -4.473831 -1.264249
v -0.511377 5.476482 0.326751
v -0.966223 -5.027527 0.616530
vn 0.8690 0.4163 -0.2675
vn -0.3814 -0.0113 0.9244
vn -0.9801 0.0371 -0.1950
vn 0.6084 -0.7868 -0.1038
vn 0.9732 0.0601 0.2221
vn 0.3455 0.0681 -0.9360
vn -0.6725 0.0495 0.7385
vn -0.9996 0.0104 -0.0275
vn 0.9999 0.0116 0.0124
vn 0.7008 -0.0122 -0.7132
vt 0.625000 0.500000
vt 0.875000 0.750000
vt 0.625000 0.750000
vt 0.375000 1.000000
vt 0.375000 0.750000
vt 0.625000 0.000000
vt 0.375000 0.250000
vt 0.375000 0.000000
vt 0.375000 0.500000
vt 0.125000 0.750000
vt 0.125000 0.500000
vt 0.875000 0.500000
vt 0.625000 1.000000
vt 0.625000 0.250000
s 0
usemtl Material
f 1/1/1 7/2/1 3/3/1
f 3/3/2 8/4/2 4/5/2
f 7/6/3 6/7/3 8/8/3
f 2/9/4 8/10/4 6/11/4
f 1/1/5 4/5/5 2/9/5
f 6/7/6 1/1/6 2/9/6
f 1/1/1 5/12/1 7/2/1
f 3/3/7 7/13/7 8/4/7
f 7/6/8 5/14/8 6/7/8
f 2/9/4 4/5/4 8/10/4
f 1/1/9 3/3/9 4/5/9
f 6/7/10 5/14/10 1/1/10
