# Blender 4.4.3
# www.blender.org
mtllib finger.mtl
o Sphere
v 0.000000 0.000000 -1.000000
v 0.000000 -0.195090 -0.980785
v 0.000000 -0.327542 -0.831470
v -0.160537 4.167572 -0.492296
v 0.195090 0.000000 -0.980785
v 0.191342 -0.195090 -0.961940
v 0.180240 -0.154656 -0.906127
v 0.162212 -0.327542 -0.815493
v 0.137950 -0.479079 -0.693520
v 0.108386 -0.603442 -0.544895
v 0.074658 -0.695852 -0.375330
v 0.038060 -0.752757 -0.191342
v -0.238492 4.192635 -0.339100
v 0.382683 0.000000 -0.923879
v 0.375330 -0.195090 -0.906127
v 0.353553 -0.154656 -0.853553
v 0.318190 -0.327542 -0.768178
v 0.270598 -0.479079 -0.653281
v 0.212608 -0.603442 -0.513280
v 0.146447 -0.695852 -0.353553
v 0.074658 -0.752757 -0.180240
v -0.286497 4.208069 -0.172872
v 0.555570 0.000000 -0.831469
v 0.544895 -0.195090 -0.815493
v 0.513280 -0.154656 -0.768178
v 0.461940 -0.327542 -0.691342
v 0.392847 -0.479079 -0.587938
v 0.308658 -0.603442 -0.461940
v 0.212608 -0.695852 -0.318190
v 0.108386 -0.752757 -0.162212
v -0.302706 4.213281 -0.000000
v 0.707107 0.000000 -0.707107
v 0.693520 -0.195090 -0.693520
v 0.653281 -0.382683 -0.653281
v 0.587938 -0.327542 -0.587938
v 0.500000 -0.479079 -0.500000
v 0.392847 -0.603442 -0.392847
v 0.270598 -0.695852 -0.270598
v 0.137950 -0.752757 -0.137950
v -0.286497 4.208069 0.172871
v 0.831470 0.000000 -0.555570
v 0.815493 -0.195090 -0.544895
v 0.768178 -0.382683 -0.513280
v 0.691342 -0.555570 -0.461940
v 0.587938 -0.479079 -0.392847
v 0.461940 -0.603442 -0.308658
v 0.318190 -0.695852 -0.212608
v 0.162212 -0.752757 -0.108386
v -0.238493 4.192635 0.339099
v 0.923879 0.000000 -0.382683
v 0.906127 -0.195090 -0.375330
v 0.853553 -0.382683 -0.353553
v 0.768178 -0.555570 -0.318190
v 0.653281 -0.479079 -0.270598
v 0.513280 -0.603442 -0.212607
v 0.353553 -0.695852 -0.146447
v 0.180240 -0.752757 -0.074658
v -0.160537 4.167572 0.492296
v 0.980785 0.000000 -0.195090
v 0.961940 -0.195090 -0.191342
v 0.906127 -0.382683 -0.180240
v 0.815493 -0.555570 -0.162212
v 0.693520 -0.479079 -0.137950
v 0.544895 -0.603442 -0.108386
v 0.375330 -0.695852 -0.074658
v 0.191342 -0.752757 -0.038060
v 1.000000 0.000000 0.000000
v 0.980785 -0.195090 0.000000
v 0.923879 -0.154656 -0.000000
v 0.831469 -0.327542 0.000000
v 0.707107 -0.479079 -0.000000
v 0.555570 -0.603442 0.000000
v 0.382683 -0.695852 0.000000
v 0.195090 -0.752757 0.000000
v -0.055627 4.133842 0.626574
v 0.980785 0.000000 0.195090
v 0.961940 -0.195090 0.191342
v 0.906127 -0.154656 0.180240
v 0.815493 -0.327542 0.162212
v 0.693520 -0.479079 0.137950
v 0.544895 -0.603442 0.108386
v 0.375330 -0.695852 0.074658
v 0.191342 -0.752757 0.038060
v 0.072206 4.092742 0.736773
v 0.923879 0.000000 0.382683
v 0.906127 -0.195090 0.375330
v 0.853553 -0.154656 0.353553
v 0.768178 -0.327542 0.318190
v 0.653281 -0.479079 0.270598
v 0.513280 -0.603442 0.212608
v 0.353553 -0.695852 0.146447
v 0.180240 -0.752757 0.074658
v 0.218050 4.045852 0.818658
v 0.831469 0.000000 0.555570
v 0.815493 -0.195090 0.544895
v 0.768178 -0.382683 0.513280
v 0.691341 -0.327542 0.461940
v 0.587938 -0.479079 0.392847
v 0.461940 -0.603442 0.308658
v 0.318190 -0.695852 0.212608
v 0.162212 -0.752757 0.108386
v 0.400454 3.988626 0.865582
v 0.707106 0.000000 0.707107
v 0.693520 -0.195090 0.693520
v 0.653281 -0.382683 0.653281
v 0.587938 -0.555570 0.587938
v 0.500000 -0.479079 0.500000
v 0.392847 -0.603442 0.392847
v 0.270598 -0.695852 0.270598
v 0.137950 -0.752757 0.137950
v 0.565028 3.935713 0.882608
v 0.555570 0.000000 0.831469
v 0.544895 -0.195090 0.815493
v 0.513280 -0.382683 0.768178
v 0.461940 -0.555570 0.691342
v 0.392847 -0.479079 0.587938
v 0.308658 -0.603442 0.461940
v 0.212607 -0.695852 0.318190
v 0.108386 -0.752757 0.162212
v 0.705449 3.889147 0.869083
v 0.382683 0.000000 0.923879
v 0.375330 -0.195090 0.906127
v 0.353553 -0.382683 0.853553
v 0.318189 -0.555570 0.768178
v 0.270598 -0.479079 0.653281
v 0.212607 -0.603442 0.513280
v 0.146447 -0.695852 0.353553
v 0.074658 -0.752757 0.180240
v 0.863699 3.838268 0.818659
v 0.195090 0.000000 0.980785
v 0.191342 -0.195090 0.961939
v 0.180240 -0.382683 0.906127
v 0.162212 -0.555570 0.815493
v 0.137950 -0.479079 0.693520
v 0.108386 -0.603442 0.544895
v 0.074658 -0.695852 0.375330
v 0.038060 -0.752757 0.191342
v -0.000000 0.000000 0.999999
v -0.000000 -0.195090 0.980785
v 0.000000 -0.382683 0.923879
v -0.000000 -0.555570 0.831469
v -0.000000 -0.479079 0.707107
v -0.000000 -0.603442 0.555570
v -0.000000 -0.695852 0.382683
v -0.000000 -0.752757 0.195090
v 1.009543 3.791377 0.736773
v -0.195091 0.000000 0.980785
v -0.191342 -0.195090 0.961939
v -0.180240 -0.154656 0.906127
v -0.162212 -0.327542 0.815493
v -0.137950 -0.479079 0.693520
v -0.108386 -0.603442 0.544895
v -0.074658 -0.695852 0.375330
v -0.038060 -0.752757 0.191342
v 1.137377 3.750277 0.626574
v -0.382683 0.000000 0.923879
v -0.375330 -0.195090 0.906127
v -0.353553 -0.154656 0.853553
v -0.318190 -0.327542 0.768177
v -0.270598 -0.479079 0.653281
v -0.212608 -0.603442 0.513280
v -0.146447 -0.695852 0.353553
v -0.074658 -0.752757 0.180240
v 1.242287 3.716547 0.492296
v -0.555570 0.000000 0.831469
v -0.544895 -0.195090 0.815493
v -0.513280 -0.382683 0.768178
v -0.461940 -0.327542 0.691341
v -0.392847 -0.479079 0.587938
v -0.308658 -0.603442 0.461939
v -0.212608 -0.695852 0.318190
v -0.108386 -0.752757 0.162212
v 1.320242 3.691484 0.339100
v -0.707106 0.000000 0.707106
v -0.693520 -0.195090 0.693520
v -0.653281 -0.382683 0.653281
v -0.587938 -0.327542 0.587937
v -0.500000 -0.479079 0.500000
v -0.392847 -0.603442 0.392847
v -0.270598 -0.695852 0.270598
v -0.137950 -0.752757 0.137950
v 0.000000 -0.771972 0.000000
v 1.368247 3.676050 0.172872
v -0.831469 0.000000 0.555569
v -0.815493 -0.195090 0.544895
v -0.768177 -0.382683 0.513280
v -0.691341 -0.555570 0.461939
v -0.587938 -0.479079 0.392847
v -0.461940 -0.603442 0.308658
v -0.318190 -0.695852 0.212607
v -0.162212 -0.752757 0.108386
v 1.384456 3.670838 0.000000
v -0.923879 0.000000 0.382683
v -0.906127 -0.195090 0.375330
v -0.853553 -0.382683 0.353553
v -0.768177 -0.555570 0.318189
v -0.653281 -0.479079 0.270598
v -0.513280 -0.603442 0.212607
v -0.353553 -0.695852 0.146447
v -0.180240 -0.752757 0.074658
v 1.368247 3.676050 -0.172871
v -0.980784 0.000000 0.195090
v -0.961939 -0.195090 0.191341
v -0.906127 -0.382683 0.180240
v -0.815493 -0.327542 0.162211
v -0.693520 -0.479079 0.137950
v -0.544895 -0.603442 0.108386
v -0.375330 -0.695852 0.074658
v -0.191342 -0.752757 0.038060
v -0.999999 0.000000 -0.000000
v -0.980785 -0.195090 -0.000000
v -0.923879 -0.382683 -0.000000
v -0.831469 -0.327542 -0.000000
v -0.707107 -0.479079 -0.000000
v -0.555570 -0.603442 -0.000000
v -0.382683 -0.695852 -0.000000
v -0.195090 -0.752757 -0.000000
v 1.320243 3.691484 -0.339099
v -0.980784 0.000000 -0.195091
v -0.961939 -0.195090 -0.191342
v -0.906127 -0.154656 -0.180240
v -0.815493 -0.327542 -0.162212
v -0.693520 -0.479079 -0.137950
v -0.544895 -0.603442 -0.108386
v -0.375330 -0.695852 -0.074658
v -0.191342 -0.752757 -0.038060
v 1.242287 3.716547 -0.492296
v -0.923878 0.000000 -0.382683
v -0.906127 0.032937 -0.375330
v -0.853553 -0.154656 -0.353553
v -0.768177 -0.327542 -0.318190
v -0.653281 -0.479079 -0.270598
v -0.513279 -0.603442 -0.212607
v -0.353553 -0.695852 -0.146447
v -0.180240 -0.752757 -0.074658
v 1.137377 3.750277 -0.626574
v -0.831468 0.000000 -0.555570
v -0.815493 0.032937 -0.544895
v -0.768177 -0.154656 -0.513280
v -0.691341 -0.327542 -0.461940
v -0.587938 -0.479079 -0.392847
v -0.461939 -0.603442 -0.308658
v -0.318189 -0.695852 -0.212607
v -0.162212 -0.752757 -0.108386
v 1.009544 3.791377 -0.736774
v -0.707106 0.000000 -0.707106
v -0.693519 -0.195090 -0.693520
v -0.653281 -0.154656 -0.653281
v -0.587937 -0.327542 -0.587938
v -0.500000 -0.479079 -0.500000
v -0.392847 -0.603442 -0.392847
v -0.270598 -0.695852 -0.270598
v -0.137950 -0.752757 -0.137950
v 0.863700 3.838268 -0.818659
v -0.555569 0.000000 -0.831469
v -0.544895 -0.195090 -0.815493
v -0.513280 -0.382683 -0.768177
v -0.461939 -0.327542 -0.691341
v -0.392847 -0.479079 -0.587938
v -0.308658 -0.603442 -0.461939
v -0.212607 -0.695852 -0.318190
v -0.108386 -0.752757 -0.162212
v 0.705450 3.889147 -0.869084
v -0.382683 0.000000 -0.923879
v -0.375330 -0.195090 -0.906127
v -0.353553 -0.382683 -0.853553
v -0.318189 -0.327542 -0.768177
v -0.270598 -0.479079 -0.653281
v -0.212607 -0.603442 -0.513279
v -0.146446 -0.695852 -0.353553
v -0.074658 -0.752757 -0.180240
v -0.195090 0.000000 -0.980784
v -0.191341 -0.195090 -0.961939
v -0.180240 -0.154656 -0.906127
v -0.162211 -0.327542 -0.815493
v -0.137950 -0.479079 -0.693520
v -0.108386 -0.603442 -0.544895
v -0.074658 -0.695852 -0.375330
v -0.038060 -0.752757 -0.191342
v 0.540875 3.942060 -0.886110
v 0.000000 -0.154656 -0.923879
v 0.000000 -0.479079 -0.707107
v 0.000000 -0.603442 -0.555570
v 0.000000 -0.695852 -0.382683
v 0.000000 -0.752757 -0.195090
v 2.034928 6.038446 -0.395377
v 1.930885 5.873986 -0.589985
v 1.794947 5.659108 -0.695306
v -0.000000 2.317842 -1.000000
v 1.721377 5.542817 -0.708859
v 2.113923 6.113099 -0.138466
v 2.114279 6.065378 -0.268244
v 2.099536 5.997573 -0.387847
v 2.070260 5.912294 -0.492681
v 2.027577 5.812815 -0.578716
v 1.973128 5.702961 -0.642646
v 0.195090 2.317842 -0.980785
v 1.909003 5.586952 -0.682013
v 1.837668 5.469247 -0.695306
v 2.111585 6.105645 -0.127134
v 2.132918 6.044652 -0.249382
v 2.137507 5.964618 -0.362046
v 2.125177 5.868618 -0.460797
v 2.096401 5.760342 -0.541840
v 0.382683 2.317842 -0.923880
v 2.052284 5.643950 -0.602061
v 1.994523 5.523916 -0.639144
v 1.925337 5.404852 -0.651666
v 2.131690 6.092926 -0.114417
v 2.172356 6.019702 -0.224438
v 2.194762 5.928397 -0.325833
v 2.198049 5.822517 -0.414707
v 0.555570 2.317842 -0.831470
v 2.182088 5.706133 -0.487643
v 2.147496 5.583716 -0.541840
v 2.095599 5.459972 -0.575214
v 2.028393 5.339656 -0.586484
v 2.149312 6.081777 -0.097304
v 2.206923 5.997834 -0.190868
v 2.244946 5.896649 -0.277098
v 0.707106 2.317842 -0.707107
v 2.261921 5.782109 -0.352679
v 2.257195 5.658618 -0.414706
v 2.230949 5.530921 -0.460797
v 2.184192 5.403925 -0.489180
v 2.118722 5.282510 -0.498763
v 2.163774 6.072628 -0.076451
v 2.235292 5.979887 -0.149964
v 0.831469 2.317842 -0.555570
v 2.286131 5.870594 -0.217714
v 2.314340 5.748948 -0.277098
v 2.318832 5.619624 -0.325833
v 2.299437 5.487594 -0.362046
v 2.256899 5.357928 -0.384346
v 2.192853 5.235613 -0.391876
v 2.074328 6.145252 0.000000
v 2.174521 6.065829 -0.052660
v 0.923879 2.317842 -0.382683
v 2.256372 5.966551 -0.103297
v 2.316735 5.851233 -0.149964
v 2.353290 5.724307 -0.190868
v 2.364633 5.590649 -0.224437
v 2.350329 5.455399 -0.249382
v 2.310925 5.323750 -0.264742
v 2.247937 5.200765 -0.269929
v 0.980785 2.317842 -0.195090
v 2.181139 6.061643 -0.026846
v 2.269353 5.958339 -0.052660
v 2.335580 5.839311 -0.076451
v 2.377276 5.709132 -0.097304
v 2.392838 5.572806 -0.114417
v 2.381668 5.435572 -0.127134
v 2.344194 5.302703 -0.134964
v 0.999999 2.317842 0.000000
v 2.281858 5.179305 -0.137608
v 2.183373 6.060229 0.000000
v 2.273736 5.955566 0.000000
v 2.341944 5.835285 0.000000
v 2.385375 5.704009 0.000000
v 2.402361 5.566781 0.000000
v 2.392249 5.428877 0.000000
v 0.980785 2.317842 0.195090
v 2.355428 5.295596 0.000000
v 2.293312 5.172059 0.000000
v 2.181139 6.061643 0.026846
v 2.269353 5.958339 0.052661
v 2.335580 5.839311 0.076451
v 2.377276 5.709132 0.097304
v 2.392838 5.572806 0.114417
v 0.923879 2.317842 0.382683
v 2.381668 5.435572 0.127134
v 2.344194 5.302703 0.134964
v 2.281858 5.179305 0.137609
v 2.174521 6.065829 0.052661
v 2.256372 5.966551 0.103297
v 2.316735 5.851233 0.149964
v 2.353290 5.724307 0.190868
v 0.831469 2.317842 0.555570
v 2.364633 5.590649 0.224438
v 2.350329 5.455399 0.249382
v 2.310925 5.323750 0.264742
v 2.247937 5.200765 0.269929
v 2.163774 6.072628 0.076451
v 2.235292 5.979887 0.149964
v 2.286131 5.870594 0.217715
v 0.707106 2.317842 0.707107
v 2.314340 5.748948 0.277098
v 2.318832 5.619624 0.325833
v 2.299437 5.487594 0.362046
v 2.256899 5.357929 0.384346
v 2.192853 5.235613 0.391876
v 2.149312 6.081778 0.097304
v 2.206923 5.997834 0.190869
v 0.555569 2.317842 0.831469
v 2.244946 5.896649 0.277098
v 2.261921 5.782109 0.352679
v 2.257194 5.658618 0.414706
v 2.230949 5.530921 0.460797
v 2.184192 5.403925 0.489180
v 2.118721 5.282510 0.498763
v 2.131690 6.092926 0.114417
v 0.382683 2.317842 0.923879
v 2.172356 6.019703 0.224438
v 2.194762 5.928397 0.325833
v 2.198048 5.822517 0.414707
v 2.182088 5.706133 0.487643
v 2.147496 5.583716 0.541840
v 2.095598 5.459972 0.575215
v 2.028392 5.339656 0.586484
v 0.195090 2.317842 0.980785
v 2.111585 6.105645 0.127134
v 2.132918 6.044652 0.249382
v 2.137507 5.964618 0.362046
v 2.125177 5.868618 0.460797
v 2.096400 5.760342 0.541840
v 2.052284 5.643950 0.602061
v 1.994523 5.523916 0.639144
v -0.000001 2.317842 0.999999
v 1.925336 5.404852 0.651666
v 2.089769 6.119446 0.134964
v 2.090126 6.071724 0.264742
v 2.075382 6.003920 0.384346
v 2.046107 5.918641 0.489180
v 2.003424 5.819162 0.575214
v 1.948974 5.709308 0.639144
v -0.195091 2.317842 0.980784
v 1.884849 5.593299 0.678512
v 1.837668 5.469248 0.688303
v 2.091236 6.127452 0.134107
v 2.069776 6.093531 0.266427
v 2.034928 6.038447 0.388374
v 1.988030 5.964315 0.495262
v 1.930885 5.873986 0.582982
v -0.382684 2.317842 0.923879
v 1.865689 5.770930 0.648164
v 1.794946 5.659108 0.688303
v 1.721377 5.542817 0.701856
v 2.068548 6.141805 0.131463
v 2.025273 6.121685 0.261241
v 1.970320 6.079320 0.380845
v 1.905800 6.016337 0.485678
v -0.555570 2.317842 0.831469
v 1.834192 5.935156 0.571713
v 1.758250 5.838899 0.635643
v 1.680890 5.731264 0.675010
v 1.605086 5.616386 0.688303
v 2.046733 6.155606 0.123632
v 1.982481 6.148757 0.245880
v 1.908195 6.118622 0.358544
v -0.707107 2.317842 0.707106
v 1.826730 6.066360 0.457296
v 1.741216 5.993977 0.538339
v 1.654940 5.904257 0.598559
v 1.571216 5.800647 0.635643
v 1.493264 5.687129 0.648164
v 2.026628 6.168324 0.110916
v 1.943043 6.173707 0.220936
v -0.831469 2.317842 0.555569
v 1.850940 6.154843 0.322331
v 1.753858 6.112460 0.411205
v 1.655528 6.048185 0.484142
v 1.559728 5.964490 0.538339
v 1.470141 5.864591 0.571713
v 1.390208 5.752326 0.582982
v 2.009006 6.179473 0.093802
v -0.923879 2.317842 0.382683
v 1.908476 6.069502 0.187367
v 1.800756 6.060519 0.273596
v 1.689986 6.026795 0.349178
v 1.580422 5.969627 0.411205
v 1.476275 5.891212 0.457296
v 1.381547 5.794565 0.485678
v 1.299879 5.809470 0.495261
v -0.980785 2.317842 0.195090
v 1.994543 6.188623 0.072950
v 1.880107 6.087450 0.146463
v 1.308840 5.840562 0.380844
v -0.999999 2.317842 -0.000000
v 1.225747 5.856368 0.388374
v 1.983797 6.195421 0.049159
v 1.859027 6.100785 0.099796
v -0.980785 2.317842 -0.195091
v 1.254814 5.874741 0.261241
v 1.170663 5.891216 0.266427
v 1.977179 6.199608 0.023345
v 1.846046 6.108997 0.049159
v -0.923879 2.317842 -0.382684
v 1.221545 5.895788 0.131463
v 1.136742 5.912675 0.134107
v 1.974945 6.201022 -0.003501
v 1.841663 6.111771 -0.003501
v -0.831469 2.317842 -0.555570
v 1.210312 5.902894 -0.003502
v 1.125289 5.919921 -0.003502
v 1.977179 6.199608 -0.030347
v 1.846046 6.108997 -0.056162
v -0.707106 2.317842 -0.707106
v 1.221545 5.895788 -0.138466
v 1.136742 5.912675 -0.141110
v 1.983797 6.195421 -0.056162
v 1.859027 6.100785 -0.106799
v -0.555570 2.317842 -0.831469
v 1.254815 5.874741 -0.268244
v 1.170663 5.891216 -0.273430
v 1.994543 6.188623 -0.079953
v -0.382683 2.317842 -0.923879
v 1.880107 6.087450 -0.153466
v 1.308841 5.840562 -0.387847
v 1.225748 5.856368 -0.395377
v -0.195090 2.317842 -0.980784
v 2.009006 6.179473 -0.100805
v 1.908476 6.069502 -0.194370
v 1.800756 6.060518 -0.280599
v 1.689986 6.026795 -0.356180
v -0.055627 4.133842 -0.626574
v 0.072207 4.092742 -0.736773
v 0.218051 4.045851 -0.818658
v 0.376301 3.994972 -0.869083
v 1.580422 5.969627 -0.418208
v 1.476275 5.891212 -0.464298
v 1.381547 5.794565 -0.492681
v 1.299879 5.809470 -0.502264
v 2.026628 6.168324 -0.117919
v 1.943043 6.173707 -0.227939
v 1.850941 6.154843 -0.329334
v 1.753858 6.112460 -0.418208
v 1.655528 6.048185 -0.491144
v 1.559728 5.964490 -0.545341
v 1.470141 5.864590 -0.578716
v 1.390208 5.752324 -0.589985
v 2.046733 6.155606 -0.130635
v 1.982481 6.148757 -0.252883
v 1.908195 6.118622 -0.365547
v 1.826730 6.066360 -0.464299
v 1.741216 5.993977 -0.545341
v 1.654940 5.904257 -0.605562
v 1.571217 5.800647 -0.642645
v 1.493264 5.687128 -0.655166
v 2.068548 6.141805 -0.138466
v 2.025274 6.121685 -0.268243
v 1.970320 6.079320 -0.387847
v 1.905800 6.016337 -0.492681
v 1.834193 5.935156 -0.578716
v 1.758250 5.838899 -0.642645
v 1.680890 5.731264 -0.682013
v 1.605086 5.616386 -0.695305
v 2.091236 6.127452 -0.141110
v 2.069776 6.093531 -0.273430
v 1.988030 5.964315 -0.502265
v 1.865689 5.770930 -0.655167
v 0.532606 5.011970 -0.443837
v 1.784090 4.446124 -0.304514
v 0.425123 5.060372 0.153489
v 1.394518 4.621560 -0.735162
v 0.990694 4.805679 -0.782194
v 1.825053 4.427677 0.155240
v 1.271559 4.679197 -0.782195
v 1.131126 4.742438 -0.797485
v 0.731207 4.922534 0.659877
v 0.855657 4.866490 0.733411
v 0.466086 5.041925 -0.306265
v 1.838884 4.421449 0.000000
v 1.825053 4.427677 -0.155240
v 1.394518 4.621560 0.735162
v 1.518968 4.565516 0.661628
v 1.518968 4.565516 -0.661629
v 0.466085 5.041925 0.302763
v 1.717570 4.476080 -0.442086
v 1.628049 4.516394 -0.562669
v 1.628049 4.516394 0.562669
v 1.271559 4.679197 0.778693
v 0.622126 4.971656 -0.564419
v 0.855657 4.866489 -0.736912
v 0.731208 4.922533 -0.663379
v 0.532605 5.011970 0.440335
v 0.622126 4.971656 0.560918
v 0.425123 5.060372 -0.156991
v 0.411291 5.066601 -0.001751
v 1.717570 4.476080 0.442086
v 1.784090 4.446124 0.304514
v 1.002770 4.802506 0.776942
v 1.143203 4.739264 0.792232
v 0.186034 4.589770 -0.468067
v 1.552166 4.068804 -0.321807
v 0.069313 4.634221 0.163180
v 0.683497 4.400326 -0.825638
v 1.596650 4.051864 0.164056
v 0.988504 4.284172 -0.825639
v 0.401707 4.507638 0.698325
v 0.113797 4.617280 -0.322682
v 1.611670 4.046144 0.000000
v 1.264256 4.178447 0.699201
v 0.113796 4.617280 0.320931
v 1.479929 4.096313 -0.467191
v 1.382713 4.133336 0.594622
v 0.536854 4.456170 -0.777785
v 0.186034 4.589771 0.466315
v 0.069313 4.634221 -0.164931
v 1.479929 4.096313 0.467191
v 0.701612 4.395566 0.821262
v 1.129109 4.229914 -0.776911
v 0.836000 4.342249 -0.841797
v 0.536853 4.456171 0.776035
v 1.596650 4.051864 -0.164056
v 1.129108 4.229914 0.776910
v 1.264256 4.178447 -0.699201
v 1.382713 4.133336 -0.594622
v 0.988504 4.284172 0.823888
v 0.283250 4.552749 -0.595497
v 0.401707 4.507638 -0.700076
v 0.283249 4.552750 0.593746
v 0.054293 4.639941 -0.000876
v 1.552166 4.068804 0.321807
v 0.854115 4.337489 0.837420
v 0.012749 4.378671 -0.480181
v 1.436204 3.880144 -0.330453
v -0.108592 4.421145 0.168025
v 0.529899 4.197649 -0.847361
v 1.482448 3.863957 0.168464
v 0.846977 4.086659 -0.847362
v 0.236956 4.300190 0.717549
v -0.062348 4.404958 -0.330891
v 1.498063 3.858491 0.000000
v 1.136899 3.984912 0.717987
v -0.062348 4.404958 0.330015
v 1.361108 3.906430 -0.479744
v 1.260045 3.941806 0.610598
v 0.377452 4.251011 -0.798222
v 0.012748 4.378672 0.479305
v -0.108592 4.421145 -0.168902
v 1.361108 3.906430 0.479744
v 0.551033 4.192096 0.843422
v 0.996404 4.034091 -0.797785
v 0.688438 4.142154 -0.863954
v 0.377452 4.251011 0.797346
v 1.482449 3.863957 -0.168463
v 0.996404 4.034091 0.797784
v 1.136900 3.984912 -0.717987
v 1.260045 3.941806 -0.610598
v 0.846977 4.086659 0.846486
v 0.113812 4.343295 -0.611035
v 0.236957 4.300190 -0.718425
v 0.113811 4.343296 0.610160
v -0.124207 4.426611 -0.000438
v 1.436204 3.880144 0.330453
v 0.709572 4.136600 0.860014
v 0.090605 3.156407 -0.924934
v 0.922242 3.034060 -0.666841
v 1.036878 3.017195 0.523933
v 0.450270 3.103494 -0.924935
v 0.270437 3.129951 -0.943055
v -0.381366 3.225842 -0.666840
v 1.122061 3.004663 0.360892
v 1.174516 2.996946 0.183981
v -0.381367 3.225842 0.666840
v -0.241682 3.205292 0.784121
v 0.782557 3.054610 -0.784122
v 0.623191 3.078055 -0.871269
v -0.082317 3.181847 0.871268
v 0.102681 3.153234 0.923183
v -0.496003 3.242707 -0.523933
v -0.581185 3.255239 -0.360892
v 1.192228 2.994340 0.000000
v 1.174516 2.996946 -0.183981
v 0.623191 3.078055 0.871269
v -0.633641 3.262956 -0.183981
v -0.651353 3.265561 -0.000000
v -0.496003 3.242707 0.523932
v 1.122061 3.004663 -0.360891
v 1.036878 3.017195 -0.523933
v 0.782556 3.054610 0.784121
v 0.922241 3.034060 0.666840
v 0.282514 3.126777 0.941304
v 0.450269 3.103495 0.924934
v -0.633641 3.262956 0.183980
v -0.581186 3.255239 0.360891
v -0.082316 3.181847 -0.871268
v -0.241681 3.205292 -0.784121
v 1.029809 3.392169 -0.646707
v 1.139583 3.366871 0.508115
v 0.405656 3.536005 -0.914583
v -0.218496 3.679842 -0.646707
v 1.271381 3.336498 0.178426
v -0.084738 3.649017 0.760447
v 0.743445 3.458161 -0.844964
v 0.251567 3.570930 0.894382
v -0.409839 3.723937 -0.349996
v 1.271382 3.336498 -0.178426
v 0.743445 3.458161 0.844964
v -0.477029 3.739421 -0.000000
v -0.328270 3.705140 0.508114
v 1.139583 3.366871 -0.508115
v 1.029809 3.392169 0.646707
v 0.577859 3.496321 0.897009
v -0.409839 3.723937 0.349995
v -0.084737 3.649017 -0.760447
v 0.233453 3.575690 -0.897008
v 0.577860 3.496321 -0.897009
v 1.221151 3.348073 0.349996
v -0.218497 3.679842 0.646707
v 0.896050 3.422994 -0.760448
v 0.067867 3.613849 0.844963
v -0.328270 3.705139 -0.508115
v 1.288342 3.332589 0.000000
v -0.460069 3.735512 -0.178427
v 1.221152 3.348073 -0.349995
v 0.896050 3.422994 0.760447
v 0.423771 3.531245 0.911956
v -0.460069 3.735512 0.178426
v 0.067867 3.613849 -0.844963
v 1.888193 6.142668 0.187367
v 1.780473 6.133685 0.273596
v 1.669703 6.099961 0.349177
v 1.560139 6.042793 0.411205
v 1.455992 5.964378 0.457296
v 1.361264 5.867731 0.485678
v 1.859824 6.160615 0.146463
v 1.739288 6.159740 0.214213
v 1.617284 6.133123 0.273597
v 1.498501 6.081788 0.322331
v 1.387504 6.007707 0.358545
v 1.288558 5.913728 0.380844
v 1.838744 6.173951 0.099796
v 1.708685 6.179101 0.146463
v 1.578334 6.157764 0.187367
v 1.452700 6.110763 0.220936
v 1.336612 6.039902 0.245880
v 1.234531 5.947907 0.261241
v 1.825763 6.182163 0.049159
v 1.689840 6.191022 0.072950
v 1.554348 6.172938 0.093802
v 1.424496 6.128605 0.110916
v 1.305274 6.059729 0.123632
v 1.201262 5.968954 0.131463
v 1.821380 6.184937 -0.003501
v 1.683476 6.195048 -0.003501
v 1.546249 6.178062 -0.003501
v 1.414973 6.134631 -0.003502
v 1.294692 6.066422 -0.003501
v 1.190029 5.976060 -0.003502
v 1.825763 6.182163 -0.056162
v 1.689840 6.191022 -0.079953
v 1.554348 6.172938 -0.100805
v 1.424496 6.128605 -0.117919
v 1.305274 6.059729 -0.130635
v 1.201262 5.968954 -0.138466
v 1.838744 6.173951 -0.106799
v 1.708685 6.179101 -0.153466
v 1.578334 6.157764 -0.194370
v 1.452700 6.110763 -0.227939
v 1.336612 6.039902 -0.252883
v 1.234532 5.947906 -0.268244
v 1.859824 6.160615 -0.153466
v 1.739288 6.159740 -0.221216
v 1.617285 6.133123 -0.280599
v 1.498501 6.081788 -0.329334
v 1.387504 6.007707 -0.365547
v 1.288558 5.913728 -0.387847
v 1.888193 6.142668 -0.194370
v 1.780474 6.133684 -0.280599
v 1.669703 6.099961 -0.356180
v 1.560139 6.042793 -0.418208
v 1.455992 5.964378 -0.464298
v 1.361264 5.867731 -0.492681
v -0.052242 2.737124 -0.952859
v 0.322680 2.710668 -0.952860
v 1.022970 2.661252 0.371787
v -0.544237 2.771842 0.686973
v 0.669063 2.686226 -0.807796
v -0.232500 2.749845 0.897574
v -0.663736 2.780274 -0.539752
v 1.096114 2.656091 0.000000
v -0.807213 2.790399 -0.189536
v 1.022970 2.661252 -0.371787
v 0.669063 2.686226 0.807795
v 0.141257 2.722310 0.970652
v -0.807213 2.790399 0.189535
v -0.232499 2.749844 -0.897574
v 0.814674 2.675951 -0.686974
v 0.934173 2.667518 0.539752
v 0.135218 2.723897 -0.971528
v -0.544236 2.771842 -0.686973
v 1.077650 2.657394 0.189536
v -0.398626 2.761567 0.807795
v 0.502937 2.697948 -0.897574
v -0.046205 2.735538 0.951984
v -0.752532 2.786540 -0.371788
v 1.077650 2.657394 -0.189535
v 0.502937 2.697948 0.897574
v -0.825676 2.791702 -0.000000
v -0.663736 2.780274 0.539751
v 0.934174 2.667518 -0.539752
v 0.814674 2.675951 0.686974
v 0.322679 2.710668 0.952859
v -0.752533 2.786540 0.371787
v -0.398625 2.761567 -0.807795
v -0.123666 2.527483 -0.966822
v 0.258885 2.514255 -0.966823
v 0.973424 2.489547 0.377235
v -0.625672 2.544842 0.697039
v 0.612317 2.502034 -0.819633
v -0.307592 2.533843 0.910726
v -0.747602 2.549058 -0.547661
v 1.048056 2.486967 0.000000
v -0.893999 2.554121 -0.192313
v 0.973424 2.489547 -0.377235
v 0.612316 2.502034 0.819632
v 0.070628 2.520076 0.985325
v -0.893999 2.554121 0.192312
v -0.307591 2.533843 -0.910726
v 0.760890 2.496896 -0.697040
v 0.882821 2.492680 0.547661
v 0.067609 2.520869 -0.985764
v -0.625671 2.544842 -0.697040
v 1.029217 2.487618 0.192313
v -0.477098 2.539705 0.819632
v 0.442810 2.507895 -0.910727
v -0.120648 2.526690 0.966384
v -0.838205 2.552191 -0.377236
v 1.029217 2.487618 -0.192313
v 0.442810 2.507895 0.910727
v -0.912838 2.554772 -0.000000
v -0.747603 2.549058 0.547660
v 0.882821 2.492680 -0.547661
v 0.760890 2.496896 0.697040
v 0.258885 2.514255 0.966822
v -0.838206 2.552191 0.377235
v -0.477098 2.539705 -0.819632
v -0.000000 1.158921 0.999999
v -0.831469 1.158921 -0.555570
v -0.382683 1.158921 -0.923879
v -0.195090 1.158921 -0.980784
v 0.555570 1.158921 -0.831470
v 0.923879 1.158921 -0.382683
v -0.923879 1.158921 0.382683
v 0.195090 1.158921 0.980785
v 0.382683 1.158921 0.923879
v -0.195091 1.158921 0.980785
v -0.923879 1.158921 -0.382684
v -0.980784 1.158921 -0.195091
v 0.980785 1.158921 0.195090
v 0.382683 1.158921 -0.923880
v -0.831469 1.158921 0.555569
v -0.707107 1.158921 0.707106
v 0.831469 1.158921 -0.555570
v 0.707107 1.158921 -0.707107
v 0.555570 1.158921 0.831469
v 0.707106 1.158921 0.707107
v -0.999999 1.158921 -0.000000
v -0.980785 1.158921 0.195090
v 0.195090 1.158921 -0.980785
v -0.000000 1.158921 -1.000000
v 1.000000 1.158921 0.000000
v 0.980785 1.158921 -0.195090
v -0.555569 1.158921 -0.831469
v -0.707106 1.158921 -0.707106
v 0.831469 1.158921 0.555570
v 0.923879 1.158921 0.382683
v -0.555570 1.158921 0.831469
v -0.382684 1.158921 0.923879
v -0.000001 1.738382 0.999999
v -0.831469 1.738382 -0.555570
v -0.382683 1.738382 -0.923879
v -0.195090 1.738382 -0.980784
v 0.555570 1.738382 -0.831470
v 0.923879 1.738382 -0.382683
v -0.923879 1.738382 0.382683
v 0.382683 1.738382 0.923879
v -0.195091 1.738382 0.980785
v -0.980785 1.738382 -0.195091
v 0.980785 1.738382 0.195090
v -0.707107 1.738382 0.707106
v 0.707106 1.738382 -0.707107
v 0.707106 1.738382 0.707107
v -0.980785 1.738382 0.195090
v -0.000000 1.738382 -1.000000
v 0.980785 1.738382 -0.195090
v -0.707106 1.738382 -0.707106
v 0.923879 1.738382 0.382683
v -0.382684 1.738382 0.923879
v 0.195090 1.738382 0.980785
v -0.923879 1.738382 -0.382684
v 0.382683 1.738382 -0.923880
v -0.831469 1.738382 0.555569
v 0.831469 1.738382 -0.555570
v 0.555569 1.738382 0.831469
v -0.999999 1.738382 -0.000000
v 0.195090 1.738382 -0.980785
v 0.999999 1.738382 0.000000
v -0.555570 1.738382 -0.831469
v 0.831469 1.738382 0.555570
v -0.555570 1.738382 0.831469
v -0.000001 2.028112 0.999999
v -0.831469 2.028112 -0.555570
v -0.382683 2.028112 -0.923879
v -0.195090 2.028112 -0.980784
v 0.555570 2.028112 -0.831470
v 0.923879 2.028112 -0.382683
v -0.923879 2.028112 0.382683
v 0.382683 2.028112 0.923879
v -0.195091 2.028112 0.980785
v -0.980785 2.028112 -0.195091
v 0.980785 2.028112 0.195090
v -0.707107 2.028112 0.707106
v 0.707106 2.028112 -0.707107
v 0.707106 2.028112 0.707107
v -0.980785 2.028112 0.195090
v -0.000000 2.028112 -1.000000
v 0.980785 2.028112 -0.195090
v -0.707106 2.028112 -0.707106
v 0.923879 2.028112 0.382683
v -0.382684 2.028112 0.923879
v 0.195090 2.028112 0.980785
v -0.923879 2.028112 -0.382684
v 0.382683 2.028112 -0.923880
v -0.831469 2.028112 0.555569
v 0.831469 2.028112 -0.555570
v 0.555569 2.028112 0.831469
v -0.999999 2.028112 -0.000000
v 0.195090 2.028112 -0.980785
v 0.999999 2.028112 0.000000
v -0.555570 2.028112 -0.831469
v 0.831469 2.028112 0.555570
v -0.555570 2.028112 0.831469
s 0
usemtl Material.001
f 2 1 5 6
f 6 5 14 15
f 15 14 23 24
f 16 15 24 25
f 24 23 32 33
f 25 24 33 34
f 69 68 77 78
f 70 69 78 79
f 68 67 76 77
f 77 76 85 86
f 78 77 86 87
f 104 103 112 113
f 113 112 121 122
f 114 113 122 123
f 122 121 130 131
f 123 122 131 132
f 131 130 138 139
f 166 165 174 175
f 167 166 175 176
f 175 174 184 185
f 176 175 185 186
f 177 176 186 187
f 186 185 194 195
f 187 186 195 196
f 185 184 193 194
f 194 193 202 203
f 195 194 203 204
f 196 195 204 205
f 205 204 212 213
f 203 202 210 211
f 204 203 211 212
f 211 210 219 220
f 212 211 220 221
f 220 219 228 229
f 247 246 255 256
f 256 255 264 265
f 265 264 272 273
f 273 272 1 2
f 287 549 294 295
f 550 287 295 296
f 288 550 296 298
f 290 288 298 299
f 547 336 291
f 548 547 291 292
f 286 548 292 293
f 549 286 293 294
f 294 293 302 303
f 295 294 303 304
f 296 295 304 306
f 298 296 306 307
f 299 298 307 308
f 291 336 300
f 292 291 300 301
f 293 292 301 302
f 308 307 316 317
f 300 336 309
f 301 300 309 310
f 302 301 310 311
f 303 302 311 312
f 304 303 312 314
f 306 304 314 315
f 307 306 315 316
f 314 312 322 323
f 315 314 323 324
f 316 315 324 325
f 317 316 325 326
f 309 336 318
f 310 309 318 319
f 311 310 319 320
f 312 311 320 322
f 318 336 327
f 319 318 327 328
f 320 319 328 330
f 322 320 330 331
f 323 322 331 332
f 324 323 332 333
f 325 324 333 334
f 326 325 334 335
f 332 331 341 342
f 333 332 342 343
f 334 333 343 344
f 335 334 344 345
f 327 336 337
f 328 327 337 339
f 330 328 339 340
f 331 330 340 341
f 339 337 347 348
f 340 339 348 349
f 341 340 349 350
f 342 341 350 351
f 343 342 351 352
f 344 343 352 353
f 345 344 353 355
f 337 336 347
f 352 351 360 361
f 353 352 361 363
f 355 353 363 364
f 347 336 356
f 348 347 356 357
f 349 348 357 358
f 350 349 358 359
f 351 350 359 360
f 357 356 365 366
f 358 357 366 367
f 359 358 367 368
f 360 359 368 369
f 361 360 369 371
f 363 361 371 372
f 364 363 372 373
f 356 336 365
f 371 369 379 380
f 372 371 380 381
f 373 372 381 382
f 365 336 374
f 366 365 374 375
f 367 366 375 376
f 368 367 376 377
f 369 368 377 379
f 376 375 384 385
f 377 376 385 387
f 379 377 387 388
f 380 379 388 389
f 381 380 389 390
f 382 381 390 391
f 374 336 383
f 375 374 383 384
f 390 389 398 399
f 391 390 399 400
f 383 336 392
f 384 383 392 393
f 385 384 393 395
f 387 385 395 396
f 388 387 396 397
f 389 388 397 398
f 396 395 404 405
f 397 396 405 406
f 398 397 406 407
f 399 398 407 408
f 400 399 408 409
f 392 336 401
f 393 392 401 403
f 395 393 403 404
f 409 408 417 419
f 401 336 411
f 403 401 411 412
f 404 403 412 413
f 405 404 413 414
f 406 405 414 415
f 407 406 415 416
f 408 407 416 417
f 414 413 422 423
f 415 414 423 424
f 416 415 424 425
f 417 416 425 427
f 419 417 427 428
f 411 336 420
f 412 411 420 421
f 413 412 421 422
f 428 427 436 437
f 420 336 429
f 421 420 429 430
f 422 421 430 431
f 423 422 431 432
f 424 423 432 433
f 425 424 433 435
f 427 425 435 436
f 433 432 441 443
f 435 433 443 444
f 436 435 444 445
f 437 436 445 446
f 429 336 438
f 430 429 438 439
f 431 430 439 440
f 432 431 440 441
f 438 336 447
f 439 438 447 448
f 440 439 448 449
f 441 440 449 451
f 443 441 451 452
f 444 443 452 453
f 445 444 453 454
f 446 445 454 455
f 452 451 460 461
f 453 452 461 462
f 454 453 462 463
f 455 454 463 464
f 447 336 456
f 448 447 456 457
f 449 448 457 459
f 451 449 459 460
f 457 456 465 467
f 456 336 465
f 465 336 475
f 467 465 475 476
f 475 336 480
f 476 475 480 481
f 480 336 485
f 481 480 485 486
f 491 496 741 735
f 476 481 723 717
f 485 336 490
f 486 485 490 491
f 490 336 495
f 491 490 495 496
f 507 512 759 753
f 481 486 729 723
f 495 336 500
f 496 495 500 501
f 500 336 505
f 501 500 505 507
f 496 501 747 741
f 467 476 717 711
f 486 491 735 729
f 501 507 753 747
f 505 336 511
f 507 505 511 512
f 688 706 218 201
f 681 697 518 280
f 680 699 173 164
f 691 700 75 58
f 682 703 4 515
f 679 701 245 236
f 697 710 517 518
f 689 707 146 129
f 692 679 236 227
f 683 704 192 183
f 693 680 164 155
f 684 702 93 84
f 685 698 263 254
f 698 681 280 263
f 687 705 22 13
f 696 682 515 516
f 699 683 183 173
f 700 684 84 75
f 686 708 111 102
f 690 709 40 31
f 701 685 254 245
f 702 686 102 93
f 703 687 13 4
f 704 688 201 192
f 694 689 129 120
f 705 690 31 22
f 695 691 58 49
f 706 692 227 218
f 707 693 155 146
f 708 694 120 111
f 709 695 49 40
f 710 696 516 517
f 560 581 446 455
f 564 565 409 419
f 572 551 509 522
f 551 561 504 509
f 563 552 345 355
f 552 568 335 345
f 578 553 489 494
f 580 556 373 382
f 554 557 299 308
f 553 567 484 489
f 558 555 546 290
f 566 554 308 317
f 555 573 538 546
f 576 559 464 473
f 556 562 364 373
f 557 558 290 299
f 559 560 455 464
f 561 577 499 504
f 562 563 355 364
f 571 564 419 428
f 565 570 400 409
f 569 566 317 326
f 567 575 479 484
f 568 569 326 335
f 570 579 391 400
f 582 571 428 437
f 574 572 522 530
f 573 574 530 538
f 575 576 473 479
f 577 578 494 499
f 579 580 382 391
f 581 582 437 446
f 511 336 523
f 512 511 523 524
f 527 526 534 535
f 528 527 535 536
f 529 528 536 537
f 530 529 537 538
f 523 336 531
f 524 523 531 532
f 525 524 532 533
f 526 525 533 534
f 532 531 539 540
f 533 532 540 541
f 534 533 541 542
f 535 534 542 543
f 536 535 543 544
f 537 536 544 545
f 538 537 545 546
f 531 336 539
f 544 543 287 550
f 545 544 550 288
f 546 545 288 290
f 539 336 547
f 540 539 547 548
f 541 540 548 286
f 542 541 286 549
f 543 542 549 287
f 600 614 582 581
f 599 613 580 579
f 598 612 578 577
f 597 611 576 575
f 596 610 574 573
f 610 609 572 574
f 614 608 571 582
f 595 599 579 570
f 594 607 569 568
f 593 597 575 567
f 607 606 566 569
f 592 595 570 565
f 608 605 564 571
f 591 604 563 562
f 590 598 577 561
f 589 603 560 559
f 588 602 558 557
f 587 591 562 556
f 611 589 559 576
f 586 596 573 555
f 606 601 554 566
f 602 586 555 558
f 585 593 567 553
f 601 588 557 554
f 613 587 556 580
f 612 585 553 578
f 584 594 568 552
f 604 584 552 563
f 583 590 561 551
f 609 583 551 572
f 605 592 565 564
f 603 600 581 560
f 778 796 678 677
f 777 795 676 675
f 776 794 674 673
f 775 793 672 671
f 774 792 670 669
f 795 791 668 676
f 773 790 667 666
f 794 789 665 674
f 772 788 664 663
f 771 787 662 661
f 770 786 660 659
f 769 785 658 657
f 790 777 675 667
f 786 776 673 660
f 768 784 656 655
f 767 783 654 653
f 796 782 652 678
f 787 773 666 662
f 766 781 651 650
f 785 766 650 658
f 784 770 659 656
f 793 780 649 672
f 783 772 663 654
f 792 779 648 670
f 789 775 671 665
f 765 778 677 647
f 779 769 657 648
f 782 771 661 652
f 791 768 655 668
f 780 767 653 649
f 781 765 647 651
f 788 774 669 664
f 677 678 696 710
f 675 676 695 709
f 673 674 694 708
f 671 672 693 707
f 669 670 692 706
f 676 668 691 695
f 666 667 690 705
f 674 665 689 694
f 663 664 688 704
f 661 662 687 703
f 659 660 686 702
f 657 658 685 701
f 667 675 709 690
f 660 673 708 686
f 655 656 684 700
f 653 654 683 699
f 678 652 682 696
f 662 666 705 687
f 650 651 681 698
f 658 650 698 685
f 656 659 702 684
f 672 649 680 693
f 654 663 704 683
f 670 648 679 692
f 665 671 707 689
f 647 677 710 697
f 648 657 701 679
f 652 661 703 682
f 668 655 700 691
f 649 653 699 680
f 651 647 697 681
f 664 669 706 688
f 820 806 774 788
f 813 797 765 781
f 812 799 767 780
f 823 800 768 791
f 814 803 771 782
f 811 801 769 779
f 797 810 778 765
f 821 807 775 789
f 824 811 779 792
f 815 804 772 783
f 825 812 780 793
f 816 802 770 784
f 817 798 766 785
f 798 813 781 766
f 819 805 773 787
f 828 814 782 796
f 799 815 783 767
f 800 816 784 768
f 818 808 776 786
f 822 809 777 790
f 801 817 785 769
f 802 818 786 770
f 803 819 787 771
f 804 820 788 772
f 826 821 789 794
f 805 822 790 773
f 827 823 791 795
f 806 824 792 774
f 807 825 793 775
f 808 826 794 776
f 809 827 795 777
f 810 828 796 778
f 165 156 860 859
f 94 85 858 857
f 255 246 856 855
f 5 1 852 851
f 210 202 850 849
f 112 103 848 847
f 41 32 846 845
f 184 174 844 843
f 14 5 851 842
f 85 76 841 858
f 228 219 840 839
f 130 121 837 836
f 202 193 835 850
f 59 50 834 854
f 32 23 833 846
f 1 272 832 852
f 272 264 831 832
f 103 94 857 848
f 246 237 830 856
f 174 165 859 844
f 121 112 847 837
f 147 138 829 838
f 219 210 849 840
f 76 67 853 841
f 23 14 842 833
f 50 41 845 834
f 138 130 836 829
f 237 228 839 830
f 193 184 843 835
f 264 255 855 831
f 859 860 880 892
f 857 858 879 891
f 855 856 878 890
f 853 854 877 889
f 851 852 876 888
f 849 850 875 887
f 847 848 874 886
f 845 846 873 885
f 843 844 872 884
f 842 851 888 883
f 858 841 871 879
f 839 840 870 882
f 860 838 869 880
f 836 837 868 881
f 850 835 867 875
f 854 834 866 877
f 846 833 865 873
f 852 832 864 876
f 832 831 863 864
f 848 857 891 874
f 856 830 862 878
f 844 859 892 872
f 837 847 886 868
f 838 829 861 869
f 840 849 887 870
f 841 853 889 871
f 833 842 883 865
f 834 845 885 866
f 829 836 881 861
f 830 839 882 862
f 835 843 884 867
f 831 855 890 863
f 892 880 912 924
f 891 879 911 923
f 890 878 910 922
f 889 877 909 921
f 888 876 908 920
f 887 875 907 919
f 886 874 906 918
f 885 873 905 917
f 884 872 904 916
f 883 888 920 915
f 879 871 903 911
f 882 870 902 914
f 880 869 901 912
f 881 868 900 913
f 875 867 899 907
f 877 866 898 909
f 873 865 897 905
f 876 864 896 908
f 864 863 895 896
f 874 891 923 906
f 878 862 894 910
f 872 892 924 904
f 868 886 918 900
f 869 861 893 901
f 870 887 919 902
f 871 889 921 903
f 865 883 915 897
f 866 885 917 898
f 861 881 913 893
f 862 882 914 894
f 867 884 916 899
f 863 890 922 895
usemtl Material.002
f 895 922 502 506
f 899 916 458 466
f 894 914 487 492
f 893 913 410 418
f 898 917 329 338
f 897 915 305 313
f 903 921 354 362
f 902 919 478 482
f 901 893 418 426
f 900 918 394 402
f 904 924 442 450
f 910 894 492 497
f 906 923 378 386
f 896 895 506 510
f 908 896 510 289
f 905 897 313 321
f 909 898 338 346
f 907 899 466 474
f 913 900 402 410
f 912 901 426 434
f 914 902 482 487
f 911 903 362 370
f 915 920 297 305
f 916 904 450 458
f 917 905 321 329
f 918 906 386 394
f 919 907 474 478
f 920 908 289 297
f 921 909 346 354
f 922 910 497 502
f 923 911 370 378
f 924 912 434 442
f 459 457 467 468
f 460 459 468 469
f 461 460 469 470
f 462 461 470 471
f 463 462 471 472
f 464 463 472 473
f 473 472 477 479
f 479 477 483 484
f 484 483 488 489
f 503 498 746 752
f 488 483 728 734
f 512 513 760 759
f 471 470 714 715
f 489 488 493 494
f 477 472 716 722
f 494 493 498 499
f 493 488 734 740
f 470 469 713 714
f 508 503 752 758
f 469 468 712 713
f 468 467 711 712
f 520 521 764 763
f 499 498 503 504
f 483 477 722 728
f 504 503 508 509
f 519 520 763 762
f 521 508 758 764
f 498 493 740 746
f 514 519 762 761
f 472 471 715 716
f 509 508 521 522
f 513 514 761 760
f 522 521 529 530
f 513 512 524 525
f 514 513 525 526
f 519 514 526 527
f 520 519 527 528
f 521 520 528 529
f 635 632 600 603
f 637 624 592 605
f 641 615 583 609
f 615 622 590 583
f 636 616 584 604
f 616 626 594 584
f 644 617 585 612
f 645 619 587 613
f 633 620 588 601
f 617 625 593 585
f 634 618 586 602
f 638 633 601 606
f 618 628 596 586
f 643 621 589 611
f 619 623 591 587
f 620 634 602 588
f 621 635 603 589
f 622 630 598 590
f 623 636 604 591
f 640 637 605 608
f 624 627 595 592
f 639 638 606 607
f 625 629 597 593
f 626 639 607 594
f 627 631 599 595
f 646 640 608 614
f 642 641 609 610
f 628 642 610 596
f 629 643 611 597
f 630 644 612 598
f 631 645 613 599
f 632 646 614 600
f 102 111 646 632
f 164 173 645 631
f 22 31 644 630
f 58 75 643 629
f 517 516 642 628
f 516 515 641 642
f 111 120 640 646
f 155 164 631 627
f 227 236 639 626
f 49 58 629 625
f 236 245 638 639
f 146 155 627 624
f 120 129 637 640
f 192 201 636 623
f 13 22 630 622
f 84 93 635 621
f 263 280 634 620
f 183 192 623 619
f 75 84 621 643
f 518 517 628 618
f 245 254 633 638
f 280 518 618 634
f 40 49 625 617
f 254 263 620 633
f 173 183 619 645
f 31 40 617 644
f 218 227 626 616
f 201 218 616 636
f 4 13 622 615
f 515 4 615 641
f 129 146 624 637
f 93 102 632 635
f 506 502 828 810
f 474 466 827 809
f 418 410 826 808
f 394 386 825 807
f 338 329 824 806
f 466 458 823 827
f 482 478 822 805
f 410 402 821 826
f 354 346 820 804
f 492 487 819 803
f 434 426 818 802
f 313 305 817 801
f 478 474 809 822
f 426 418 808 818
f 450 442 816 800
f 370 362 815 799
f 502 497 814 828
f 487 482 805 819
f 297 289 813 798
f 305 297 798 817
f 442 434 802 816
f 386 378 812 825
f 362 354 804 815
f 329 321 811 824
f 402 394 807 821
f 510 506 810 797
f 321 313 801 811
f 497 492 803 814
f 458 450 800 823
f 378 370 799 812
f 289 510 797 813
f 346 338 806 820
usemtl Material.003
f 715 714 720 721
f 716 715 721 722
f 712 711 717 718
f 713 712 718 719
f 714 713 719 720
f 718 717 723 724
f 719 718 724 725
f 720 719 725 726
f 721 720 726 727
f 722 721 727 728
f 728 727 733 734
f 724 723 729 730
f 725 724 730 731
f 726 725 731 732
f 727 726 732 733
f 730 729 735 736
f 731 730 736 737
f 732 731 737 738
f 733 732 738 739
f 734 733 739 740
f 740 739 745 746
f 736 735 741 742
f 737 736 742 743
f 738 737 743 744
f 739 738 744 745
f 743 742 748 749
f 744 743 749 750
f 745 744 750 751
f 746 745 751 752
f 742 741 747 748
f 748 747 753 754
f 749 748 754 755
f 750 749 755 756
f 751 750 756 757
f 752 751 757 758
f 755 754 760 761
f 756 755 761 762
f 757 756 762 763
f 758 757 763 764
f 754 753 759 760
usemtl Material.004
f 283 282 9 10
f 284 283 10 11
f 285 284 11 12
f 182 285 12
f 281 2 6 7
f 3 281 7 8
f 282 3 8 9
f 8 7 16 17
f 9 8 17 18
f 10 9 18 19
f 11 10 19 20
f 12 11 20 21
f 182 12 21
f 7 6 15 16
f 21 20 29 30
f 182 21 30
f 17 16 25 26
f 18 17 26 27
f 19 18 27 28
f 20 19 28 29
f 27 26 35 36
f 28 27 36 37
f 29 28 37 38
f 30 29 38 39
f 182 30 39
f 26 25 34 35
f 182 39 48
f 33 32 41 42
f 34 33 42 43
f 35 34 43 44
f 36 35 44 45
f 37 36 45 46
f 38 37 46 47
f 39 38 47 48
f 46 45 54 55
f 47 46 55 56
f 48 47 56 57
f 182 48 57
f 42 41 50 51
f 43 42 51 52
f 44 43 52 53
f 45 44 53 54
f 51 50 59 60
f 52 51 60 61
f 53 52 61 62
f 54 53 62 63
f 55 54 63 64
f 56 55 64 65
f 57 56 65 66
f 182 57 66
f 64 63 71 72
f 65 64 72 73
f 66 65 73 74
f 182 66 74
f 60 59 67 68
f 61 60 68 69
f 62 61 69 70
f 63 62 70 71
f 71 70 79 80
f 72 71 80 81
f 73 72 81 82
f 74 73 82 83
f 182 74 83
f 82 81 90 91
f 83 82 91 92
f 182 83 92
f 79 78 87 88
f 80 79 88 89
f 81 80 89 90
f 87 86 95 96
f 88 87 96 97
f 89 88 97 98
f 90 89 98 99
f 91 90 99 100
f 92 91 100 101
f 182 92 101
f 86 85 94 95
f 100 99 108 109
f 101 100 109 110
f 182 101 110
f 95 94 103 104
f 96 95 104 105
f 97 96 105 106
f 98 97 106 107
f 99 98 107 108
f 106 105 114 115
f 107 106 115 116
f 108 107 116 117
f 109 108 117 118
f 110 109 118 119
f 182 110 119
f 105 104 113 114
f 119 118 127 128
f 182 119 128
f 115 114 123 124
f 116 115 124 125
f 117 116 125 126
f 118 117 126 127
f 125 124 133 134
f 126 125 134 135
f 127 126 135 136
f 128 127 136 137
f 182 128 137
f 124 123 132 133
f 182 137 145
f 132 131 139 140
f 133 132 140 141
f 134 133 141 142
f 135 134 142 143
f 136 135 143 144
f 137 136 144 145
f 142 141 150 151
f 143 142 151 152
f 144 143 152 153
f 145 144 153 154
f 182 145 154
f 139 138 147 148
f 140 139 148 149
f 141 140 149 150
f 182 154 163
f 148 147 156 157
f 149 148 157 158
f 150 149 158 159
f 151 150 159 160
f 152 151 160 161
f 153 152 161 162
f 154 153 162 163
f 161 160 169 170
f 162 161 170 171
f 163 162 171 172
f 182 163 172
f 157 156 165 166
f 158 157 166 167
f 159 158 167 168
f 160 159 168 169
f 168 167 176 177
f 169 168 177 178
f 170 169 178 179
f 171 170 179 180
f 172 171 180 181
f 182 172 181
f 179 178 188 189
f 180 179 189 190
f 181 180 190 191
f 182 181 191
f 178 177 187 188
f 188 187 196 197
f 189 188 197 198
f 190 189 198 199
f 191 190 199 200
f 182 191 200
f 199 198 207 208
f 200 199 208 209
f 182 200 209
f 197 196 205 206
f 198 197 206 207
f 206 205 213 214
f 207 206 214 215
f 208 207 215 216
f 209 208 216 217
f 182 209 217
f 217 216 225 226
f 182 217 226
f 213 212 221 222
f 214 213 222 223
f 215 214 223 224
f 216 215 224 225
f 222 221 230 231
f 223 222 231 232
f 224 223 232 233
f 225 224 233 234
f 226 225 234 235
f 182 226 235
f 221 220 229 230
f 235 234 243 244
f 182 235 244
f 229 228 237 238
f 230 229 238 239
f 231 230 239 240
f 232 231 240 241
f 233 232 241 242
f 234 233 242 243
f 241 240 249 250
f 242 241 250 251
f 243 242 251 252
f 244 243 252 253
f 182 244 253
f 238 237 246 247
f 239 238 247 248
f 240 239 248 249
f 182 253 262
f 248 247 256 257
f 249 248 257 258
f 250 249 258 259
f 251 250 259 260
f 252 251 260 261
f 253 252 261 262
f 259 258 267 268
f 260 259 268 269
f 261 260 269 270
f 262 261 270 271
f 182 262 271
f 257 256 265 266
f 258 257 266 267
f 182 271 279
f 266 265 273 274
f 267 266 274 275
f 268 267 275 276
f 269 268 276 277
f 270 269 277 278
f 271 270 278 279
f 277 276 282 283
f 278 277 283 284
f 279 278 284 285
f 182 279 285
f 274 273 2 281
f 275 274 281 3
f 276 275 3 282
f 67 59 854 853
f 156 147 838 860
