# Blender 4.4.3
# www.blender.org
mtllib gun.mtl
o Cylinder
v 0.000000 0.157437 -0.647416
v 0.000000 0.157437 0.647416
v 0.030714 0.154412 -0.647416
v 0.030714 0.154412 0.647416
v 0.060249 0.145453 -0.647416
v 0.060249 0.145453 0.647416
v 0.087467 0.130904 -0.647416
v 0.087467 0.130904 0.647416
v 0.111325 0.111325 -0.647416
v 0.111325 0.111325 0.647416
v 0.130904 0.087467 -0.647416
v 0.130904 0.087467 0.647416
v 0.145453 0.060249 -0.647416
v 0.145453 0.060249 0.647416
v 0.154412 0.030714 -0.647416
v 0.154412 0.030714 0.647416
v 0.157437 0.000000 -0.647416
v 0.157437 -0.000000 0.647416
v 0.154412 -0.030714 -0.647416
v 0.154412 -0.030714 0.647416
v 0.145453 -0.060249 -0.647416
v 0.145453 -0.060249 0.647416
v 0.130904 -0.087467 -0.647416
v 0.130904 -0.087467 0.647416
v 0.111325 -0.111325 -0.647416
v 0.111325 -0.111325 0.647416
v 0.087467 -0.130904 -0.647416
v 0.087467 -0.130904 0.647416
v 0.060249 -0.145453 -0.647416
v 0.060249 -0.145453 0.647416
v 0.030714 -0.154412 -0.647416
v 0.030714 -0.154412 0.647416
v 0.000000 -0.157437 -0.647416
v 0.000000 -0.157437 0.647416
v -0.030714 -0.154412 -0.647416
v -0.030714 -0.154412 0.647416
v -0.060249 -0.145453 -0.647416
v -0.060249 -0.145453 0.647416
v -0.087467 -0.130904 -0.647416
v -0.087467 -0.130904 0.647416
v -0.111325 -0.111325 -0.647416
v -0.111325 -0.111325 0.647416
v -0.130904 -0.087467 -0.647416
v -0.130904 -0.087467 0.647416
v -0.145453 -0.060249 -0.647416
v -0.145453 -0.060249 0.647416
v -0.154412 -0.030714 -0.647416
v -0.154412 -0.030714 0.647416
v -0.157437 0.000000 -0.647416
v -0.157437 -0.000000 0.647416
v -0.154412 0.030714 -0.647416
v -0.154412 0.030714 0.647416
v -0.145453 0.060249 -0.647416
v -0.145453 0.060249 0.647416
v -0.130904 0.087467 -0.647416
v -0.130904 0.087467 0.647416
v -0.111325 0.111325 -0.647416
v -0.111325 0.111325 0.647416
v -0.087467 0.130904 -0.647416
v -0.087467 0.130904 0.647416
v -0.060249 0.145453 -0.647416
v -0.060249 0.145453 0.647416
v -0.030714 0.154412 -0.647416
v -0.030714 0.154412 0.647416
s 0
usemtl Material.001
f 1 2 4 3
f 3 4 6 5
f 5 6 8 7
f 7 8 10 9
f 9 10 12 11
f 11 12 14 13
f 13 14 16 15
f 15 16 18 17
f 17 18 20 19
f 19 20 22 21
f 21 22 24 23
f 23 24 26 25
f 25 26 28 27
f 27 28 30 29
f 29 30 32 31
f 31 32 34 33
f 33 34 36 35
f 35 36 38 37
f 37 38 40 39
f 39 40 42 41
f 41 42 44 43
f 43 44 46 45
f 45 46 48 47
f 47 48 50 49
f 49 50 52 51
f 51 52 54 53
f 53 54 56 55
f 55 56 58 57
f 57 58 60 59
f 59 60 62 61
f 4 2 64 62 60 58 56 54 52 50 48 46 44 42 40 38 36 34 32 30 28 26 24 22 20 18 16 14 12 10 8 6
f 61 62 64 63
f 63 64 2 1
f 1 3 5 7 9 11 13 15 17 19 21 23 25 27 29 31 33 35 37 39 41 43 45 47 49 51 53 55 57 59 61 63
o Cylinder.001
v 0.000000 0.058923 -1.201952
v 0.000000 0.115207 -0.254436
v 0.011495 0.057791 -1.201952
v 0.022476 0.112994 -0.254436
v 0.022549 0.054438 -1.201952
v 0.044088 0.106438 -0.254436
v 0.032736 0.048992 -1.201952
v 0.064006 0.095791 -0.254436
v 0.041665 0.041665 -1.201952
v 0.081464 0.081464 -0.254436
v 0.048992 0.032736 -1.201952
v 0.095791 0.064006 -0.254436
v 0.054438 0.022549 -1.201952
v 0.106438 0.044088 -0.254436
v 0.057791 0.011495 -1.201952
v 0.112994 0.022476 -0.254436
v 0.058923 0.000000 -1.201952
v 0.115207 -0.000000 -0.254436
v 0.057791 -0.011495 -1.201952
v 0.112994 -0.022476 -0.254436
v 0.054438 -0.022549 -1.201952
v 0.106438 -0.044088 -0.254436
v 0.048992 -0.032736 -1.201952
v 0.095791 -0.064006 -0.254436
v 0.041665 -0.041665 -1.201952
v 0.081464 -0.081464 -0.254436
v 0.032736 -0.048992 -1.201952
v 0.064006 -0.095791 -0.254436
v 0.022549 -0.054437 -1.201952
v 0.044088 -0.106438 -0.254436
v 0.011495 -0.057791 -1.201952
v 0.022476 -0.112994 -0.254436
v 0.000000 -0.058923 -1.201952
v 0.000000 -0.115207 -0.254436
v -0.011495 -0.057791 -1.201952
v -0.022476 -0.112994 -0.254436
v -0.022549 -0.054437 -1.201952
v -0.044088 -0.106438 -0.254436
v -0.032736 -0.048992 -1.201952
v -0.064006 -0.095791 -0.254436
v -0.041665 -0.041665 -1.201952
v -0.081464 -0.081464 -0.254436
v -0.048992 -0.032736 -1.201952
v -0.095791 -0.064006 -0.254436
v -0.054437 -0.022549 -1.201952
v -0.106438 -0.044088 -0.254436
v -0.057791 -0.011495 -1.201952
v -0.112994 -0.022476 -0.254436
v -0.058923 0.000000 -1.201952
v -0.115207 -0.000000 -0.254436
v -0.057791 0.011495 -1.201952
v -0.112994 0.022476 -0.254436
v -0.054437 0.022549 -1.201952
v -0.106438 0.044088 -0.254436
v -0.048992 0.032736 -1.201952
v -0.095791 0.064006 -0.254436
v -0.041665 0.041665 -1.201952
v -0.081464 0.081464 -0.254436
v -0.032736 0.048992 -1.201952
v -0.064006 0.095791 -0.254436
v -0.022549 0.054438 -1.201952
v -0.044088 0.106438 -0.254436
v -0.011495 0.057791 -1.201952
v -0.022476 0.112994 -0.254436
v 0.000000 0.115207 -0.728194
v 0.022476 0.112994 -0.728194
v 0.044088 0.106438 -0.728194
v 0.064006 0.095791 -0.728194
v 0.081464 0.081464 -0.728194
v 0.095791 0.064006 -0.728194
v 0.106438 0.044088 -0.728194
v 0.112994 0.022476 -0.728194
v 0.115207 0.000000 -0.728194
v 0.112994 -0.022476 -0.728194
v 0.106438 -0.044088 -0.728194
v 0.095791 -0.064006 -0.728194
v 0.081464 -0.081464 -0.728194
v 0.064006 -0.095791 -0.728194
v 0.044088 -0.106438 -0.728194
v 0.022476 -0.112994 -0.728194
v 0.000000 -0.115207 -0.728194
v -0.022476 -0.112994 -0.728194
v -0.044088 -0.106438 -0.728194
v -0.064006 -0.095791 -0.728194
v -0.081464 -0.081464 -0.728194
v -0.095791 -0.064006 -0.728194
v -0.106438 -0.044088 -0.728194
v -0.112994 -0.022476 -0.728194
v -0.115207 0.000000 -0.728194
v -0.112994 0.022476 -0.728194
v -0.106438 0.044088 -0.728194
v -0.095791 0.064006 -0.728194
v -0.081464 0.081464 -0.728194
v -0.064006 0.095791 -0.728194
v -0.044088 0.106438 -0.728194
v -0.022476 0.112994 -0.728194
v 0.013666 0.068705 -0.965073
v 0.026807 0.064718 -0.965073
v 0.038918 0.058245 -0.965073
v 0.049533 0.049533 -0.965073
v 0.058245 0.038918 -0.965073
v 0.064718 0.026807 -0.965073
v 0.068705 0.013666 -0.965073
v 0.070051 0.000000 -0.965073
v 0.068705 -0.013666 -0.965073
v 0.064718 -0.026807 -0.965073
v 0.058245 -0.038918 -0.965073
v 0.049533 -0.049533 -0.965073
v 0.038918 -0.058245 -0.965073
v 0.026807 -0.064718 -0.965073
v 0.013666 -0.068705 -0.965073
v 0.000000 -0.070051 -0.965073
v -0.013666 -0.068705 -0.965073
v -0.026807 -0.064718 -0.965073
v -0.038918 -0.058245 -0.965073
v -0.049533 -0.049533 -0.965073
v -0.058245 -0.038918 -0.965073
v -0.064718 -0.026807 -0.965073
v -0.068705 -0.013666 -0.965073
v -0.070051 0.000000 -0.965073
v -0.068705 0.013666 -0.965073
v -0.064718 0.026807 -0.965073
v -0.058245 0.038918 -0.965073
v -0.049533 0.049533 -0.965073
v -0.038918 0.058245 -0.965073
v -0.026807 0.064718 -0.965073
v -0.013666 0.068705 -0.965073
v 0.000000 0.070051 -0.965073
s 0
usemtl Material.002
f 129 66 68 130
f 130 68 70 131
f 131 70 72 132
f 132 72 74 133
f 133 74 76 134
f 134 76 78 135
f 135 78 80 136
f 136 80 82 137
f 137 82 84 138
f 138 84 86 139
f 139 86 88 140
f 140 88 90 141
f 141 90 92 142
f 142 92 94 143
f 143 94 96 144
f 144 96 98 145
f 145 98 100 146
f 146 100 102 147
f 147 102 104 148
f 148 104 106 149
f 149 106 108 150
f 150 108 110 151
f 151 110 112 152
f 152 112 114 153
f 153 114 116 154
f 154 116 118 155
f 155 118 120 156
f 156 120 122 157
f 157 122 124 158
f 158 124 126 159
f 68 66 128 126 124 122 120 118 116 114 112 110 108 106 104 102 100 98 96 94 92 90 88 86 84 82 80 78 76 74 72 70
f 159 126 128 160
f 160 128 66 129
f 65 67 69 71 73 75 77 79 81 83 85 87 89 91 93 95 97 99 101 103 105 107 109 111 113 115 117 119 121 123 125 127
f 191 160 129 192
f 190 159 160 191
f 189 158 159 190
f 188 157 158 189
f 187 156 157 188
f 186 155 156 187
f 185 154 155 186
f 184 153 154 185
f 183 152 153 184
f 182 151 152 183
f 181 150 151 182
f 180 149 150 181
f 179 148 149 180
f 178 147 148 179
f 177 146 147 178
f 176 145 146 177
f 175 144 145 176
f 174 143 144 175
f 173 142 143 174
f 172 141 142 173
f 171 140 141 172
f 170 139 140 171
f 169 138 139 170
f 168 137 138 169
f 167 136 137 168
f 166 135 136 167
f 165 134 135 166
f 164 133 134 165
f 163 132 133 164
f 162 131 132 163
f 161 130 131 162
f 192 129 130 161
f 65 192 161 67
f 67 161 162 69
f 69 162 163 71
f 71 163 164 73
f 73 164 165 75
f 75 165 166 77
f 77 166 167 79
f 79 167 168 81
f 81 168 169 83
f 83 169 170 85
f 85 170 171 87
f 87 171 172 89
f 89 172 173 91
f 91 173 174 93
f 93 174 175 95
f 95 175 176 97
f 97 176 177 99
f 99 177 178 101
f 101 178 179 103
f 103 179 180 105
f 105 180 181 107
f 107 181 182 109
f 109 182 183 111
f 111 183 184 113
f 113 184 185 115
f 115 185 186 117
f 117 186 187 119
f 119 187 188 121
f 121 188 189 123
f 123 189 190 125
f 125 190 191 127
f 127 191 192 65
o Cube
v -0.163308 -0.269544 0.766186
v -0.163308 0.123252 0.766186
v -0.163308 -0.269544 -0.353521
v -0.163308 0.123252 -0.353521
v 0.163308 -0.269544 0.766186
v 0.163308 0.123252 0.766186
v 0.163308 -0.269544 -0.353521
v 0.163308 0.123252 -0.353521
v -0.163308 -0.073146 0.766186
v -0.163308 -0.073146 -0.353521
v 0.163308 -0.073146 -0.353521
v 0.163308 -0.073146 0.766186
v -0.163308 0.025053 0.766186
v -0.163308 0.025053 -0.353521
v 0.163308 0.025053 -0.353521
v 0.163308 0.025053 0.766186
v -0.163308 -0.171345 -0.353521
v 0.163308 -0.171345 -0.353521
v 0.163308 -0.171345 0.766186
v -0.163308 -0.171345 0.766186
v -0.163308 0.123252 0.206333
v 0.163308 0.123252 0.206333
v 0.163308 -0.073146 0.206333
v -0.163308 -0.073146 0.206333
v 0.163308 0.025053 0.206333
v -0.163308 0.025053 0.206333
v -0.163308 -0.171345 0.206333
v 0.163308 -0.171345 0.206333
v -0.163308 -0.269544 0.486259
v 0.163308 0.123252 0.486259
v 0.163308 -0.073146 0.486259
v 0.163308 0.025053 0.486259
v 0.163308 -0.171345 0.486259
v -0.163308 0.123252 0.486259
v 0.163308 -0.269544 0.486259
v -0.163308 -0.073146 0.486259
v -0.163308 0.025053 0.486259
v -0.163308 -0.171345 0.486259
v -0.163308 0.123252 0.346296
v 0.163308 -0.269544 0.346296
v -0.163308 -0.073146 0.346296
v -0.163308 0.025053 0.346296
v -0.163308 -0.171345 0.346296
v -0.163308 -0.269544 0.346296
v 0.163308 0.123252 0.346296
v 0.163308 -0.073146 0.346296
v 0.163308 0.025053 0.346296
v 0.163308 -0.171345 0.346296
v -0.163308 0.123252 -0.073594
v 0.163308 -0.269544 -0.073594
v -0.163308 -0.073146 -0.073594
v -0.163308 0.025053 -0.073594
v -0.163308 -0.171345 -0.073594
v -0.163308 -0.269544 -0.073594
v 0.163308 0.123252 -0.073594
v 0.163308 -0.073146 -0.073594
v 0.163308 0.025053 -0.073594
v 0.163308 -0.171345 -0.073594
v 0.163308 0.123252 0.066369
v 0.163308 -0.073146 0.066369
v 0.163308 0.025053 0.066369
v 0.163308 -0.171345 0.066369
v -0.163308 0.123252 0.066369
v -0.163308 -0.073146 0.066369
v -0.163308 0.025053 0.066369
v -0.163308 -0.171345 0.066369
s 0
usemtl Material.005
f 244 241 196 206
f 206 196 200 207
f 224 222 198 208
f 208 198 194 205
f 221 227 197 193
f 222 226 194 198
f 211 204 201 212
f 225 223 204 211
f 209 202 203 210
f 245 243 202 209
f 204 208 205 201
f 223 224 208 204
f 202 206 207 203
f 243 244 206 202
f 246 245 209 195
f 195 209 210 199
f 227 225 211 197
f 197 211 212 193
f 233 234 218 216
f 252 253 217 215
f 235 233 216 219
f 251 255 213 214
f 253 251 214 217
f 234 231 213 218
f 205 194 226 229
f 212 201 228 230
f 201 205 229 228
f 193 212 230 221
f 232 240 225 227
f 238 239 224 223
f 240 238 223 225
f 237 231 226 222
f 236 232 227 221
f 239 237 222 224
f 217 214 237 239
f 214 213 231 237
f 220 215 238 240
f 215 217 239 238
f 232 236 235 240
f 229 226 231 234
f 230 228 233 235
f 228 229 234 233
f 221 230 235 236
f 207 200 247 249
f 195 199 242 246
f 200 196 241 247
f 210 203 248 250
f 203 207 249 248
f 199 210 250 242
f 235 219 220 240
f 256 257 244 243
f 258 256 243 245
f 257 255 241 244
f 218 213 255 257
f 219 216 215 220
f 216 218 257 256
f 258 254 252 256
f 249 247 251 253
f 258 245 250 254
f 247 241 255 251
f 250 248 252 254
f 248 249 253 252
f 246 242 250 245
o Cube.001
v -0.063150 -0.117389 -0.143527
v -0.063150 -0.521783 -0.389357
v -0.063150 -0.117389 -0.389357
v 0.063150 -0.117389 -0.143527
v 0.063150 -0.521783 -0.389357
v 0.063150 -0.117389 -0.389357
v -0.063150 -0.319586 -0.143527
v -0.063150 -0.319586 -0.389357
v 0.063150 -0.319586 -0.389357
v 0.063150 -0.319586 -0.143527
v -0.063150 -0.521783 -0.266442
v -0.063150 -0.117389 -0.266442
v 0.063150 -0.521783 -0.266442
v 0.063150 -0.117389 -0.266442
v 0.063150 -0.319586 -0.266442
v -0.063150 -0.319586 -0.266442
v -0.063150 -0.420684 -0.389357
v 0.063150 -0.420684 -0.389357
v -0.063150 -0.420684 -0.266442
v 0.063150 -0.420684 -0.266442
v -0.063150 -0.370135 -0.389357
v 0.063150 -0.370135 -0.389357
v -0.063150 -0.370135 -0.266442
v 0.063150 -0.370135 -0.266442
v -0.063150 -0.471234 -0.389357
v 0.063150 -0.471234 -0.389357
v -0.063150 -0.471234 -0.266442
v 0.063150 -0.471234 -0.266442
v 0.063150 -0.117389 -0.204984
v 0.063150 -0.319586 -0.204984
v -0.063150 -0.117389 -0.204984
v -0.063150 -0.319586 -0.204984
v -0.063150 -0.370135 -0.204984
v 0.063150 -0.370135 -0.204984
s 0
usemtl Material.004
f 274 270 261 266
f 266 261 264 267
f 288 287 262 268
f 268 262 259 265
f 287 289 259 262
f 279 266 267 280
f 281 274 266 279
f 291 290 274 281
f 280 267 273 282
f 264 261 270 272
f 260 263 271 269
f 267 264 272 273
f 290 289 270 274
f 284 276 278 286
f 285 277 275 283
f 283 275 276 284
f 276 280 282 278
f 277 281 279 275
f 275 279 280 276
f 260 283 284 263
f 269 285 283 260
f 263 284 286 271
f 268 265 290 288
f 288 290 291 292
f 265 259 289 290
f 291 281 282 292
f 282 273 288 292
f 272 270 289 287
f 269 271 282 281
f 273 272 287 288
o Cube.002
v -0.065754 -0.652408 0.831597
v -0.065754 0.013236 0.831597
v -0.065754 0.013236 0.426953
v 0.065754 -0.652408 0.831597
v 0.065754 0.013236 0.831597
v 0.065754 0.013236 0.426953
v -0.065754 -0.319586 0.831597
v -0.065754 -0.319586 0.426953
v 0.065754 -0.319586 0.426953
v 0.065754 -0.319586 0.831597
v 0.065754 -0.485997 0.831597
v -0.065754 -0.485997 0.831597
v -0.065754 -0.652408 0.629275
v -0.065754 0.013236 0.629275
v 0.065754 -0.652408 0.629275
v 0.065754 0.013236 0.629275
v 0.065754 -0.319586 0.629275
v -0.065754 -0.319586 0.629275
v -0.065754 -0.485997 0.629275
v 0.065754 -0.485997 0.629275
v -0.065754 0.013236 0.528114
v -0.065754 -0.319586 0.528114
v -0.065754 -0.485997 0.528114
v 0.065754 0.013236 0.528114
v 0.065754 -0.319586 0.528114
v 0.065754 -0.485997 0.528114
v -0.065754 -0.652408 0.730436
v 0.065754 0.013236 0.730436
v 0.065754 -0.319586 0.730436
v 0.065754 -0.485997 0.730436
v -0.065754 0.013236 0.730436
v 0.065754 -0.652408 0.730436
v -0.065754 -0.319586 0.730436
v -0.065754 -0.485997 0.730436
v -0.065754 -0.402792 0.831597
v 0.065754 -0.402792 0.831597
v -0.065754 -0.402792 0.629275
v 0.065754 -0.402792 0.629275
v 0.065754 -0.402792 0.528114
v -0.065754 -0.402792 0.528114
v -0.065754 -0.402792 0.730436
v 0.065754 -0.402792 0.730436
v 0.065754 -0.569203 0.831597
v -0.065754 -0.569203 0.831597
v 0.065754 -0.569203 0.629275
v -0.065754 -0.569203 0.629275
v -0.065754 -0.569203 0.730436
v 0.065754 -0.569203 0.730436
s 0
usemtl Material.003
f 314 313 295 300
f 300 295 298 301
f 321 320 297 302
f 302 297 294 299
f 319 324 296 293
f 320 323 294 297
f 328 302 299 327
f 334 321 302 328
f 340 322 303 335
f 335 303 304 336
f 300 301 309 310
f 339 326 311 338
f 333 325 310 329
f 318 312 311 315
f 316 313 306 308
f 317 316 308 309
f 325 323 306 310
f 301 298 316 317
f 298 295 313 316
f 329 310 309 330
f 318 315 332 331
f 307 305 311 312
f 310 306 313 314
f 299 294 323 325
f 327 299 325 333
f 336 304 326 339
f 337 312 322 340
f 330 309 321 334
f 308 306 323 320
f 305 307 324 319
f 309 308 320 321
f 312 330 334 322
f 304 327 333 326
f 311 329 332 315
f 318 331 330 312
f 326 333 329 311
f 322 334 328 303
f 303 328 327 304
f 307 337 340 324
f 293 336 339 319
f 319 339 338 305
f 296 335 336 293
f 324 340 335 296
o Cube.003
v -0.127866 -0.181661 1.594569
v -0.127866 0.125888 1.594569
v -0.101127 -0.149504 0.677961
v -0.101127 0.093732 0.677961
v 0.127866 -0.181661 1.594569
v 0.127866 0.125888 1.594569
v 0.101127 -0.149504 0.677961
v 0.101127 0.093732 0.677961
s 0
usemtl Material.006
f 341 342 344 343
f 343 344 348 347
f 347 348 346 345
f 345 346 342 341
f 343 347 345 341
f 348 344 342 346
o Cube.004
v -0.021660 0.136766 0.378382
v -0.021660 0.227054 0.378382
v -0.021660 0.136766 0.288094
v -0.021660 0.227054 0.288094
v 0.021660 0.136766 0.378382
v 0.021660 0.227054 0.378382
v 0.021660 0.136766 0.288094
v 0.021660 0.227054 0.288094
v 0.000000 0.136766 0.288094
v 0.000000 0.136766 0.378382
v 0.010830 0.227054 0.288094
v 0.010830 0.136766 0.378382
v 0.010830 0.136766 0.288094
v 0.010830 0.227054 0.378382
v -0.010830 0.136766 0.288094
v -0.010830 0.227054 0.378382
v -0.010830 0.227054 0.288094
v -0.010830 0.136766 0.378382
v -0.021660 0.181910 0.378382
v -0.021660 0.181910 0.288094
v 0.021660 0.181910 0.288094
v 0.021660 0.181910 0.378382
v 0.000000 0.181910 0.378382
v 0.000000 0.181910 0.288094
v 0.010830 0.181910 0.378382
v 0.010830 0.181910 0.288094
v -0.010830 0.181910 0.288094
v -0.010830 0.181910 0.378382
v -0.021660 0.204482 0.378382
v -0.021660 0.204482 0.288094
v 0.021660 0.204482 0.288094
v 0.021660 0.204482 0.378382
v 0.000000 0.204482 0.378382
v 0.000000 0.204482 0.288094
v 0.010830 0.204482 0.378382
v 0.010830 0.204482 0.288094
v -0.010830 0.204482 0.288094
v -0.010830 0.204482 0.378382
s 0
usemtl Material.007
f 377 350 352 378
f 384 359 356 379
f 379 356 354 380
f 386 364 350 377
f 361 355 353 360
f 365 352 350 364
f 363 357 358 366
f 380 354 362 383
f 356 359 362 354
f 357 361 360 358
f 378 352 365 385
f 351 363 366 349
f 358 371 376 366
f 351 368 375 363
f 357 372 374 361
f 353 370 373 360
f 363 375 372 357
f 360 373 371 358
f 366 376 367 349
f 355 369 370 353
f 361 374 369 355
f 349 367 368 351
f 371 381 386 376
f 368 378 385 375
f 372 382 384 374
f 370 380 383 373
f 375 385 382 372
f 373 383 381 371
f 376 386 377 367
f 369 379 380 370
f 374 384 379 369
f 367 377 378 368
f 364 386 385 365
f 383 384 385 386
f 362 359 384 383
o Cube.005
v 0.004546 0.200077 -1.173174
v 0.004546 -0.049388 -1.173174
v 0.004546 0.200077 -1.123241
v 0.004546 -0.049388 -1.123241
v -0.004546 0.200077 -1.173174
v -0.004546 -0.049388 -1.173174
v -0.004546 0.200077 -1.123241
v -0.004546 -0.049388 -1.123241
s 0
usemtl Material.008
f 387 389 390 388
f 389 393 394 390
f 393 391 392 394
f 391 387 388 392
f 389 387 391 393
f 394 392 388 390
